# Wavefront OBJ exported from front_case.stl
v 103.93444 2.37626 6.50000
v 103.98357 2.68641 0.00000
v 103.98357 2.68641 6.50000
v 103.93444 2.37626 0.00000
v 0.00000 53.00000 0.00000
v 0.00000 16.60000 3.10000
v 0.00000 53.00000 6.50000
v 0.00000 3.00000 0.00000
v 0.00000 7.40000 3.10000
v 0.00000 3.00000 6.50000
v 0.00000 7.40000 6.50000
v 0.00000 16.60000 6.50000
v 104.00000 53.00000 6.50000
v 103.98357 53.31358 0.00000
v 103.98357 53.31358 6.50000
v 104.00000 53.00000 0.00000
v 3.00000 0.00000 0.00000
v 101.00000 0.00000 6.50000
v 3.00000 0.00000 6.50000
v 101.00000 0.00000 0.00000
v 0.75000 3.25000 6.50000
v 0.75000 7.40000 6.50000
v 0.01643 2.68641 6.50000
v 0.40192 1.50000 6.50000
v 0.57295 1.23664 6.50000
v 0.25936 1.77979 6.50000
v 0.14683 2.07295 6.50000
v 0.06556 2.37626 6.50000
v 103.23631 53.01132 6.50000
v 103.25000 52.75000 6.50000
v 104.00000 3.00000 6.50000
v 103.19537 53.26978 6.50000
v 103.93444 53.62373 6.50000
v 103.25000 3.25000 6.50000
v 103.12764 53.52254 6.50000
v 103.85317 53.92705 6.50000
v 103.23631 2.98868 6.50000
v 103.03386 53.76684 6.50000
v 103.74064 54.22021 6.50000
v 102.91506 54.00000 6.50000
v 103.59808 54.50000 6.50000
v 103.19537 2.73022 6.50000
v 102.77254 54.21946 6.50000
v 103.42705 54.76336 6.50000
v 103.12764 2.47746 6.50000
v 102.60786 54.42282 6.50000
v 103.22943 55.00739 6.50000
v 103.00739 55.22943 6.50000
v 102.42283 54.60786 6.50000
v 102.76335 55.42705 6.50000
v 102.21946 54.77254 6.50000
v 102.50000 55.59808 6.50000
v 102.00000 54.91506 6.50000
v 102.22021 55.74063 6.50000
v 101.76684 55.03386 6.50000
v 101.92705 55.85317 6.50000
v 101.52254 55.12764 6.50000
v 101.62373 55.93444 6.50000
v 101.26978 55.19537 6.50000
v 101.31358 55.98357 6.50000
v 101.01132 55.23631 6.50000
v 101.00000 56.00000 6.50000
v 100.75000 55.25000 6.50000
v 3.25000 55.25000 6.50000
v 3.00000 56.00000 6.50000
v 2.98868 55.23631 6.50000
v 2.68641 55.98357 6.50000
v 2.73022 55.19537 6.50000
v 2.37626 55.93444 6.50000
v 2.47746 55.12764 6.50000
v 2.07295 55.85317 6.50000
v 2.23316 55.03386 6.50000
v 1.77979 55.74063 6.50000
v 2.00000 54.91506 6.50000
v 1.50000 55.59808 6.50000
v 1.78054 54.77254 6.50000
v 1.23664 55.42705 6.50000
v 1.57717 54.60786 6.50000
v 0.99261 55.22943 6.50000
v 1.39214 54.42282 6.50000
v 0.77057 55.00739 6.50000
v 0.57295 54.76336 6.50000
v 1.22746 54.21946 6.50000
v 0.40192 54.50000 6.50000
v 1.08494 54.00000 6.50000
v 0.25936 54.22021 6.50000
v 0.96614 53.76684 6.50000
v 0.14683 53.92705 6.50000
v 0.87236 53.52254 6.50000
v 0.06556 53.62373 6.50000
v 0.80463 53.26978 6.50000
v 0.01643 53.31358 6.50000
v 0.76369 53.01132 6.50000
v 0.75000 52.75000 6.50000
v 0.75000 16.60000 6.50000
v 103.85317 2.07295 6.50000
v 103.03386 2.23316 6.50000
v 103.74064 1.77979 6.50000
v 102.91506 2.00000 6.50000
v 103.59808 1.50000 6.50000
v 102.77254 1.78054 6.50000
v 103.42705 1.23664 6.50000
v 102.60786 1.57717 6.50000
v 103.22943 0.99261 6.50000
v 103.00739 0.77057 6.50000
v 102.42283 1.39214 6.50000
v 102.76335 0.57295 6.50000
v 102.21946 1.22746 6.50000
v 102.50000 0.40192 6.50000
v 102.00000 1.08494 6.50000
v 102.22021 0.25936 6.50000
v 101.76684 0.96614 6.50000
v 101.92705 0.14683 6.50000
v 101.52254 0.87236 6.50000
v 101.62373 0.06556 6.50000
v 101.26978 0.80463 6.50000
v 101.31358 0.01643 6.50000
v 101.01132 0.76369 6.50000
v 100.75000 0.75000 6.50000
v 3.25000 0.75000 6.50000
v 2.98868 0.76369 6.50000
v 2.68641 0.01643 6.50000
v 2.73022 0.80463 6.50000
v 2.37626 0.06556 6.50000
v 2.47746 0.87236 6.50000
v 2.07295 0.14683 6.50000
v 2.23316 0.96614 6.50000
v 1.77979 0.25936 6.50000
v 2.00000 1.08494 6.50000
v 1.50000 0.40192 6.50000
v 1.78054 1.22746 6.50000
v 1.23664 0.57295 6.50000
v 1.57717 1.39214 6.50000
v 0.99261 0.77057 6.50000
v 1.39214 1.57717 6.50000
v 1.22746 1.78054 6.50000
v 1.08494 2.00000 6.50000
v 0.96614 2.23316 6.50000
v 0.87236 2.47746 6.50000
v 0.80463 2.73022 6.50000
v 0.77057 0.99261 6.50000
v 0.76369 2.98868 6.50000
v 104.00000 3.00000 0.00000
v 101.00000 56.00000 0.00000
v 3.00000 56.00000 0.00000
v 101.31358 0.01643 0.00000
v 2.68641 55.98357 0.00000
v 103.42705 54.76336 0.00000
v 103.59808 54.50000 0.00000
v 103.74064 54.22021 0.00000
v 1.50000 0.40192 0.00000
v 1.77979 0.25936 0.00000
v 2.07295 0.14683 0.00000
v 2.37626 0.06556 0.00000
v 103.00000 3.00000 0.00000
v 102.98904 2.79094 0.00000
v 103.00000 53.00000 0.00000
v 102.95630 2.58418 0.00000
v 103.85317 2.07295 0.00000
v 102.90211 2.38197 0.00000
v 103.74064 1.77979 0.00000
v 102.98904 53.20906 0.00000
v 102.82709 2.18653 0.00000
v 103.59808 1.50000 0.00000
v 103.93444 53.62373 0.00000
v 102.73205 2.00000 0.00000
v 103.42705 1.23664 0.00000
v 102.95630 53.41582 0.00000
v 102.61803 1.82443 0.00000
v 103.22943 0.99261 0.00000
v 103.85317 53.92705 0.00000
v 102.48629 1.66174 0.00000
v 103.00739 0.77057 0.00000
v 102.90211 53.61803 0.00000
v 102.33826 1.51371 0.00000
v 102.76335 0.57295 0.00000
v 102.17557 1.38197 0.00000
v 102.50000 0.40192 0.00000
v 102.00000 1.26795 0.00000
v 102.22021 0.25936 0.00000
v 101.81348 1.17291 0.00000
v 101.92705 0.14683 0.00000
v 101.61803 1.09789 0.00000
v 101.62373 0.06556 0.00000
v 101.41582 1.04370 0.00000
v 101.20906 1.01096 0.00000
v 101.00000 1.00000 0.00000
v 3.00000 1.00000 0.00000
v 2.79094 1.01096 0.00000
v 2.68641 0.01643 0.00000
v 2.58418 1.04370 0.00000
v 2.38197 1.09789 0.00000
v 2.18653 1.17291 0.00000
v 2.00000 1.26795 0.00000
v 1.82443 1.38197 0.00000
v 1.23664 0.57295 0.00000
v 1.66174 1.51371 0.00000
v 0.99261 0.77057 0.00000
v 1.51371 1.66174 0.00000
v 0.77057 0.99261 0.00000
v 1.38197 1.82443 0.00000
v 0.57295 1.23664 0.00000
v 1.26795 2.00000 0.00000
v 0.40192 1.50000 0.00000
v 1.17291 2.18653 0.00000
v 0.25936 1.77979 0.00000
v 1.09789 2.38197 0.00000
v 102.82709 53.81347 0.00000
v 102.73205 54.00000 0.00000
v 102.61803 54.17557 0.00000
v 103.22943 55.00739 0.00000
v 102.48629 54.33826 0.00000
v 103.00739 55.22943 0.00000
v 102.33826 54.48629 0.00000
v 102.76335 55.42705 0.00000
v 102.17557 54.61803 0.00000
v 102.50000 55.59808 0.00000
v 102.00000 54.73205 0.00000
v 102.22021 55.74063 0.00000
v 101.81348 54.82709 0.00000
v 101.92705 55.85317 0.00000
v 101.61803 54.90211 0.00000
v 101.62373 55.93444 0.00000
v 101.41582 54.95630 0.00000
v 101.31358 55.98357 0.00000
v 101.20906 54.98904 0.00000
v 101.00000 55.00000 0.00000
v 3.00000 55.00000 0.00000
v 2.79094 54.98904 0.00000
v 2.58418 54.95630 0.00000
v 2.37626 55.93444 0.00000
v 2.38197 54.90211 0.00000
v 2.07295 55.85317 0.00000
v 2.18653 54.82709 0.00000
v 1.77979 55.74063 0.00000
v 2.00000 54.73205 0.00000
v 1.50000 55.59808 0.00000
v 1.82443 54.61803 0.00000
v 1.23664 55.42705 0.00000
v 1.66174 54.48629 0.00000
v 0.99261 55.22943 0.00000
v 1.51371 54.33826 0.00000
v 0.77057 55.00739 0.00000
v 1.38197 54.17557 0.00000
v 0.57295 54.76336 0.00000
v 1.26795 54.00000 0.00000
v 0.40192 54.50000 0.00000
v 1.17291 53.81347 0.00000
v 0.25936 54.22021 0.00000
v 1.09789 53.61803 0.00000
v 0.14683 53.92705 0.00000
v 1.04370 53.41582 0.00000
v 0.06556 53.62373 0.00000
v 1.01096 53.20906 0.00000
v 0.01643 53.31358 0.00000
v 1.00000 53.00000 0.00000
v 1.00000 3.00000 0.00000
v 0.14683 2.07295 0.00000
v 1.04370 2.58418 0.00000
v 0.06556 2.37626 0.00000
v 1.01096 2.79094 0.00000
v 0.01643 2.68641 0.00000
v 0.75000 7.40000 7.70000
v 0.75000 3.25000 7.70000
v 0.75000 52.75000 7.70000
v 0.75000 16.60000 7.70000
v 103.25000 52.75000 7.70000
v 103.23631 53.01132 7.70000
v 100.75000 0.75000 7.70000
v 3.25000 0.75000 7.70000
v 1.50000 4.00000 7.70000
v 1.50000 7.40000 7.70000
v 0.76369 2.98868 7.70000
v 1.22746 1.78054 7.70000
v 1.39214 1.57717 7.70000
v 1.08494 2.00000 7.70000
v 0.96614 2.23316 7.70000
v 0.87236 2.47746 7.70000
v 0.80463 2.73022 7.70000
v 102.37764 52.77254 7.70000
v 102.50000 52.00000 7.70000
v 103.25000 3.25000 7.70000
v 102.28386 53.01684 7.70000
v 103.19537 53.26978 7.70000
v 102.50000 4.00000 7.70000
v 103.12764 53.52254 7.70000
v 102.48631 3.73868 7.70000
v 102.16506 53.25000 7.70000
v 103.03386 53.76684 7.70000
v 102.44537 3.48022 7.70000
v 102.02254 53.46946 7.70000
v 102.91506 54.00000 7.70000
v 102.37764 3.22746 7.70000
v 102.77254 54.21946 7.70000
v 103.23631 2.98868 7.70000
v 101.85786 53.67282 7.70000
v 102.60786 54.42282 7.70000
v 102.28386 2.98316 7.70000
v 103.19537 2.73022 7.70000
v 102.48631 52.26132 7.70000
v 102.44537 52.51978 7.70000
v 102.42283 54.60786 7.70000
v 101.67283 53.85786 7.70000
v 102.21946 54.77254 7.70000
v 101.46946 54.02254 7.70000
v 102.00000 54.91506 7.70000
v 101.76684 55.03386 7.70000
v 101.25000 54.16506 7.70000
v 101.52254 55.12764 7.70000
v 101.01684 54.28386 7.70000
v 101.26978 55.19537 7.70000
v 101.01132 55.23631 7.70000
v 100.77254 54.37764 7.70000
v 100.75000 55.25000 7.70000
v 100.51978 54.44537 7.70000
v 100.26132 54.48631 7.70000
v 100.00000 54.50000 7.70000
v 4.00000 54.50000 7.70000
v 3.25000 55.25000 7.70000
v 3.73868 54.48631 7.70000
v 3.48022 54.44537 7.70000
v 3.22746 54.37764 7.70000
v 2.98868 55.23631 7.70000
v 2.98316 54.28386 7.70000
v 2.73022 55.19537 7.70000
v 2.47746 55.12764 7.70000
v 2.75000 54.16506 7.70000
v 2.23316 55.03386 7.70000
v 2.53054 54.02254 7.70000
v 2.00000 54.91506 7.70000
v 1.78054 54.77254 7.70000
v 2.32717 53.85786 7.70000
v 1.57717 54.60786 7.70000
v 2.14214 53.67282 7.70000
v 1.39214 54.42282 7.70000
v 1.22746 54.21946 7.70000
v 1.97746 53.46946 7.70000
v 1.08494 54.00000 7.70000
v 0.96614 53.76684 7.70000
v 1.83494 53.25000 7.70000
v 0.87236 53.52254 7.70000
v 1.71614 53.01684 7.70000
v 0.80463 53.26978 7.70000
v 0.76369 53.01132 7.70000
v 1.62236 52.77254 7.70000
v 1.55463 52.51978 7.70000
v 1.51369 52.26132 7.70000
v 1.50000 52.00000 7.70000
v 1.50000 16.60000 7.70000
v 103.12764 2.47746 7.70000
v 102.16506 2.75000 7.70000
v 103.03386 2.23316 7.70000
v 102.02254 2.53054 7.70000
v 102.91506 2.00000 7.70000
v 102.77254 1.78054 7.70000
v 101.85786 2.32717 7.70000
v 102.60786 1.57717 7.70000
v 102.42283 1.39214 7.70000
v 101.67283 2.14214 7.70000
v 102.21946 1.22746 7.70000
v 101.46946 1.97746 7.70000
v 102.00000 1.08494 7.70000
v 101.76684 0.96614 7.70000
v 101.25000 1.83494 7.70000
v 101.52254 0.87236 7.70000
v 101.01684 1.71614 7.70000
v 101.26978 0.80463 7.70000
v 101.01132 0.76369 7.70000
v 100.77254 1.62236 7.70000
v 100.51978 1.55463 7.70000
v 100.26132 1.51369 7.70000
v 100.00000 1.50000 7.70000
v 4.00000 1.50000 7.70000
v 3.73868 1.51369 7.70000
v 3.48022 1.55463 7.70000
v 3.22746 1.62236 7.70000
v 2.98868 0.76369 7.70000
v 2.98316 1.71614 7.70000
v 2.47746 0.87236 7.70000
v 2.75000 1.83494 7.70000
v 2.73022 0.80463 7.70000
v 2.23316 0.96614 7.70000
v 2.53054 1.97746 7.70000
v 1.78054 1.22746 7.70000
v 2.32717 2.14214 7.70000
v 1.57717 1.39214 7.70000
v 2.14214 2.32717 7.70000
v 2.00000 1.08494 7.70000
v 1.97746 2.53054 7.70000
v 1.83494 2.75000 7.70000
v 1.71614 2.98316 7.70000
v 1.62236 3.22746 7.70000
v 1.55463 3.48022 7.70000
v 1.51369 3.73868 7.70000
v 10.88206 7.32586 0.55000
v 10.93493 7.28304 1.50000
v 10.88206 7.32586 1.50000
v 10.93493 7.28304 0.55000
v 10.29914 7.41819 0.55000
v 10.36486 7.43580 1.50000
v 10.29914 7.41819 1.50000
v 10.36486 7.43580 0.55000
v 9.90619 7.06438 1.50000
v 9.93708 7.12500 0.55000
v 9.93708 7.12500 1.50000
v 9.90619 7.06438 0.55000
v 11.14644 6.73206 0.55000
v 11.15000 6.80000 1.50000
v 11.15000 6.80000 0.55000
v 11.14644 6.73206 1.50000
v 10.23562 6.20619 0.55000
v 10.17500 6.23708 1.50000
v 10.23562 6.20619 1.50000
v 10.17500 6.23708 0.55000
v 11.11819 7.00086 0.55000
v 11.09380 7.06438 1.50000
v 11.09380 7.06438 0.55000
v 11.11819 7.00086 1.50000
v 11.14644 6.86794 0.55000
v 11.13580 6.93514 1.50000
v 11.13580 6.93514 0.55000
v 11.14644 6.86794 1.50000
v 11.06292 7.12500 1.50000
v 11.06292 7.12500 0.55000
v 10.70086 7.41819 0.55000
v 10.76438 7.39380 1.50000
v 10.70086 7.41819 1.50000
v 10.76438 7.39380 0.55000
v 10.63514 7.43580 0.55000
v 10.63514 7.43580 1.50000
v 10.56794 7.44644 0.55000
v 10.56794 7.44644 1.50000
v 9.85356 6.86794 1.50000
v 9.86420 6.93514 0.55000
v 9.86420 6.93514 1.50000
v 9.85356 6.86794 0.55000
v 10.01696 7.23493 1.50000
v 10.06506 7.28304 0.55000
v 10.06506 7.28304 1.50000
v 10.01696 7.23493 0.55000
v 10.43206 7.44644 1.50000
v 10.43206 7.44644 0.55000
v 10.98304 6.36506 0.55000
v 11.02586 6.41794 1.50000
v 11.02586 6.41794 0.55000
v 10.98304 6.36506 1.50000
v 11.09380 6.53562 0.55000
v 11.11819 6.59914 1.50000
v 11.11819 6.59914 0.55000
v 11.09380 6.53562 1.50000
v 10.43206 6.15356 0.55000
v 10.36486 6.16420 1.50000
v 10.43206 6.15356 1.50000
v 10.36486 6.16420 0.55000
v 10.11794 6.27414 0.55000
v 10.06506 6.31696 1.50000
v 10.11794 6.27414 1.50000
v 10.06506 6.31696 0.55000
v 11.02586 7.18206 0.55000
v 10.98304 7.23493 1.50000
v 10.98304 7.23493 0.55000
v 11.02586 7.18206 1.50000
v 10.82500 7.36292 0.55000
v 10.82500 7.36292 1.50000
v 10.50000 7.45000 0.55000
v 10.50000 7.45000 1.50000
v 9.85000 6.80000 1.50000
v 9.85000 6.80000 0.55000
v 9.88181 7.00086 1.50000
v 9.88181 7.00086 0.55000
v 9.97414 7.18206 0.55000
v 9.97414 7.18206 1.50000
v 10.17500 7.36292 0.55000
v 10.23562 7.39380 1.50000
v 10.17500 7.36292 1.50000
v 10.23562 7.39380 0.55000
v 10.11794 7.32586 0.55000
v 10.11794 7.32586 1.50000
v 10.56794 6.15356 0.55000
v 10.50000 6.15000 1.50000
v 10.56794 6.15356 1.50000
v 10.50000 6.15000 0.55000
v 11.13580 6.66486 1.50000
v 11.13580 6.66486 0.55000
v 11.06292 6.47500 1.50000
v 11.06292 6.47500 0.55000
v 10.70086 6.18181 0.55000
v 10.63514 6.16420 1.50000
v 10.70086 6.18181 1.50000
v 10.63514 6.16420 0.55000
v 10.93493 6.31696 0.55000
v 10.93493 6.31696 1.50000
v 10.88206 6.27414 1.50000
v 10.88206 6.27414 0.55000
v 10.82500 6.23708 0.55000
v 10.76438 6.20619 1.50000
v 10.82500 6.23708 1.50000
v 10.76438 6.20619 0.55000
v 10.29914 6.18181 0.55000
v 10.29914 6.18181 1.50000
v 9.88181 6.59914 1.50000
v 9.86420 6.66486 0.55000
v 9.86420 6.66486 1.50000
v 9.88181 6.59914 0.55000
v 9.85356 6.73206 1.50000
v 9.85356 6.73206 0.55000
v 10.01696 6.36506 1.50000
v 9.97414 6.41794 0.55000
v 9.97414 6.41794 1.50000
v 10.01696 6.36506 0.55000
v 9.93708 6.47500 1.50000
v 9.90619 6.53562 0.55000
v 9.90619 6.53562 1.50000
v 9.93708 6.47500 0.55000
v 13.18206 7.32586 0.55000
v 13.23493 7.28304 1.50000
v 13.18206 7.32586 1.50000
v 13.23493 7.28304 0.55000
v 12.53562 7.39380 0.55000
v 12.59914 7.41819 1.50000
v 12.53562 7.39380 1.50000
v 12.59914 7.41819 0.55000
v 12.20619 7.06438 1.50000
v 12.23708 7.12500 0.55000
v 12.23708 7.12500 1.50000
v 12.20619 7.06438 0.55000
v 13.39380 6.53562 0.55000
v 13.41819 6.59914 1.50000
v 13.41819 6.59914 0.55000
v 13.39380 6.53562 1.50000
v 12.53562 6.20619 0.55000
v 12.47500 6.23708 1.50000
v 12.53562 6.20619 1.50000
v 12.47500 6.23708 0.55000
v 13.39380 7.06438 0.55000
v 13.36292 7.12500 1.50000
v 13.36292 7.12500 0.55000
v 13.39380 7.06438 1.50000
v 13.32586 7.18206 1.50000
v 13.32586 7.18206 0.55000
v 13.00086 7.41819 0.55000
v 13.06438 7.39380 1.50000
v 13.00086 7.41819 1.50000
v 13.06438 7.39380 0.55000
v 12.93514 7.43580 0.55000
v 12.93514 7.43580 1.50000
v 12.15356 6.86794 1.50000
v 12.16420 6.93514 0.55000
v 12.16420 6.93514 1.50000
v 12.15356 6.86794 0.55000
v 12.27414 7.18206 1.50000
v 12.31696 7.23493 0.55000
v 12.31696 7.23493 1.50000
v 12.27414 7.18206 0.55000
v 12.66486 7.43580 0.55000
v 12.73206 7.44644 1.50000
v 12.66486 7.43580 1.50000
v 12.73206 7.44644 0.55000
v 13.28304 6.36506 0.55000
v 13.32586 6.41794 1.50000
v 13.32586 6.41794 0.55000
v 13.28304 6.36506 1.50000
v 12.73206 6.15356 0.55000
v 12.66486 6.16420 1.50000
v 12.73206 6.15356 1.50000
v 12.66486 6.16420 0.55000
v 12.36506 6.31696 1.50000
v 12.31696 6.36506 0.55000
v 12.31696 6.36506 1.50000
v 12.36506 6.31696 0.55000
v 12.16420 6.66486 1.50000
v 12.15356 6.73206 0.55000
v 12.15356 6.73206 1.50000
v 12.16420 6.66486 0.55000
v 13.44644 6.86794 0.55000
v 13.43580 6.93514 1.50000
v 13.43580 6.93514 0.55000
v 13.44644 6.86794 1.50000
v 13.41819 7.00086 1.50000
v 13.41819 7.00086 0.55000
v 13.28304 7.23493 1.50000
v 13.28304 7.23493 0.55000
v 13.12500 7.36292 0.55000
v 13.12500 7.36292 1.50000
v 12.80000 7.45000 0.55000
v 12.86794 7.44644 1.50000
v 12.80000 7.45000 1.50000
v 12.86794 7.44644 0.55000
v 12.15000 6.80000 1.50000
v 12.15000 6.80000 0.55000
v 12.18181 7.00086 1.50000
v 12.18181 7.00086 0.55000
v 12.41794 7.32586 0.55000
v 12.47500 7.36292 1.50000
v 12.41794 7.32586 1.50000
v 12.47500 7.36292 0.55000
v 12.36506 7.28304 0.55000
v 12.36506 7.28304 1.50000
v 13.45000 6.80000 0.55000
v 13.45000 6.80000 1.50000
v 12.86794 6.15356 0.55000
v 12.80000 6.15000 1.50000
v 12.86794 6.15356 1.50000
v 12.80000 6.15000 0.55000
v 13.43580 6.66486 1.50000
v 13.43580 6.66486 0.55000
v 12.93514 6.16420 0.55000
v 12.93514 6.16420 1.50000
v 13.00086 6.18181 0.55000
v 13.00086 6.18181 1.50000
v 13.23493 6.31696 0.55000
v 13.18206 6.27414 1.50000
v 13.23493 6.31696 1.50000
v 13.18206 6.27414 0.55000
v 13.12500 6.23708 0.55000
v 13.06438 6.20619 1.50000
v 13.12500 6.23708 1.50000
v 13.06438 6.20619 0.55000
v 13.36292 6.47500 0.55000
v 13.36292 6.47500 1.50000
v 12.59914 6.18181 0.55000
v 12.59914 6.18181 1.50000
v 12.41794 6.27414 1.50000
v 12.41794 6.27414 0.55000
v 12.18181 6.59914 1.50000
v 12.18181 6.59914 0.55000
v 12.23708 6.47500 1.50000
v 12.20619 6.53562 0.55000
v 12.20619 6.53562 1.50000
v 12.23708 6.47500 0.55000
v 12.27414 6.41794 0.55000
v 12.27414 6.41794 1.50000
v 13.44644 6.73206 1.50000
v 13.44644 6.73206 0.55000
v 15.66292 7.12500 0.55000
v 15.62586 7.18206 1.50000
v 15.62586 7.18206 0.55000
v 15.66292 7.12500 1.50000
v 15.23514 7.43580 0.55000
v 15.30086 7.41819 1.50000
v 15.23514 7.43580 1.50000
v 15.30086 7.41819 0.55000
v 14.77500 7.36292 0.55000
v 14.83562 7.39380 1.50000
v 14.77500 7.36292 1.50000
v 14.83562 7.39380 0.55000
v 14.48181 7.00086 1.50000
v 14.50620 7.06438 0.55000
v 14.50620 7.06438 1.50000
v 14.48181 7.00086 0.55000
v 15.74644 6.73206 0.55000
v 15.75000 6.80000 1.50000
v 15.75000 6.80000 0.55000
v 15.74644 6.73206 1.50000
v 15.03206 7.44644 0.55000
v 15.10000 7.45000 1.50000
v 15.03206 7.44644 1.50000
v 15.10000 7.45000 0.55000
v 15.36438 7.39380 0.55000
v 15.42500 7.36292 1.50000
v 15.36438 7.39380 1.50000
v 15.42500 7.36292 0.55000
v 14.45000 6.80000 1.50000
v 14.45356 6.86794 0.55000
v 14.45356 6.86794 1.50000
v 14.45000 6.80000 0.55000
v 14.53708 7.12500 1.50000
v 14.57414 7.18206 0.55000
v 14.57414 7.18206 1.50000
v 14.53708 7.12500 0.55000
v 14.89914 7.41819 0.55000
v 14.96486 7.43580 1.50000
v 14.89914 7.41819 1.50000
v 14.96486 7.43580 0.55000
v 15.58304 7.23493 1.50000
v 15.58304 7.23493 0.55000
v 15.48206 7.32586 0.55000
v 15.53493 7.28304 1.50000
v 15.48206 7.32586 1.50000
v 15.53493 7.28304 0.55000
v 15.16794 7.44644 0.55000
v 15.16794 7.44644 1.50000
v 14.46420 6.93514 1.50000
v 14.46420 6.93514 0.55000
v 14.66506 7.28304 0.55000
v 14.71794 7.32586 1.50000
v 14.66506 7.28304 1.50000
v 14.71794 7.32586 0.55000
v 14.61696 7.23493 1.50000
v 14.61696 7.23493 0.55000
v 15.74644 6.86794 1.50000
v 15.74644 6.86794 0.55000
v 15.71819 6.59914 0.55000
v 15.73580 6.66486 1.50000
v 15.73580 6.66486 0.55000
v 15.71819 6.59914 1.50000
v 15.16794 6.15356 0.55000
v 15.10000 6.15000 1.50000
v 15.16794 6.15356 1.50000
v 15.10000 6.15000 0.55000
v 14.50620 6.53562 1.50000
v 14.48181 6.59914 0.55000
v 14.48181 6.59914 1.50000
v 14.50620 6.53562 0.55000
v 14.57414 6.41794 1.50000
v 14.53708 6.47500 0.55000
v 14.53708 6.47500 1.50000
v 14.57414 6.41794 0.55000
v 15.23514 6.16420 0.55000
v 15.23514 6.16420 1.50000
v 15.69380 7.06438 0.55000
v 15.69380 7.06438 1.50000
v 15.71819 7.00086 0.55000
v 15.71819 7.00086 1.50000
v 15.73580 6.93514 0.55000
v 15.73580 6.93514 1.50000
v 14.45356 6.73206 1.50000
v 14.45356 6.73206 0.55000
v 15.58304 6.36506 0.55000
v 15.53493 6.31696 1.50000
v 15.58304 6.36506 1.50000
v 15.53493 6.31696 0.55000
v 15.62586 6.41794 1.50000
v 15.62586 6.41794 0.55000
v 15.66292 6.47500 0.55000
v 15.69380 6.53562 1.50000
v 15.69380 6.53562 0.55000
v 15.66292 6.47500 1.50000
v 15.36438 6.20619 0.55000
v 15.30086 6.18181 1.50000
v 15.36438 6.20619 1.50000
v 15.30086 6.18181 0.55000
v 15.48206 6.27414 1.50000
v 15.48206 6.27414 0.55000
v 15.03206 6.15356 0.55000
v 14.96486 6.16420 1.50000
v 15.03206 6.15356 1.50000
v 14.96486 6.16420 0.55000
v 14.66506 6.31696 1.50000
v 14.61696 6.36506 0.55000
v 14.61696 6.36506 1.50000
v 14.66506 6.31696 0.55000
v 14.71794 6.27414 0.55000
v 14.71794 6.27414 1.50000
v 14.46420 6.66486 0.55000
v 14.46420 6.66486 1.50000
v 15.42500 6.23708 1.50000
v 15.42500 6.23708 0.55000
v 14.89914 6.18181 0.55000
v 14.83562 6.20619 1.50000
v 14.89914 6.18181 1.50000
v 14.83562 6.20619 0.55000
v 14.77500 6.23708 1.50000
v 14.77500 6.23708 0.55000
v 17.19914 6.18181 0.55000
v 17.13562 6.20619 1.50000
v 17.19914 6.18181 1.50000
v 17.13562 6.20619 0.55000
v 17.72500 7.36292 0.55000
v 17.78206 7.32586 1.50000
v 17.72500 7.36292 1.50000
v 17.78206 7.32586 0.55000
v 17.13562 7.39380 0.55000
v 17.19914 7.41819 1.50000
v 17.13562 7.39380 1.50000
v 17.19914 7.41819 0.55000
v 16.78181 7.00086 1.50000
v 16.80619 7.06438 0.55000
v 16.80619 7.06438 1.50000
v 16.78181 7.00086 0.55000
v 16.80619 6.53562 1.50000
v 16.78181 6.59914 0.55000
v 16.78181 6.59914 1.50000
v 16.80619 6.53562 0.55000
v 18.03580 6.93514 0.55000
v 18.01819 7.00086 1.50000
v 18.01819 7.00086 0.55000
v 18.03580 6.93514 1.50000
v 17.99380 7.06438 1.50000
v 17.99380 7.06438 0.55000
v 17.88304 7.23493 0.55000
v 17.83493 7.28304 1.50000
v 17.83493 7.28304 0.55000
v 17.88304 7.23493 1.50000
v 17.66438 7.39380 0.55000
v 17.66438 7.39380 1.50000
v 17.53514 7.43580 0.55000
v 17.60086 7.41819 1.50000
v 17.53514 7.43580 1.50000
v 17.60086 7.41819 0.55000
v 16.75000 6.80000 1.50000
v 16.75356 6.86794 0.55000
v 16.75356 6.86794 1.50000
v 16.75000 6.80000 0.55000
v 16.76420 6.93514 0.55000
v 16.76420 6.93514 1.50000
v 16.96507 7.28304 0.55000
v 17.01794 7.32586 1.50000
v 16.96507 7.28304 1.50000
v 17.01794 7.32586 0.55000
v 17.99380 6.53562 0.55000
v 18.01819 6.59914 1.50000
v 18.01819 6.59914 0.55000
v 17.99380 6.53562 1.50000
v 17.60086 6.18181 0.55000
v 17.53514 6.16420 1.50000
v 17.60086 6.18181 1.50000
v 17.53514 6.16420 0.55000
v 17.83493 6.31696 0.55000
v 17.88304 6.36506 1.50000
v 17.88304 6.36506 0.55000
v 17.83493 6.31696 1.50000
v 16.75356 6.73206 1.50000
v 16.75356 6.73206 0.55000
v 17.96292 7.12500 1.50000
v 17.96292 7.12500 0.55000
v 17.92586 7.18206 1.50000
v 17.92586 7.18206 0.55000
v 17.40000 7.45000 0.55000
v 17.46794 7.44644 1.50000
v 17.40000 7.45000 1.50000
v 17.46794 7.44644 0.55000
v 16.87414 7.18206 1.50000
v 16.91695 7.23493 0.55000
v 16.91695 7.23493 1.50000
v 16.87414 7.18206 0.55000
v 16.83708 7.12500 1.50000
v 16.83708 7.12500 0.55000
v 17.33206 7.44644 0.55000
v 17.33206 7.44644 1.50000
v 17.26486 7.43580 1.50000
v 17.26486 7.43580 0.55000
v 17.07500 7.36292 0.55000
v 17.07500 7.36292 1.50000
v 18.05000 6.80000 0.55000
v 18.04644 6.86794 1.50000
v 18.04644 6.86794 0.55000
v 18.05000 6.80000 1.50000
v 17.46794 6.15356 0.55000
v 17.40000 6.15000 1.50000
v 17.46794 6.15356 1.50000
v 17.40000 6.15000 0.55000
v 18.04644 6.73206 0.55000
v 18.04644 6.73206 1.50000
v 18.03580 6.66486 1.50000
v 18.03580 6.66486 0.55000
v 17.72500 6.23708 0.55000
v 17.66438 6.20619 1.50000
v 17.72500 6.23708 1.50000
v 17.66438 6.20619 0.55000
v 17.78206 6.27414 1.50000
v 17.78206 6.27414 0.55000
v 17.92586 6.41794 1.50000
v 17.92586 6.41794 0.55000
v 17.96292 6.47500 0.55000
v 17.96292 6.47500 1.50000
v 17.33206 6.15356 0.55000
v 17.26486 6.16420 1.50000
v 17.33206 6.15356 1.50000
v 17.26486 6.16420 0.55000
v 17.07500 6.23708 0.55000
v 17.01794 6.27414 1.50000
v 17.07500 6.23708 1.50000
v 17.01794 6.27414 0.55000
v 16.96507 6.31696 0.55000
v 16.91695 6.36506 1.50000
v 16.96507 6.31696 1.50000
v 16.91695 6.36506 0.55000
v 16.76420 6.66486 1.50000
v 16.76420 6.66486 0.55000
v 16.87414 6.41794 1.50000
v 16.83708 6.47500 0.55000
v 16.83708 6.47500 1.50000
v 16.87414 6.41794 0.55000
v 1.50000 7.40000 3.10000
v 1.50000 39.50000 4.70000
v 1.50000 39.50000 6.30000
v 1.50000 32.50000 6.30000
v 1.50000 21.50000 6.30000
v 1.50000 32.50000 4.70000
v 1.50000 16.60000 6.30000
v 1.50000 52.00000 1.50000
v 1.50000 21.50000 4.70000
v 1.50000 16.60000 3.10000
v 1.50000 16.60000 4.70000
v 1.50000 4.00000 1.50000
v 102.50000 52.00000 1.50000
v 102.48631 52.26132 1.50000
v 1.51369 52.26132 1.50000
v 102.50000 4.00000 1.50000
v 100.00000 1.50000 1.50000
v 4.00000 1.50000 1.50000
v 1.97746 53.46946 1.50000
v 1.83494 53.25000 1.50000
v 4.00000 54.50000 1.50000
v 100.00000 54.50000 1.50000
v 3.48022 1.55463 1.50000
v 3.22746 1.62236 1.50000
v 101.85786 2.32717 1.50000
v 102.02254 2.53054 1.50000
v 2.32717 53.85786 1.50000
v 2.53054 54.02254 1.50000
v 2.98316 54.28386 1.50000
v 3.22746 54.37764 1.50000
v 3.48022 54.44537 1.50000
v 2.98316 1.71614 1.50000
v 2.75000 1.83494 1.50000
v 2.53054 1.97746 1.50000
v 2.32717 2.14214 1.50000
v 100.77254 1.62236 1.50000
v 100.51978 1.55463 1.50000
v 101.01684 1.71614 1.50000
v 100.26132 1.51369 1.50000
v 102.37764 52.77254 1.50000
v 102.28386 53.01684 1.50000
v 1.62236 52.77254 1.50000
v 1.55463 52.51978 1.50000
v 1.71614 53.01684 1.50000
v 2.14214 53.67282 1.50000
v 2.75000 54.16506 1.50000
v 3.73868 54.48631 1.50000
v 102.16506 53.25000 1.50000
v 3.73868 1.51369 1.50000
v 1.62236 3.22746 1.50000
v 1.71614 2.98316 1.50000
v 1.51369 3.73868 1.50000
v 102.28386 2.98316 1.50000
v 102.37764 3.22746 1.50000
v 102.44537 3.48022 1.50000
v 101.25000 1.83494 1.50000
v 101.67283 2.14214 1.50000
v 101.46946 1.97746 1.50000
v 100.26132 54.48631 1.50000
v 101.01684 54.28386 1.50000
v 101.25000 54.16506 1.50000
v 101.85786 53.67282 1.50000
v 101.67283 53.85786 1.50000
v 100.77254 54.37764 1.50000
v 1.97746 2.53054 1.50000
v 2.14214 2.32717 1.50000
v 1.55463 3.48022 1.50000
v 11.50191 18.06168 1.50000
v 11.15619 18.34163 1.50000
v 10.84163 18.65619 1.50000
v 10.56168 19.00191 1.50000
v 10.31939 19.37500 1.50000
v 10.11743 19.77137 1.50000
v 9.95801 20.18668 1.50000
v 9.84287 20.61637 1.50000
v 13.55575 17.27328 1.50000
v 13.11637 17.34287 1.50000
v 12.68668 17.45801 1.50000
v 12.27137 17.61743 1.50000
v 11.87500 17.81939 1.50000
v 14.88362 17.34287 1.50000
v 14.44425 17.27328 1.50000
v 14.00000 17.25000 1.50000
v 27.00000 8.25000 1.50000
v 17.88257 19.77137 1.50000
v 18.04199 20.18668 1.50000
v 17.68061 19.37500 1.50000
v 17.43832 19.00191 1.50000
v 17.15837 18.65619 1.50000
v 16.84380 18.34163 1.50000
v 16.49809 18.06168 1.50000
v 16.12500 17.81939 1.50000
v 15.72863 17.61743 1.50000
v 15.31332 17.45801 1.50000
v 16.84380 24.65837 1.50000
v 27.00000 45.75000 1.50000
v 18.20000 43.70000 1.50000
v 18.15713 22.38363 1.50000
v 18.22672 21.94424 1.50000
v 18.04199 22.81332 1.50000
v 17.88257 23.22863 1.50000
v 17.68061 23.62500 1.50000
v 17.43832 23.99809 1.50000
v 17.15837 24.34380 1.50000
v 16.49809 24.93832 1.50000
v 16.12500 25.18061 1.50000
v 15.72863 25.38257 1.50000
v 15.31332 25.54199 1.50000
v 14.88362 25.65713 1.50000
v 14.44425 25.72672 1.50000
v 14.00000 25.75000 1.50000
v 9.80000 43.70000 1.50000
v 13.55575 25.72672 1.50000
v 13.11637 25.65713 1.50000
v 12.68668 25.54199 1.50000
v 12.27137 25.38257 1.50000
v 11.87500 25.18061 1.50000
v 11.50191 24.93832 1.50000
v 11.15619 24.65837 1.50000
v 10.84163 24.34380 1.50000
v 10.56168 23.99809 1.50000
v 10.31939 23.62500 1.50000
v 10.11743 23.22863 1.50000
v 9.95801 22.81332 1.50000
v 9.84287 22.38363 1.50000
v 98.30000 24.50000 1.50000
v 102.44537 52.51978 1.50000
v 98.27918 24.10279 1.50000
v 98.21696 23.70993 1.50000
v 98.11401 23.32574 1.50000
v 97.97147 22.95440 1.50000
v 102.02254 53.46946 1.50000
v 97.79089 22.60000 1.50000
v 97.57426 22.26641 1.50000
v 97.32395 21.95730 1.50000
v 101.46946 54.02254 1.50000
v 97.04269 21.67605 1.50000
v 96.73358 21.42574 1.50000
v 96.40000 21.20910 1.50000
v 96.04560 21.02853 1.50000
v 100.51978 54.44537 1.50000
v 95.67426 20.88598 1.50000
v 95.29006 20.78304 1.50000
v 98.00000 44.90000 1.50000
v 88.47147 15.45440 1.50000
v 88.29089 15.10000 1.50000
v 98.27918 24.89721 1.50000
v 98.11401 25.67426 1.50000
v 98.00000 42.10000 1.50000
v 98.21696 25.29006 1.50000
v 92.00000 44.90000 1.50000
v 87.00000 42.10000 1.50000
v 92.00000 42.10000 1.50000
v 91.95731 27.32395 1.50000
v 91.67605 27.04270 1.50000
v 91.42574 26.73358 1.50000
v 81.00000 42.10000 1.50000
v 91.20911 26.40000 1.50000
v 91.02853 26.04560 1.50000
v 84.20994 20.71696 1.50000
v 85.79006 20.71696 1.50000
v 90.70000 24.50000 1.50000
v 90.72082 24.89721 1.50000
v 84.60279 20.77918 1.50000
v 88.77918 17.39721 1.50000
v 88.80000 17.00000 1.50000
v 88.71696 17.79006 1.50000
v 88.61401 18.17426 1.50000
v 88.47147 18.54560 1.50000
v 88.29089 18.90000 1.50000
v 88.07426 19.23358 1.50000
v 87.82395 19.54270 1.50000
v 87.54269 19.82395 1.50000
v 87.23358 20.07426 1.50000
v 87.00000 44.90000 1.50000
v 81.00000 44.90000 1.50000
v 77.00000 45.75000 1.50000
v 18.25000 21.50000 1.50000
v 18.20000 47.30000 1.50000
v 9.80000 47.30000 1.50000
v 9.77328 21.94424 1.50000
v 88.07426 14.76642 1.50000
v 102.48631 3.73868 1.50000
v 102.16506 2.75000 1.50000
v 94.89721 20.72082 1.50000
v 88.61401 15.82574 1.50000
v 94.50000 20.70000 1.50000
v 88.71696 16.20993 1.50000
v 94.10279 20.72082 1.50000
v 88.77918 16.60279 1.50000
v 93.70994 20.78304 1.50000
v 93.32574 20.88598 1.50000
v 92.95440 21.02853 1.50000
v 92.60000 21.20910 1.50000
v 92.26642 21.42574 1.50000
v 91.95731 21.67605 1.50000
v 91.67605 21.95730 1.50000
v 91.42574 22.26641 1.50000
v 91.20911 22.60000 1.50000
v 91.02853 22.95440 1.50000
v 90.72082 24.10279 1.50000
v 90.78304 23.70993 1.50000
v 90.88599 23.32574 1.50000
v 87.82395 14.45730 1.50000
v 87.54269 14.17605 1.50000
v 87.23358 13.92573 1.50000
v 86.90000 13.70910 1.50000
v 86.54560 13.52853 1.50000
v 86.17426 13.38598 1.50000
v 85.79006 13.28304 1.50000
v 85.39721 13.22082 1.50000
v 77.00000 8.25000 1.50000
v 85.00000 13.20000 1.50000
v 84.60279 13.22082 1.50000
v 84.20994 13.28304 1.50000
v 83.82574 13.38598 1.50000
v 83.45440 13.52853 1.50000
v 83.10000 13.70910 1.50000
v 82.76642 13.92573 1.50000
v 81.28304 17.79006 1.50000
v 81.22082 17.39721 1.50000
v 81.20000 17.00000 1.50000
v 81.22082 16.60279 1.50000
v 81.28304 16.20993 1.50000
v 81.38599 15.82574 1.50000
v 81.52853 15.45440 1.50000
v 81.70911 15.10000 1.50000
v 81.92574 14.76642 1.50000
v 82.17605 14.45730 1.50000
v 82.45731 14.17605 1.50000
v 18.22672 21.05575 1.50000
v 18.15713 20.61637 1.50000
v 9.77328 21.05575 1.50000
v 9.75000 21.50000 1.50000
v 1.83494 2.75000 1.50000
v 97.97147 26.04560 1.50000
v 97.79089 26.40000 1.50000
v 97.57426 26.73358 1.50000
v 97.32395 27.04270 1.50000
v 97.04269 27.32395 1.50000
v 96.73358 27.57426 1.50000
v 96.40000 27.79090 1.50000
v 96.04560 27.97147 1.50000
v 95.67426 28.11401 1.50000
v 95.29006 28.21696 1.50000
v 94.89721 28.27918 1.50000
v 94.50000 28.30000 1.50000
v 94.10279 28.27918 1.50000
v 93.70994 28.21696 1.50000
v 93.32574 28.11401 1.50000
v 92.95440 27.97147 1.50000
v 92.60000 27.79090 1.50000
v 92.26642 27.57426 1.50000
v 90.88599 25.67426 1.50000
v 86.90000 20.29090 1.50000
v 86.54560 20.47147 1.50000
v 86.17426 20.61401 1.50000
v 85.39721 20.77918 1.50000
v 90.78304 25.29006 1.50000
v 85.00000 20.80000 1.50000
v 83.82574 20.61401 1.50000
v 83.45440 20.47147 1.50000
v 83.10000 20.29090 1.50000
v 82.76642 20.07426 1.50000
v 82.45731 19.82395 1.50000
v 82.17605 19.54270 1.50000
v 81.92574 19.23358 1.50000
v 81.70911 18.90000 1.50000
v 81.52853 18.54560 1.50000
v 81.38599 18.17426 1.50000
v 1.00000 3.00000 0.55000
v 1.00000 53.00000 0.55000
v 18.04199 22.81332 0.55000
v 26.00000 46.75000 0.55000
v 18.15713 22.38363 0.55000
v 17.88257 23.22863 0.55000
v 17.68061 23.62500 0.55000
v 17.43832 23.99809 0.55000
v 17.15837 24.34380 0.55000
v 18.20000 43.70000 0.55000
v 16.84380 24.65837 0.55000
v 16.49809 24.93832 0.55000
v 16.12500 25.18061 0.55000
v 15.72863 25.38257 0.55000
v 15.31332 25.54199 0.55000
v 14.88362 25.65713 0.55000
v 14.44425 25.72672 0.55000
v 14.00000 25.75000 0.55000
v 9.80000 43.70000 0.55000
v 13.55575 25.72672 0.55000
v 13.11637 25.65713 0.55000
v 12.68668 25.54199 0.55000
v 12.27137 25.38257 0.55000
v 11.87500 25.18061 0.55000
v 11.50191 24.93832 0.55000
v 11.15619 24.65837 0.55000
v 10.84163 24.34380 0.55000
v 10.56168 23.99809 0.55000
v 10.31939 23.62500 0.55000
v 10.11743 23.22863 0.55000
v 9.95801 22.81332 0.55000
v 9.84287 22.38363 0.55000
v 9.77328 21.94424 0.55000
v 85.39721 20.77918 0.55000
v 90.72082 24.89721 0.55000
v 85.79006 20.71696 0.55000
v 90.78304 25.29006 0.55000
v 85.00000 20.80000 0.55000
v 90.88599 25.67426 0.55000
v 84.60279 20.77918 0.55000
v 91.02853 26.04560 0.55000
v 84.20994 20.71696 0.55000
v 81.00000 42.10000 0.55000
v 83.82574 20.61401 0.55000
v 83.45440 20.47147 0.55000
v 83.10000 20.29090 0.55000
v 82.76642 20.07426 0.55000
v 82.45731 19.82395 0.55000
v 82.17605 19.54270 0.55000
v 81.92574 19.23358 0.55000
v 81.70911 18.90000 0.55000
v 81.52853 18.54560 0.55000
v 78.00000 46.75000 0.55000
v 81.38599 18.17426 0.55000
v 81.28304 17.79006 0.55000
v 87.00000 42.10000 0.55000
v 78.00000 7.25000 0.55000
v 81.22082 17.39721 0.55000
v 81.20000 17.00000 0.55000
v 26.00000 7.25000 0.55000
v 18.04199 20.18668 0.55000
v 18.15713 20.61637 0.55000
v 17.88257 19.77137 0.55000
v 16.84380 18.34163 0.55000
v 17.68061 19.37500 0.55000
v 16.49809 18.06168 0.55000
v 16.12500 17.81939 0.55000
v 17.43832 19.00191 0.55000
v 15.72863 17.61743 0.55000
v 15.31332 17.45801 0.55000
v 17.15837 18.65619 0.55000
v 14.88362 17.34287 0.55000
v 14.44425 17.27328 0.55000
v 14.00000 17.25000 0.55000
v 13.55575 17.27328 0.55000
v 13.11637 17.34287 0.55000
v 12.68668 17.45801 0.55000
v 12.27137 17.61743 0.55000
v 11.87500 17.81939 0.55000
v 11.50191 18.06168 0.55000
v 11.15619 18.34163 0.55000
v 10.84163 18.65619 0.55000
v 10.56168 19.00191 0.55000
v 10.31939 19.37500 0.55000
v 10.11743 19.77137 0.55000
v 9.95801 20.18668 0.55000
v 97.97147 26.04560 0.55000
v 98.00000 42.10000 0.55000
v 98.11401 25.67426 0.55000
v 97.79089 26.40000 0.55000
v 97.57426 26.73358 0.55000
v 97.32395 27.04270 0.55000
v 97.04269 27.32395 0.55000
v 96.73358 27.57426 0.55000
v 96.40000 27.79090 0.55000
v 96.04560 27.97147 0.55000
v 95.67426 28.11401 0.55000
v 95.29006 28.21696 0.55000
v 94.89721 28.27918 0.55000
v 94.50000 28.30000 0.55000
v 92.00000 42.10000 0.55000
v 94.10279 28.27918 0.55000
v 93.70994 28.21696 0.55000
v 93.32574 28.11401 0.55000
v 92.95440 27.97147 0.55000
v 92.60000 27.79090 0.55000
v 92.26642 27.57426 0.55000
v 91.95731 27.32395 0.55000
v 101.00000 1.00000 0.55000
v 103.00000 3.00000 0.55000
v 102.98904 2.79094 0.55000
v 98.30000 24.50000 0.55000
v 103.00000 53.00000 0.55000
v 102.95630 2.58418 0.55000
v 98.27918 24.89721 0.55000
v 102.90211 2.38197 0.55000
v 98.21696 25.29006 0.55000
v 102.82709 2.18653 0.55000
v 102.73205 2.00000 0.55000
v 98.00000 44.90000 0.55000
v 102.61803 1.82443 0.55000
v 101.00000 55.00000 0.55000
v 102.48629 1.66174 0.55000
v 102.98904 53.20906 0.55000
v 102.33826 1.51371 0.55000
v 102.95630 53.41582 0.55000
v 102.17557 1.38197 0.55000
v 102.90211 53.61803 0.55000
v 102.00000 1.26795 0.55000
v 102.82709 53.81347 0.55000
v 101.81348 1.17291 0.55000
v 102.73205 54.00000 0.55000
v 101.61803 1.09789 0.55000
v 102.61803 54.17557 0.55000
v 101.41582 1.04370 0.55000
v 102.48629 54.33826 0.55000
v 101.20906 1.01096 0.55000
v 102.33826 54.48629 0.55000
v 88.07426 14.76642 0.55000
v 102.17557 54.61803 0.55000
v 102.00000 54.73205 0.55000
v 98.27918 24.10279 0.55000
v 98.21696 23.70993 0.55000
v 98.11401 23.32574 0.55000
v 97.97147 22.95440 0.55000
v 97.79089 22.60000 0.55000
v 97.57426 22.26641 0.55000
v 97.32395 21.95730 0.55000
v 97.04269 21.67605 0.55000
v 96.73358 21.42574 0.55000
v 96.40000 21.20910 0.55000
v 96.04560 21.02853 0.55000
v 95.67426 20.88598 0.55000
v 95.29006 20.78304 0.55000
v 88.47147 15.45440 0.55000
v 94.89721 20.72082 0.55000
v 88.61401 15.82574 0.55000
v 94.50000 20.70000 0.55000
v 88.71696 16.20993 0.55000
v 94.10279 20.72082 0.55000
v 88.77918 16.60279 0.55000
v 93.70994 20.78304 0.55000
v 88.80000 17.00000 0.55000
v 93.32574 20.88598 0.55000
v 88.77918 17.39721 0.55000
v 92.95440 21.02853 0.55000
v 88.71696 17.79006 0.55000
v 92.60000 21.20910 0.55000
v 88.61401 18.17426 0.55000
v 92.26642 21.42574 0.55000
v 91.67605 21.95730 0.55000
v 88.07426 19.23358 0.55000
v 91.42574 22.26641 0.55000
v 88.29089 18.90000 0.55000
v 91.95731 21.67605 0.55000
v 88.47147 18.54560 0.55000
v 88.29089 15.10000 0.55000
v 87.82395 14.45730 0.55000
v 87.54269 14.17605 0.55000
v 87.23358 13.92573 0.55000
v 86.90000 13.70910 0.55000
v 86.54560 13.52853 0.55000
v 86.17426 13.38598 0.55000
v 85.79006 13.28304 0.55000
v 85.39721 13.22082 0.55000
v 85.00000 13.20000 0.55000
v 84.60279 13.22082 0.55000
v 84.20994 13.28304 0.55000
v 83.82574 13.38598 0.55000
v 83.45440 13.52853 0.55000
v 83.10000 13.70910 0.55000
v 81.22082 16.60279 0.55000
v 81.28304 16.20993 0.55000
v 81.38599 15.82574 0.55000
v 81.52853 15.45440 0.55000
v 81.70911 15.10000 0.55000
v 81.92574 14.76642 0.55000
v 82.17605 14.45730 0.55000
v 82.45731 14.17605 0.55000
v 82.76642 13.92573 0.55000
v 18.22672 21.94424 0.55000
v 18.25000 21.50000 0.55000
v 18.22672 21.05575 0.55000
v 3.00000 1.00000 0.55000
v 9.84287 20.61637 0.55000
v 9.77328 21.05575 0.55000
v 101.81348 54.82709 0.55000
v 101.61803 54.90211 0.55000
v 101.41582 54.95630 0.55000
v 101.20906 54.98904 0.55000
v 92.00000 44.90000 0.55000
v 91.67605 27.04270 0.55000
v 91.42574 26.73358 0.55000
v 91.20911 26.40000 0.55000
v 90.70000 24.50000 0.55000
v 90.72082 24.10279 0.55000
v 86.17426 20.61401 0.55000
v 86.54560 20.47147 0.55000
v 87.82395 19.54270 0.55000
v 91.20911 22.60000 0.55000
v 87.54269 19.82395 0.55000
v 91.02853 22.95440 0.55000
v 87.23358 20.07426 0.55000
v 90.88599 23.32574 0.55000
v 86.90000 20.29090 0.55000
v 90.78304 23.70993 0.55000
v 87.00000 44.90000 0.55000
v 81.00000 44.90000 0.55000
v 18.20000 47.30000 0.55000
v 3.00000 55.00000 0.55000
v 9.80000 47.30000 0.55000
v 9.75000 21.50000 0.55000
v 2.79094 1.01096 0.55000
v 2.58418 1.04370 0.55000
v 2.38197 1.09789 0.55000
v 2.79094 54.98904 0.55000
v 2.18653 1.17291 0.55000
v 2.58418 54.95630 0.55000
v 2.00000 1.26795 0.55000
v 2.38197 54.90211 0.55000
v 1.82443 1.38197 0.55000
v 2.18653 54.82709 0.55000
v 1.66174 1.51371 0.55000
v 2.00000 54.73205 0.55000
v 1.51371 1.66174 0.55000
v 1.82443 54.61803 0.55000
v 1.38197 1.82443 0.55000
v 1.66174 54.48629 0.55000
v 1.26795 2.00000 0.55000
v 1.51371 54.33826 0.55000
v 1.17291 2.18653 0.55000
v 1.38197 54.17557 0.55000
v 1.09789 2.38197 0.55000
v 1.26795 54.00000 0.55000
v 1.04370 2.58418 0.55000
v 1.17291 53.81347 0.55000
v 1.01096 2.79094 0.55000
v 1.09789 53.61803 0.55000
v 1.04370 53.41582 0.55000
v 1.01096 53.20906 0.55000
v 27.00000 45.75000 1.00000
v 27.00000 8.25000 1.00000
v 77.00000 8.25000 1.00000
v 77.00000 45.75000 1.00000
v 26.00000 7.25000 1.00000
v 26.00000 46.75000 1.00000
v 78.00000 7.25000 1.00000
v 78.00000 46.75000 1.00000
v 0.80000 16.60000 6.30000
v 0.80000 16.60000 4.70000
v 0.80000 21.50000 4.70000
v 0.80000 21.50000 6.30000
v 0.80000 32.50000 6.30000
v 0.80000 39.50000 4.70000
v 0.80000 39.50000 6.30000
v 0.80000 32.50000 4.70000
f 1 2 3
f 2 1 4
f 5 6 7
f 8 6 5
f 6 8 9
f 10 9 8
f 9 10 11
f 7 6 12
f 13 14 15
f 14 13 16
f 17 18 19
f 18 17 20
f 11 21 22
f 23 21 10
f 21 24 25
f 21 26 24
f 21 27 26
f 21 28 27
f 21 11 10
f 21 23 28
f 29 13 15
f 13 30 31
f 32 15 33
f 34 31 30
f 35 33 36
f 37 31 34
f 38 36 39
f 31 37 3
f 40 39 41
f 42 3 37
f 43 41 44
f 3 42 1
f 45 1 42
f 13 29 30
f 46 44 47
f 15 32 29
f 33 35 32
f 36 38 35
f 46 47 48
f 39 40 38
f 41 43 40
f 49 48 50
f 44 46 43
f 51 50 52
f 48 49 46
f 53 52 54
f 50 51 49
f 52 53 51
f 55 54 56
f 54 55 53
f 57 56 58
f 56 57 55
f 59 58 60
f 58 59 57
f 60 61 59
f 62 61 60
f 62 63 61
f 62 64 63
f 65 64 62
f 65 66 64
f 67 66 65
f 66 67 68
f 69 68 67
f 68 69 70
f 71 70 69
f 70 71 72
f 73 72 71
f 72 73 74
f 75 74 73
f 74 75 76
f 77 76 75
f 76 77 78
f 79 78 77
f 78 79 80
f 81 80 79
f 82 80 81
f 80 82 83
f 84 83 82
f 83 84 85
f 86 85 84
f 85 86 87
f 88 87 86
f 87 88 89
f 90 89 88
f 89 90 91
f 92 91 90
f 91 92 93
f 7 93 92
f 93 7 94
f 12 94 7
f 94 12 95
f 1 45 96
f 97 96 45
f 96 97 98
f 99 98 97
f 98 99 100
f 101 100 99
f 100 101 102
f 103 102 101
f 102 103 104
f 104 103 105
f 106 105 103
f 105 106 107
f 108 107 106
f 107 108 109
f 110 109 108
f 109 110 111
f 112 111 110
f 111 112 113
f 114 113 112
f 113 114 115
f 116 115 114
f 115 116 117
f 118 117 116
f 118 18 117
f 119 18 118
f 120 18 119
f 120 19 18
f 121 19 120
f 122 121 123
f 121 122 19
f 124 123 125
f 123 124 122
f 126 125 127
f 125 126 124
f 128 127 129
f 130 129 131
f 127 128 126
f 132 131 133
f 129 130 128
f 134 133 135
f 131 132 130
f 25 135 136
f 25 136 137
f 133 134 132
f 25 137 138
f 25 138 139
f 25 139 140
f 135 141 134
f 25 140 142
f 25 142 21
f 135 25 141
f 31 16 13
f 16 31 143
f 144 65 62
f 65 144 145
f 20 117 18
f 117 20 146
f 145 67 65
f 67 145 147
f 41 148 44
f 148 41 149
f 39 149 41
f 149 39 150
f 151 128 130
f 128 151 152
f 153 124 126
f 124 153 154
f 155 143 2
f 143 155 16
f 156 2 4
f 157 16 155
f 158 4 159
f 16 157 14
f 160 159 161
f 162 14 157
f 163 161 164
f 14 162 165
f 166 164 167
f 168 165 162
f 169 167 170
f 165 168 171
f 172 170 173
f 174 171 168
f 171 174 150
f 2 156 155
f 4 158 156
f 159 160 158
f 161 163 160
f 175 173 176
f 164 166 163
f 167 169 166
f 177 176 178
f 170 172 169
f 173 175 172
f 179 178 180
f 176 177 175
f 178 179 177
f 181 180 182
f 180 181 179
f 183 182 184
f 182 183 181
f 184 185 183
f 146 185 184
f 146 186 185
f 20 186 146
f 20 187 186
f 17 187 20
f 17 188 187
f 17 189 188
f 190 189 17
f 190 191 189
f 154 191 190
f 191 154 192
f 153 192 154
f 192 153 193
f 152 193 153
f 193 152 194
f 151 194 152
f 194 151 195
f 196 195 151
f 195 196 197
f 198 197 196
f 197 198 199
f 200 199 198
f 199 200 201
f 202 201 200
f 201 202 203
f 204 203 202
f 205 206 207
f 206 205 204
f 203 204 205
f 208 150 174
f 150 208 149
f 209 149 208
f 149 209 148
f 210 148 209
f 148 210 211
f 212 211 210
f 211 212 213
f 214 213 212
f 213 214 215
f 216 215 214
f 215 216 217
f 218 217 216
f 217 218 219
f 220 219 218
f 219 220 221
f 222 221 220
f 221 222 223
f 224 223 222
f 224 225 223
f 226 225 224
f 227 225 226
f 227 144 225
f 228 144 227
f 228 145 144
f 229 145 228
f 229 147 145
f 230 147 229
f 231 230 232
f 230 231 147
f 233 232 234
f 232 233 231
f 235 234 236
f 237 236 238
f 234 235 233
f 239 238 240
f 241 240 242
f 236 237 235
f 243 242 244
f 245 244 246
f 238 239 237
f 247 246 248
f 249 248 250
f 251 250 252
f 253 252 254
f 240 241 239
f 255 254 256
f 257 8 256
f 258 207 206
f 5 256 8
f 207 258 259
f 255 256 5
f 260 259 258
f 242 243 241
f 259 260 261
f 244 245 243
f 262 261 260
f 246 247 245
f 261 262 257
f 248 249 247
f 257 262 8
f 250 251 249
f 252 253 251
f 254 255 253
f 253 88 251
f 88 253 90
f 251 86 249
f 86 251 88
f 180 109 111
f 109 180 178
f 96 4 1
f 4 96 159
f 233 73 71
f 73 233 235
f 215 52 50
f 52 215 217
f 190 19 122
f 19 190 17
f 146 115 117
f 115 146 184
f 258 28 260
f 28 258 27
f 206 27 258
f 27 206 26
f 239 79 77
f 79 239 241
f 255 90 253
f 90 255 92
f 249 84 247
f 84 249 86
f 247 82 245
f 82 247 84
f 102 164 100
f 164 102 167
f 104 167 102
f 167 104 170
f 176 105 107
f 105 176 173
f 3 143 31
f 143 3 2
f 100 161 98
f 161 100 164
f 98 159 96
f 159 98 161
f 217 54 52
f 54 217 219
f 221 58 56
f 58 221 223
f 147 69 67
f 69 147 231
f 231 71 69
f 71 231 233
f 47 213 48
f 213 47 211
f 44 211 47
f 211 44 148
f 36 150 39
f 150 36 171
f 198 132 134
f 132 198 196
f 196 130 132
f 130 196 151
f 152 126 128
f 126 152 153
f 154 122 124
f 122 154 190
f 200 25 202
f 25 200 141
f 204 26 206
f 26 204 24
f 202 24 204
f 24 202 25
f 260 23 262
f 23 260 28
f 262 10 8
f 10 262 23
f 5 92 255
f 92 5 7
f 245 81 243
f 81 245 82
f 241 81 79
f 81 241 243
f 237 77 75
f 77 237 239
f 235 75 73
f 75 235 237
f 105 170 104
f 170 105 173
f 178 107 109
f 107 178 176
f 213 50 48
f 50 213 215
f 219 56 54
f 56 219 221
f 225 62 60
f 62 225 144
f 223 60 58
f 60 223 225
f 33 171 36
f 171 33 165
f 15 165 33
f 165 15 14
f 182 111 113
f 111 182 180
f 198 141 200
f 141 198 134
f 184 113 115
f 113 184 182
f 21 263 22
f 263 21 264
f 95 265 94
f 265 95 266
f 267 29 268
f 29 267 30
f 120 269 270
f 269 120 119
f 263 271 272
f 273 271 264
f 271 274 275
f 271 276 274
f 271 277 276
f 271 278 277
f 271 279 278
f 271 263 264
f 271 273 279
f 280 267 268
f 267 281 282
f 283 268 284
f 285 282 281
f 283 284 286
f 287 282 285
f 288 286 289
f 290 282 287
f 291 289 292
f 293 282 290
f 291 292 294
f 282 293 295
f 296 294 297
f 298 295 293
f 295 298 299
f 267 300 281
f 267 301 300
f 296 297 302
f 267 280 301
f 268 283 280
f 303 302 304
f 286 288 283
f 289 291 288
f 305 304 306
f 294 296 291
f 305 306 307
f 302 303 296
f 308 307 309
f 304 305 303
f 310 309 311
f 307 308 305
f 309 310 308
f 312 310 311
f 312 313 310
f 314 313 312
f 314 315 313
f 314 316 315
f 314 317 316
f 314 318 317
f 319 318 314
f 319 320 318
f 319 321 320
f 319 322 321
f 323 322 319
f 323 324 322
f 325 324 323
f 326 324 325
f 324 326 327
f 328 327 326
f 327 328 329
f 330 329 328
f 331 329 330
f 329 331 332
f 333 332 331
f 332 333 334
f 335 334 333
f 336 334 335
f 334 336 337
f 338 337 336
f 339 337 338
f 337 339 340
f 341 340 339
f 340 341 342
f 343 342 341
f 344 342 343
f 342 344 345
f 265 345 344
f 345 265 346
f 346 265 347
f 347 265 348
f 266 348 265
f 348 266 349
f 299 298 350
f 351 350 298
f 350 351 352
f 353 352 351
f 352 353 354
f 354 353 355
f 356 355 353
f 355 356 357
f 357 356 358
f 359 358 356
f 358 359 360
f 361 360 359
f 360 361 362
f 362 361 363
f 364 363 361
f 363 364 365
f 366 365 364
f 365 366 367
f 366 368 367
f 369 368 366
f 369 269 368
f 370 269 369
f 371 269 370
f 372 269 371
f 373 269 372
f 373 270 269
f 374 270 373
f 375 270 374
f 376 270 375
f 376 377 270
f 378 377 376
f 379 378 380
f 378 381 377
f 382 380 383
f 378 379 381
f 384 383 385
f 380 382 379
f 386 385 387
f 383 388 382
f 275 387 389
f 275 389 390
f 383 384 388
f 275 390 391
f 275 391 392
f 385 386 384
f 275 392 393
f 275 393 394
f 275 394 271
f 387 275 386
f 282 30 267
f 30 282 34
f 63 319 314
f 319 63 64
f 299 37 295
f 37 299 42
f 119 368 269
f 368 119 118
f 66 325 323
f 325 66 68
f 297 49 302
f 49 297 46
f 289 40 292
f 40 289 38
f 129 382 388
f 382 129 127
f 127 379 382
f 379 127 125
f 112 362 363
f 362 112 110
f 93 343 91
f 343 93 344
f 91 341 89
f 341 91 343
f 80 333 78
f 333 80 335
f 358 103 357
f 103 358 106
f 355 99 354
f 99 355 101
f 295 34 282
f 34 295 37
f 70 328 326
f 328 70 72
f 59 312 311
f 312 59 61
f 64 323 319
f 323 64 66
f 294 46 297
f 46 294 43
f 123 377 381
f 377 123 121
f 139 279 140
f 279 139 278
f 138 278 139
f 278 138 277
f 76 333 331
f 333 76 78
f 94 344 93
f 344 94 265
f 87 338 85
f 338 87 339
f 85 336 83
f 336 85 338
f 83 335 80
f 335 83 336
f 110 360 362
f 360 110 108
f 108 358 360
f 358 108 106
f 116 365 367
f 365 116 114
f 357 101 355
f 101 357 103
f 352 45 350
f 45 352 97
f 53 307 306
f 307 53 55
f 57 311 309
f 311 57 59
f 68 326 325
f 326 68 70
f 292 43 294
f 43 292 40
f 268 32 284
f 32 268 29
f 131 388 384
f 388 131 129
f 121 270 377
f 270 121 120
f 135 274 136
f 274 135 275
f 140 273 142
f 273 140 279
f 142 264 21
f 264 142 273
f 89 339 87
f 339 89 341
f 74 331 330
f 331 74 76
f 72 330 328
f 330 72 74
f 114 363 365
f 363 114 112
f 118 367 368
f 367 118 116
f 350 42 299
f 42 350 45
f 61 314 312
f 314 61 63
f 55 309 307
f 309 55 57
f 51 306 304
f 306 51 53
f 49 304 302
f 304 49 51
f 286 38 289
f 38 286 35
f 133 384 386
f 384 133 131
f 125 381 379
f 381 125 123
f 133 275 135
f 275 133 386
f 136 276 137
f 276 136 274
f 137 277 138
f 277 137 276
f 354 97 352
f 97 354 99
f 284 35 286
f 35 284 32
f 395 396 397
f 396 395 398
f 399 400 401
f 400 399 402
f 403 404 405
f 404 403 406
f 407 408 409
f 408 407 410
f 411 412 413
f 412 411 414
f 415 416 417
f 416 415 418
f 419 420 421
f 420 419 422
f 417 423 424
f 423 417 416
f 425 426 427
f 426 425 428
f 429 427 430
f 427 429 425
f 431 430 432
f 430 431 429
f 433 434 435
f 434 433 436
f 437 438 439
f 438 437 440
f 402 441 400
f 441 402 442
f 443 444 445
f 444 443 446
f 447 448 449
f 448 447 450
f 451 452 453
f 452 451 454
f 455 456 457
f 456 455 458
f 421 418 415
f 418 421 420
f 459 460 461
f 460 459 462
f 424 462 459
f 462 424 423
f 461 396 398
f 396 461 460
f 463 397 464
f 397 463 395
f 465 432 466
f 432 465 431
f 428 464 426
f 464 428 463
f 467 436 433
f 436 467 468
f 469 406 403
f 406 469 470
f 435 470 469
f 470 435 434
f 405 471 472
f 471 405 404
f 472 440 437
f 440 472 471
f 442 466 441
f 466 442 465
f 473 474 475
f 474 473 476
f 477 475 478
f 475 477 473
f 476 401 474
f 401 476 399
f 438 478 439
f 478 438 477
f 409 422 419
f 422 409 408
f 479 480 481
f 480 479 482
f 449 483 484
f 483 449 448
f 445 485 486
f 485 445 444
f 487 488 489
f 488 487 490
f 491 446 443
f 446 491 492
f 491 493 492
f 493 491 494
f 495 496 497
f 496 495 498
f 499 413 500
f 413 499 411
f 414 457 412
f 457 414 455
f 501 502 503
f 502 501 504
f 505 468 467
f 468 505 506
f 507 508 509
f 508 507 510
f 511 512 513
f 512 511 514
f 456 510 507
f 510 456 458
f 484 410 407
f 410 484 483
f 490 481 488
f 481 490 479
f 498 489 496
f 489 498 487
f 494 497 493
f 497 494 495
f 482 453 480
f 453 482 451
f 454 500 452
f 500 454 499
f 513 504 501
f 504 513 512
f 503 506 505
f 506 503 502
f 509 514 511
f 514 509 508
f 486 450 447
f 450 486 485
f 515 516 517
f 516 515 518
f 519 520 521
f 520 519 522
f 523 524 525
f 524 523 526
f 527 528 529
f 528 527 530
f 531 532 533
f 532 531 534
f 535 536 537
f 536 535 538
f 537 539 540
f 539 537 536
f 541 542 543
f 542 541 544
f 545 543 546
f 543 545 541
f 547 548 549
f 548 547 550
f 551 552 553
f 552 551 554
f 555 556 557
f 556 555 558
f 559 560 561
f 560 559 562
f 563 564 565
f 564 563 566
f 567 568 569
f 568 567 570
f 571 572 573
f 572 571 574
f 575 576 577
f 576 575 578
f 577 579 580
f 579 577 576
f 580 538 535
f 538 580 579
f 540 581 582
f 581 540 539
f 582 516 518
f 516 582 581
f 583 517 584
f 517 583 515
f 585 586 587
f 586 585 588
f 544 584 542
f 584 544 583
f 589 550 547
f 550 589 590
f 591 526 523
f 526 591 592
f 549 592 591
f 592 549 548
f 525 554 551
f 554 525 524
f 522 557 520
f 557 522 555
f 558 587 556
f 587 558 585
f 593 594 595
f 594 593 596
f 597 595 598
f 595 597 593
f 596 521 594
f 521 596 519
f 553 597 598
f 597 553 552
f 599 578 575
f 578 599 600
f 601 602 603
f 602 601 604
f 529 605 606
f 605 529 528
f 607 603 608
f 603 607 601
f 609 608 610
f 608 609 607
f 611 612 613
f 612 611 614
f 615 616 617
f 616 615 618
f 619 530 527
f 530 619 620
f 604 565 602
f 565 604 563
f 621 533 622
f 533 621 531
f 534 623 532
f 623 534 624
f 625 574 571
f 574 625 626
f 573 590 589
f 590 573 572
f 627 628 629
f 628 627 630
f 569 631 632
f 631 569 568
f 632 630 627
f 630 632 631
f 588 546 586
f 546 588 545
f 606 633 634
f 633 606 605
f 618 610 616
f 610 618 609
f 611 562 559
f 562 611 613
f 614 617 612
f 617 614 615
f 561 620 619
f 620 561 560
f 566 622 564
f 622 566 621
f 624 567 623
f 567 624 570
f 629 626 625
f 626 629 628
f 634 600 599
f 600 634 633
f 635 636 637
f 636 635 638
f 639 640 641
f 640 639 642
f 643 644 645
f 644 643 646
f 647 648 649
f 648 647 650
f 651 652 653
f 652 651 654
f 655 656 657
f 656 655 658
f 659 660 661
f 660 659 662
f 663 664 665
f 664 663 666
f 667 668 669
f 668 667 670
f 671 672 673
f 672 671 674
f 637 675 676
f 675 637 636
f 677 678 679
f 678 677 680
f 681 641 682
f 641 681 639
f 658 682 656
f 682 658 681
f 642 661 640
f 661 642 659
f 662 679 660
f 679 662 677
f 683 650 647
f 650 683 684
f 665 684 683
f 684 665 664
f 649 670 667
f 670 649 648
f 646 673 644
f 673 646 671
f 674 657 672
f 657 674 655
f 685 686 687
f 686 685 688
f 689 685 687
f 685 689 690
f 688 645 686
f 645 688 643
f 669 690 689
f 690 669 668
f 653 691 692
f 691 653 652
f 693 694 695
f 694 693 696
f 697 698 699
f 698 697 700
f 701 702 703
f 702 701 704
f 705 706 707
f 706 705 708
f 709 699 710
f 699 709 697
f 711 638 635
f 638 711 712
f 713 712 711
f 712 713 714
f 715 714 713
f 714 715 716
f 680 675 678
f 675 680 676
f 717 666 663
f 666 717 718
f 719 720 721
f 720 719 722
f 719 723 724
f 723 719 721
f 725 726 727
f 726 725 728
f 724 728 725
f 728 724 723
f 707 704 701
f 704 707 706
f 729 730 731
f 730 729 732
f 732 710 730
f 710 732 709
f 692 716 715
f 716 692 691
f 695 654 651
f 654 695 694
f 722 733 720
f 733 722 734
f 727 696 693
f 696 727 726
f 735 736 737
f 736 735 738
f 700 737 698
f 737 700 735
f 739 740 741
f 740 739 742
f 743 739 744
f 739 743 742
f 703 745 746
f 745 703 702
f 746 718 717
f 718 746 745
f 734 747 733
f 747 734 748
f 748 731 747
f 731 748 729
f 749 750 751
f 750 749 752
f 741 708 705
f 708 741 740
f 752 753 750
f 753 752 754
f 754 744 753
f 744 754 743
f 738 751 736
f 751 738 749
f 755 756 757
f 756 755 758
f 759 760 761
f 760 759 762
f 763 764 765
f 764 763 766
f 767 768 769
f 768 767 770
f 771 772 773
f 772 771 774
f 775 776 777
f 776 775 778
f 777 779 780
f 779 777 776
f 781 782 783
f 782 781 784
f 785 761 786
f 761 785 759
f 787 788 789
f 788 787 790
f 791 792 793
f 792 791 794
f 793 795 796
f 795 793 792
f 797 798 799
f 798 797 800
f 801 802 803
f 802 801 804
f 805 806 807
f 806 805 808
f 809 810 811
f 810 809 812
f 813 794 791
f 794 813 814
f 780 815 816
f 815 780 779
f 816 817 818
f 817 816 815
f 818 784 781
f 784 818 817
f 819 820 821
f 820 819 822
f 790 786 788
f 786 790 785
f 823 824 825
f 824 823 826
f 827 826 823
f 826 827 828
f 829 821 830
f 821 829 819
f 766 831 764
f 831 766 832
f 832 830 831
f 830 832 829
f 833 765 834
f 765 833 763
f 800 834 798
f 834 800 833
f 824 799 825
f 799 824 797
f 835 836 837
f 836 835 838
f 839 840 841
f 840 839 842
f 843 838 835
f 838 843 844
f 803 845 846
f 845 803 802
f 846 844 843
f 844 846 845
f 808 841 806
f 841 808 839
f 847 848 849
f 848 847 850
f 809 851 812
f 851 809 852
f 811 853 854
f 853 811 810
f 855 804 801
f 804 855 856
f 857 858 859
f 858 857 860
f 842 859 840
f 859 842 857
f 861 862 863
f 862 861 864
f 865 866 867
f 866 865 868
f 869 814 813
f 814 869 870
f 871 872 873
f 872 871 874
f 866 874 871
f 874 866 868
f 837 778 775
f 778 837 836
f 762 782 760
f 782 762 783
f 822 789 820
f 789 822 787
f 796 770 767
f 770 796 795
f 769 828 827
f 828 769 768
f 850 807 848
f 807 850 805
f 852 849 851
f 849 852 847
f 854 856 855
f 856 854 853
f 860 757 858
f 757 860 755
f 864 867 862
f 867 864 865
f 758 863 756
f 863 758 861
f 773 870 869
f 870 773 772
f 873 774 771
f 774 873 872
f 272 271 875
f 876 348 877
f 348 878 877
f 878 879 880
f 349 878 348
f 878 349 879
f 879 349 881
f 348 876 882
f 880 882 876
f 883 880 879
f 884 880 883
f 884 883 885
f 880 884 882
f 886 884 875
f 884 886 882
f 886 875 271
f 887 300 888
f 300 887 281
f 348 889 347
f 889 348 882
f 890 281 887
f 281 890 285
f 891 373 372
f 373 891 892
f 340 893 337
f 893 340 894
f 895 317 318
f 317 895 896
f 897 376 375
f 376 897 898
f 899 353 900
f 353 899 356
f 901 329 332
f 329 901 902
f 903 322 324
f 322 903 904
f 904 321 322
f 321 904 905
f 898 378 376
f 378 898 906
f 906 380 378
f 380 906 907
f 908 385 383
f 385 908 909
f 910 370 369
f 370 910 911
f 912 369 366
f 369 912 910
f 913 372 371
f 372 913 891
f 914 283 915
f 283 914 280
f 346 916 345
f 916 346 917
f 342 894 340
f 894 342 918
f 347 917 346
f 917 347 889
f 334 901 332
f 901 334 919
f 920 324 327
f 324 920 903
f 905 320 321
f 320 905 921
f 921 318 320
f 318 921 895
f 915 288 922
f 288 915 283
f 923 375 374
f 375 923 897
f 907 383 380
f 383 907 908
f 391 924 392
f 924 391 925
f 394 886 271
f 886 394 926
f 927 293 928
f 293 927 298
f 928 290 929
f 290 928 293
f 930 366 364
f 366 930 912
f 931 361 359
f 361 931 932
f 345 918 342
f 918 345 916
f 337 919 334
f 919 337 893
f 902 327 329
f 327 902 920
f 896 316 317
f 316 896 933
f 934 308 310
f 308 934 935
f 936 303 937
f 303 936 296
f 938 310 313
f 310 938 934
f 892 374 373
f 374 892 923
f 387 939 389
f 939 387 940
f 392 941 393
f 941 392 924
f 547 422 408
f 942 420 422
f 942 418 420
f 942 416 418
f 942 423 416
f 942 462 423
f 942 460 462
f 942 396 460
f 942 397 396
f 478 943 944
f 942 464 397
f 942 426 464
f 942 427 426
f 942 430 427
f 942 432 430
f 439 944 945
f 942 466 432
f 942 441 466
f 942 400 441
f 886 945 946
f 942 401 400
f 942 474 401
f 943 475 474
f 943 478 475
f 886 946 947
f 944 439 478
f 945 437 439
f 945 886 437
f 886 947 948
f 437 886 472
f 472 886 405
f 405 886 403
f 403 886 469
f 469 886 435
f 435 886 433
f 886 948 949
f 665 578 600
f 645 576 578
f 645 579 576
f 645 538 579
f 645 536 538
f 645 539 536
f 645 581 539
f 645 516 581
f 645 517 516
f 645 584 517
f 587 950 951
f 645 542 584
f 644 542 645
f 542 644 543
f 950 586 546
f 950 587 586
f 951 556 587
f 557 951 952
f 951 557 556
f 952 520 557
f 952 521 520
f 953 521 952
f 521 953 594
f 422 594 953
f 422 595 594
f 422 598 595
f 422 553 598
f 422 551 553
f 422 525 551
f 422 523 525
f 422 591 523
f 422 549 591
f 422 547 549
f 422 953 954
f 793 691 652
f 834 716 691
f 831 641 764
f 834 714 716
f 834 712 714
f 834 638 712
f 834 636 638
f 834 675 636
f 834 678 675
f 834 679 678
f 834 660 679
f 834 661 660
f 640 764 641
f 765 661 834
f 661 765 640
f 764 640 765
f 641 955 682
f 682 955 656
f 956 656 955
f 656 956 657
f 957 657 956
f 657 957 672
f 546 672 957
f 546 957 950
f 672 546 673
f 543 673 546
f 673 543 644
f 578 686 645
f 578 687 686
f 578 689 687
f 578 669 689
f 578 667 669
f 578 649 667
f 578 647 649
f 958 836 838
f 959 958 960
f 958 778 836
f 958 776 778
f 958 779 776
f 961 958 959
f 958 815 779
f 962 958 961
f 958 817 815
f 963 958 962
f 958 784 817
f 958 782 784
f 964 958 963
f 958 760 782
f 958 964 760
f 760 964 761
f 965 761 964
f 761 965 786
f 786 965 788
f 966 788 965
f 788 966 789
f 789 966 820
f 967 820 966
f 820 967 821
f 968 821 967
f 821 968 830
f 830 968 831
f 955 831 968
f 641 831 955
f 691 798 834
f 691 799 798
f 691 825 799
f 691 823 825
f 691 827 823
f 691 769 827
f 691 767 769
f 691 796 767
f 969 970 971
f 970 972 973
f 970 974 972
f 970 975 974
f 970 976 975
f 970 977 976
f 970 978 977
f 970 969 978
f 971 979 969
f 971 980 979
f 971 981 980
f 971 982 981
f 971 983 982
f 971 984 983
f 971 985 984
f 986 985 971
f 985 986 987
f 987 986 988
f 988 986 989
f 989 986 990
f 990 986 991
f 991 986 992
f 992 986 993
f 993 986 994
f 994 986 995
f 995 986 996
f 996 986 997
f 882 997 986
f 997 882 998
f 998 882 999
f 896 887 888
f 887 1000 890
f 896 888 1001
f 1002 890 1000
f 896 1001 914
f 1003 890 1002
f 896 914 915
f 1004 890 1003
f 896 915 922
f 1005 890 1004
f 896 922 1006
f 1007 890 1005
f 896 1006 936
f 1008 890 1007
f 896 936 937
f 1009 890 1008
f 896 937 1010
f 1011 890 1009
f 896 1010 935
f 1012 890 1011
f 896 935 934
f 1013 890 1012
f 896 934 938
f 1014 890 1013
f 896 938 1015
f 1016 890 1014
f 896 1015 933
f 1017 890 1016
f 887 896 1018
f 1019 890 1017
f 1020 890 1019
f 887 1021 1000
f 1022 887 1023
f 887 1024 1021
f 887 1018 1023
f 896 1025 1018
f 1026 1027 1025
f 1027 1026 1028
f 1028 1026 1029
f 1029 1026 1030
f 1031 1030 1026
f 1030 1031 1032
f 1032 1031 1033
f 1034 1033 1031
f 1035 1036 1037
f 1038 1033 1034
f 1036 1039 1040
f 1036 1041 1039
f 1036 1042 1041
f 1036 1043 1042
f 1036 1044 1043
f 1036 1045 1044
f 1036 1046 1045
f 1036 1047 1046
f 1036 1048 1047
f 1026 1025 1049
f 896 1049 1025
f 896 1050 1049
f 1050 1051 1031
f 896 1051 1050
f 896 970 1051
f 973 958 970
f 958 973 1052
f 971 970 1053
f 895 970 896
f 970 895 1053
f 882 986 1054
f 999 882 1055
f 882 1054 895
f 1053 895 1054
f 1056 890 1020
f 891 890 1056
f 890 891 1057
f 1057 891 929
f 928 891 927
f 927 891 1058
f 899 891 931
f 932 891 930
f 930 891 912
f 912 891 910
f 911 891 913
f 910 891 911
f 931 891 932
f 1019 1017 1059
f 1060 1059 1061
f 1062 1061 1063
f 1064 1063 1065
f 1040 1065 1066
f 1040 1066 1067
f 1040 1067 1068
f 1040 1068 1069
f 1040 1069 1070
f 1040 1070 1071
f 1040 1071 1072
f 1040 1072 1073
f 1040 1073 1074
f 1040 1075 1036
f 1040 1076 1075
f 1040 1077 1076
f 1040 1074 1077
f 1065 1040 1064
f 1063 1064 1062
f 1061 1062 1060
f 1059 1060 1019
f 1058 891 900
f 900 891 899
f 929 891 928
f 1078 891 1056
f 1079 891 1078
f 1080 891 1079
f 1081 891 1080
f 1082 891 1081
f 1083 891 1082
f 1084 891 1083
f 1085 891 1084
f 1086 1085 1087
f 1086 1087 1088
f 1086 1088 1089
f 1086 1089 1090
f 1086 1090 1091
f 1086 1091 1092
f 1086 1092 1093
f 1094 1086 1095
f 1095 1086 1096
f 1096 1086 1097
f 1086 1098 1097
f 1086 1099 1098
f 1086 1100 1099
f 1086 1101 1100
f 1086 1102 1101
f 1086 1103 1102
f 1086 1104 1103
f 1086 1093 1104
f 1085 1086 891
f 958 891 1086
f 1105 958 1052
f 1106 958 1105
f 960 958 1106
f 844 958 838
f 845 958 844
f 802 958 845
f 804 958 802
f 856 958 804
f 853 958 856
f 810 958 853
f 812 958 810
f 851 958 812
f 849 958 851
f 848 958 849
f 807 958 848
f 892 958 807
f 892 807 806
f 892 806 841
f 892 841 840
f 892 840 859
f 691 793 796
f 793 652 791
f 791 652 813
f 654 813 652
f 813 654 869
f 694 869 654
f 869 694 773
f 696 773 694
f 773 696 771
f 726 771 696
f 771 726 873
f 728 873 726
f 873 728 871
f 723 871 728
f 871 723 866
f 721 866 723
f 866 721 867
f 720 867 721
f 867 720 862
f 733 862 720
f 862 733 863
f 747 863 733
f 863 747 756
f 731 756 747
f 756 731 757
f 730 757 731
f 757 730 858
f 710 858 730
f 858 710 859
f 699 859 710
f 859 699 892
f 892 699 698
f 892 698 737
f 578 665 683
f 578 683 647
f 665 600 663
f 663 600 717
f 633 717 600
f 717 633 746
f 605 746 633
f 746 605 703
f 528 703 605
f 703 528 701
f 530 701 528
f 701 530 707
f 620 707 530
f 707 620 705
f 560 705 620
f 705 560 741
f 562 741 560
f 741 562 739
f 613 739 562
f 739 613 744
f 612 744 613
f 744 612 753
f 617 753 612
f 753 617 750
f 616 750 617
f 750 616 751
f 610 751 616
f 751 610 736
f 608 736 610
f 736 608 737
f 603 737 608
f 737 603 892
f 892 603 602
f 892 602 565
f 422 954 942
f 547 408 589
f 474 942 943
f 589 408 573
f 410 573 408
f 573 410 571
f 483 571 410
f 571 483 625
f 448 625 483
f 625 448 629
f 450 629 448
f 629 450 627
f 485 627 450
f 627 485 632
f 444 632 485
f 632 444 569
f 446 569 444
f 569 446 567
f 492 567 446
f 567 492 623
f 493 623 492
f 623 493 532
f 497 532 493
f 532 497 533
f 496 533 497
f 533 496 622
f 489 622 496
f 622 489 564
f 488 564 489
f 564 488 565
f 481 565 488
f 565 481 892
f 892 481 480
f 886 949 1107
f 886 1107 1108
f 886 1055 882
f 1055 886 1108
f 958 892 891
f 453 892 480
f 452 892 453
f 500 892 452
f 413 892 500
f 412 892 413
f 457 892 412
f 456 892 457
f 507 892 456
f 509 892 507
f 511 892 509
f 513 892 511
f 501 892 513
f 503 892 501
f 886 503 505
f 433 886 467
f 882 895 921
f 467 886 505
f 882 921 905
f 503 886 892
f 882 905 904
f 892 886 923
f 882 904 903
f 923 886 897
f 882 903 920
f 897 886 898
f 882 920 902
f 898 886 906
f 882 902 901
f 906 886 907
f 882 901 919
f 907 886 908
f 882 919 893
f 908 886 909
f 882 893 894
f 909 886 940
f 882 894 918
f 940 886 939
f 882 918 916
f 939 886 1109
f 882 916 917
f 1109 886 925
f 882 917 889
f 925 886 924
f 924 886 941
f 941 886 926
f 887 1022 1024
f 1023 1110 1022
f 1023 1111 1110
f 1023 1112 1111
f 1023 1113 1112
f 1023 1114 1113
f 1023 1115 1114
f 1023 1116 1115
f 1023 1117 1116
f 1023 1118 1117
f 1023 1119 1118
f 1023 1120 1119
f 1023 1121 1120
f 1027 1121 1023
f 1121 1027 1122
f 1122 1027 1123
f 1123 1027 1124
f 1124 1027 1125
f 1125 1027 1126
f 1126 1027 1127
f 1127 1027 1028
f 1033 1038 1128
f 1036 1129 1048
f 1036 1130 1129
f 1036 1131 1130
f 1036 1035 1131
f 1037 1132 1035
f 1133 1132 1037
f 1132 1133 1134
f 1134 1128 1038
f 1128 1134 1133
f 1034 1031 1135
f 1135 1031 1136
f 1136 1031 1137
f 1137 1031 1138
f 1138 1031 1139
f 1139 1031 1140
f 1140 1031 1141
f 1051 1141 1031
f 1141 1051 1142
f 1142 1051 1143
f 1086 1094 1051
f 1144 1051 1094
f 1143 1051 1144
f 393 926 394
f 926 393 941
f 1058 298 927
f 298 1058 351
f 900 351 1058
f 351 900 353
f 929 287 1057
f 287 929 290
f 911 371 370
f 371 911 913
f 932 364 361
f 364 932 930
f 931 356 899
f 356 931 359
f 933 315 316
f 315 933 1015
f 1015 313 315
f 313 1015 938
f 385 940 387
f 940 385 909
f 390 925 391
f 925 390 1109
f 1057 285 890
f 285 1057 287
f 1001 280 914
f 280 1001 301
f 935 305 308
f 305 935 1010
f 1010 303 305
f 303 1010 937
f 389 1109 390
f 1109 389 939
f 888 301 1001
f 301 888 300
f 1006 296 936
f 296 1006 291
f 922 291 1006
f 291 922 288
f 1145 256 1146
f 256 1145 257
f 1147 1148 1149
f 1150 1148 1147
f 1151 1148 1150
f 1152 1148 1151
f 1153 1148 1152
f 1148 1153 1154
f 1155 1154 1153
f 1156 1154 1155
f 1157 1154 1156
f 1158 1154 1157
f 1159 1154 1158
f 1160 1154 1159
f 1161 1154 1160
f 1162 1154 1161
f 1163 1162 1164
f 1163 1164 1165
f 1163 1165 1166
f 1163 1166 1167
f 1163 1167 1168
f 1163 1168 1169
f 1163 1169 1170
f 1163 1170 1171
f 1163 1171 1172
f 1163 1172 1173
f 1163 1173 1174
f 1162 1163 1154
f 1146 1174 1175
f 1146 1175 1176
f 1174 1146 1163
f 1146 1176 1177
f 1178 1179 1180
f 1179 1178 1181
f 1182 1181 1178
f 1181 1182 1183
f 1184 1183 1182
f 1183 1184 1185
f 1186 1185 1184
f 1185 1186 1187
f 1187 1186 1188
f 1187 1188 1189
f 1187 1189 1190
f 1187 1190 1191
f 1187 1191 1192
f 1187 1192 1193
f 1187 1193 1194
f 1187 1194 1195
f 1187 1195 1196
f 1197 1196 1198
f 1197 1198 1199
f 1185 1187 1200
f 1201 1199 1202
f 1201 1202 1203
f 775 1204 837
f 777 1204 775
f 1204 1205 1206
f 780 1204 777
f 816 1204 780
f 818 1204 816
f 781 1204 818
f 783 1204 781
f 1204 1207 1205
f 762 1204 783
f 1208 1204 762
f 1208 762 759
f 1204 1209 1207
f 1210 759 785
f 1210 785 790
f 1211 790 787
f 1211 787 822
f 1204 1212 1209
f 1213 822 819
f 1214 819 829
f 1214 829 832
f 639 832 766
f 1204 1215 1212
f 642 766 763
f 659 763 833
f 662 833 800
f 677 800 797
f 680 797 824
f 676 824 826
f 1204 1208 1215
f 637 826 828
f 635 828 768
f 711 768 770
f 713 770 795
f 715 795 792
f 692 792 794
f 759 1210 1208
f 792 692 715
f 795 715 713
f 770 713 711
f 768 711 635
f 828 635 637
f 826 637 676
f 824 676 680
f 797 680 677
f 800 677 662
f 833 662 659
f 822 1213 1211
f 763 659 642
f 819 1214 1213
f 766 642 639
f 832 639 1216
f 1216 639 681
f 1216 681 658
f 1217 658 655
f 1218 655 674
f 545 674 671
f 832 1216 1214
f 541 671 646
f 544 646 643
f 583 643 688
f 515 688 685
f 518 685 690
f 582 690 668
f 540 668 670
f 537 670 648
f 535 648 650
f 580 650 684
f 577 684 664
f 575 664 666
f 643 583 544
f 650 580 535
f 648 535 537
f 670 537 540
f 668 540 582
f 690 582 518
f 685 518 515
f 688 515 583
f 658 1217 1216
f 646 544 541
f 671 541 545
f 655 1218 1217
f 674 545 1218
f 588 1218 545
f 1218 588 1219
f 585 1219 588
f 1219 585 1220
f 558 1220 585
f 555 1220 558
f 429 1220 555
f 429 555 522
f 425 522 519
f 428 519 596
f 463 596 593
f 395 593 597
f 398 597 552
f 461 552 554
f 522 425 429
f 459 554 524
f 424 524 526
f 417 526 592
f 415 592 548
f 421 548 550
f 419 550 590
f 596 463 428
f 592 415 417
f 526 417 424
f 524 424 459
f 554 459 461
f 552 461 398
f 597 398 395
f 593 395 463
f 519 428 425
f 1220 429 1221
f 431 1221 429
f 465 1221 431
f 1221 465 1222
f 442 1222 465
f 1222 442 1223
f 402 1223 442
f 399 1223 402
f 1223 399 1224
f 476 1224 399
f 1224 476 1225
f 473 1225 476
f 477 1225 473
f 1225 477 1226
f 438 1226 477
f 1226 438 1227
f 440 1227 438
f 471 1227 440
f 1227 471 1228
f 1145 1228 471
f 1228 1145 1229
f 1145 471 404
f 1145 404 406
f 1145 406 470
f 1145 470 434
f 1145 434 436
f 1145 436 468
f 1229 1145 1230
f 1231 1232 1233
f 1234 1232 1231
f 1235 1232 1234
f 1236 1232 1235
f 1237 1232 1236
f 1238 1232 1237
f 1239 1232 1238
f 1240 1232 1239
f 1241 1232 1240
f 1242 1232 1241
f 1243 1232 1242
f 1244 1232 1243
f 1245 1244 1246
f 1245 1246 1247
f 1245 1247 1248
f 1245 1248 1249
f 1200 1249 1250
f 1200 1250 1251
f 1244 1245 1232
f 1249 1200 1245
f 1200 1251 1252
f 1253 1254 1255
f 1254 1256 1257
f 1253 1255 1258
f 1259 1257 1256
f 1253 1258 1260
f 1261 1257 1259
f 1253 1260 1262
f 1232 1257 1261
f 1253 1262 1263
f 1264 1257 1232
f 1253 1263 1265
f 1266 1257 1264
f 1253 1265 1267
f 1257 1266 1268
f 1253 1267 1269
f 1268 1266 1270
f 1253 1269 1271
f 1270 1266 1272
f 1253 1271 1273
f 1272 1266 1274
f 1253 1273 1275
f 1274 1266 1276
f 1253 1275 1277
f 1276 1266 1278
f 1253 1277 1279
f 1278 1266 1280
f 1253 1279 1281
f 1280 1266 1282
f 1254 1253 1283
f 1282 1266 1284
f 1284 1266 1285
f 1254 1286 1256
f 1254 1287 1286
f 1254 1288 1287
f 1254 1289 1288
f 1254 1290 1289
f 1254 1291 1290
f 1254 1292 1291
f 1254 1293 1292
f 1254 1294 1293
f 1254 1295 1294
f 1254 1296 1295
f 1254 1297 1296
f 1254 1298 1297
f 1254 1299 1298
f 1298 1299 1300
f 1301 1300 1299
f 1300 1301 1302
f 1303 1302 1301
f 1302 1303 1304
f 1304 1305 1306
f 1307 1306 1305
f 1306 1307 1308
f 1308 1309 1310
f 1311 1310 1309
f 1310 1311 1312
f 1312 1313 1314
f 1315 1316 1317
f 1316 1315 1318
f 1319 1318 1315
f 1318 1319 1320
f 1320 1314 1313
f 1314 1320 1319
f 1313 1312 1311
f 1309 1308 1307
f 1305 1304 1303
f 1254 1321 1299
f 1254 1283 1321
f 1253 1322 1283
f 1253 1323 1322
f 1253 1324 1323
f 1253 1325 1324
f 1253 1326 1325
f 1253 1327 1326
f 1253 1328 1327
f 1201 1328 1253
f 1328 1201 1329
f 1329 1201 1330
f 1330 1201 1331
f 1331 1201 1332
f 1332 1201 1333
f 1333 1201 1334
f 1334 1201 1335
f 1196 1197 1187
f 1199 1201 1197
f 1336 1201 1203
f 1337 1201 1336
f 1338 1201 1337
f 1339 1201 1338
f 1340 1201 1339
f 1341 1201 1340
f 1342 1201 1341
f 1343 1201 1342
f 1344 1201 1343
f 1335 1201 1344
f 1253 1204 1201
f 1345 1204 1346
f 1204 1347 1346
f 1204 1206 1347
f 837 1204 835
f 1348 1204 1253
f 1204 843 835
f 1204 846 843
f 1204 803 846
f 1204 801 803
f 1204 855 801
f 1204 854 855
f 1204 811 854
f 1204 809 811
f 1204 852 809
f 1204 847 852
f 1204 850 847
f 1204 805 850
f 808 1204 1348
f 1204 808 805
f 808 1348 839
f 839 1348 842
f 790 1211 1210
f 653 794 814
f 692 794 653
f 651 814 870
f 695 870 772
f 693 772 774
f 727 774 872
f 725 872 874
f 724 874 868
f 719 868 865
f 722 865 864
f 734 864 861
f 748 861 758
f 814 651 653
f 729 758 755
f 870 695 651
f 772 693 695
f 774 727 693
f 732 755 860
f 872 725 727
f 874 724 725
f 709 860 857
f 868 719 724
f 865 722 719
f 864 734 722
f 861 748 734
f 842 1348 857
f 758 729 748
f 755 732 729
f 697 857 1348
f 860 709 732
f 857 697 709
f 697 1348 700
f 684 577 580
f 575 666 599
f 599 666 718
f 664 575 577
f 634 718 745
f 606 745 702
f 529 702 704
f 527 704 706
f 619 706 708
f 561 708 740
f 559 740 742
f 611 742 743
f 614 743 754
f 615 754 752
f 718 634 599
f 618 752 749
f 745 606 634
f 702 529 606
f 704 527 529
f 609 749 738
f 706 619 527
f 708 561 619
f 607 738 735
f 740 559 561
f 742 611 559
f 743 614 611
f 754 615 614
f 700 1348 735
f 752 618 615
f 601 735 1348
f 749 609 618
f 738 607 609
f 735 601 607
f 601 1348 604
f 419 590 409
f 409 590 572
f 550 419 421
f 548 421 415
f 407 572 574
f 484 574 626
f 449 626 628
f 447 628 630
f 486 630 631
f 445 631 568
f 443 568 570
f 491 570 624
f 494 624 534
f 495 534 531
f 572 407 409
f 498 531 621
f 574 484 407
f 626 449 484
f 628 447 449
f 487 621 566
f 630 486 447
f 631 445 486
f 490 566 563
f 568 443 445
f 570 491 443
f 624 494 491
f 534 495 494
f 604 1348 563
f 479 563 1348
f 531 498 495
f 621 487 498
f 566 490 487
f 563 479 490
f 479 1348 482
f 1230 1145 1349
f 1349 1145 1350
f 506 1145 468
f 502 1145 506
f 504 1145 502
f 1145 504 1348
f 512 1348 504
f 514 1348 512
f 508 1348 514
f 510 1348 508
f 458 1348 510
f 455 1348 458
f 414 1348 455
f 411 1348 414
f 499 1348 411
f 454 1348 499
f 451 1348 454
f 482 1348 451
f 1285 1266 1351
f 1351 1266 1352
f 1232 1261 1233
f 1352 1266 1353
f 1353 1266 1354
f 1355 1266 1264
f 1200 1252 1356
f 1200 1356 1357
f 1200 1357 1358
f 1200 1358 1185
f 1359 1180 1179
f 1360 1361 1359
f 1361 1360 1362
f 1363 1317 1316
f 1317 1363 1364
f 1365 1364 1363
f 1364 1365 1366
f 1367 1366 1365
f 1366 1367 1368
f 1369 1368 1367
f 1368 1369 1370
f 1362 1370 1369
f 1370 1362 1360
f 1180 1359 1361
f 1245 1200 1355
f 1371 1355 1200
f 1355 1371 1266
f 1197 1371 1372
f 1187 1197 1372
f 1371 1197 1266
f 1148 1266 1197
f 1149 1204 1345
f 1204 1149 1148
f 1373 1148 1154
f 1374 1148 1373
f 1374 1373 1375
f 1145 1177 1376
f 1350 1145 1376
f 1148 1374 1266
f 1177 1145 1146
f 1145 1348 1377
f 1163 1146 1375
f 1145 1377 1378
f 1375 1146 1374
f 1145 1378 1379
f 1374 1146 1380
f 1145 1379 1381
f 1380 1146 1382
f 1145 1381 1383
f 1382 1146 1384
f 1145 1383 1385
f 1384 1146 1386
f 1145 1385 1387
f 1386 1146 1388
f 1145 1387 1389
f 1388 1146 1390
f 1145 1389 1391
f 1390 1146 1392
f 1145 1391 1393
f 1392 1146 1394
f 1145 1393 1395
f 1394 1146 1396
f 1145 1395 1397
f 1396 1146 1398
f 1145 1397 1399
f 1398 1146 1400
f 1145 1399 1401
f 1400 1146 1402
f 1402 1146 1403
f 1403 1146 1404
f 191 1379 1378
f 1379 191 192
f 187 1348 1253
f 1348 187 188
f 188 1377 1348
f 1377 188 189
f 1402 248 1400
f 248 1402 250
f 234 1384 1386
f 1384 234 232
f 228 1266 1374
f 1266 228 227
f 192 1381 1379
f 1381 192 193
f 1398 244 1396
f 244 1398 246
f 229 1374 1380
f 1374 229 228
f 168 1272 174
f 1272 168 1270
f 1146 254 1404
f 254 1146 256
f 1403 250 1402
f 250 1403 252
f 1400 246 1398
f 246 1400 248
f 1396 242 1394
f 242 1396 244
f 1394 240 1392
f 240 1394 242
f 232 1382 1384
f 1382 232 230
f 230 1380 1382
f 1380 230 229
f 210 1280 212
f 1280 210 1278
f 227 1354 1266
f 1354 227 226
f 181 1277 1275
f 1277 181 183
f 177 1273 1271
f 1273 177 179
f 155 1257 157
f 1257 155 1254
f 189 1378 1377
f 1378 189 191
f 195 1387 1385
f 1387 195 197
f 1401 257 1145
f 257 1401 261
f 1399 261 1401
f 261 1399 259
f 1395 207 1397
f 207 1395 205
f 1387 199 1389
f 199 1387 197
f 1404 252 1403
f 252 1404 254
f 238 1388 1390
f 1388 238 236
f 236 1386 1388
f 1386 236 234
f 157 1268 162
f 1268 157 1257
f 220 1285 1351
f 1285 220 218
f 183 1279 1277
f 1279 183 185
f 193 1383 1381
f 1383 193 194
f 194 1385 1383
f 1385 194 195
f 1389 201 1391
f 201 1389 199
f 240 1390 1392
f 1390 240 238
f 162 1270 168
f 1270 162 1268
f 209 1278 210
f 1278 209 1276
f 208 1276 209
f 1276 208 1274
f 174 1274 208
f 1274 174 1272
f 218 1284 1285
f 1284 218 216
f 216 1282 1284
f 1282 216 214
f 214 1280 1282
f 1280 214 212
f 226 1353 1354
f 1353 226 224
f 224 1352 1353
f 1352 224 222
f 222 1351 1352
f 1351 222 220
f 186 1253 1281
f 1253 186 187
f 179 1275 1273
f 1275 179 181
f 172 1265 169
f 1265 172 1267
f 160 1258 158
f 1258 160 1260
f 166 1262 163
f 1262 166 1263
f 1397 259 1399
f 259 1397 207
f 1391 203 1393
f 203 1391 201
f 1393 205 1395
f 205 1393 203
f 175 1271 1269
f 1271 175 177
f 169 1263 166
f 1263 169 1265
f 163 1260 160
f 1260 163 1262
f 158 1255 156
f 1255 158 1258
f 185 1281 1279
f 1281 185 186
f 172 1269 1267
f 1269 172 175
f 156 1254 155
f 1254 156 1255
f 958 1405 970
f 1405 958 1406
f 1407 1051 1408
f 1051 1407 1086
f 1405 1051 970
f 1051 1405 1408
f 1407 958 1086
f 958 1407 1406
f 1409 1148 1410
f 1148 1409 1204
f 1411 1407 1412
f 1411 1406 1407
f 1406 1409 1405
f 1409 1406 1411
f 1408 1412 1407
f 1405 1412 1408
f 1405 1410 1412
f 1410 1405 1409
f 1201 1412 1197
f 1412 1201 1411
f 1148 1412 1410
f 1412 1148 1197
f 1201 1409 1411
f 1409 1201 1204
f 1157 979 980
f 979 1157 1156
f 1168 990 991
f 990 1168 1167
f 998 1174 997
f 1174 998 1175
f 1207 960 1205
f 960 1207 959
f 1221 953 952
f 953 1221 1222
f 1150 976 1151
f 976 1150 975
f 1151 977 1152
f 977 1151 976
f 1159 981 982
f 981 1159 1158
f 996 1172 995
f 1172 996 1173
f 1166 988 989
f 988 1166 1165
f 1347 1052 1346
f 1052 1347 1105
f 1212 961 1209
f 961 1212 962
f 1218 950 957
f 950 1218 1219
f 1223 942 954
f 942 1223 1224
f 1149 974 1147
f 974 1149 972
f 1147 975 1150
f 975 1147 974
f 1153 969 1155
f 969 1153 978
f 1152 978 1153
f 978 1152 977
f 1156 969 979
f 969 1156 1155
f 1164 985 987
f 985 1164 1162
f 1158 980 981
f 980 1158 1157
f 1160 982 983
f 982 1160 1159
f 1161 983 984
f 983 1161 1160
f 1107 1376 1108
f 1376 1107 1350
f 999 1175 998
f 1175 999 1176
f 1055 1176 999
f 1176 1055 1177
f 997 1173 996
f 1173 997 1174
f 1167 989 990
f 989 1167 1166
f 1165 987 988
f 987 1165 1164
f 1170 992 993
f 992 1170 1169
f 994 1170 993
f 1170 994 1171
f 1169 991 992
f 991 1169 1168
f 995 1171 994
f 1171 995 1172
f 1346 973 1345
f 973 1346 1052
f 1216 956 955
f 956 1216 1217
f 1214 955 968
f 955 1214 1216
f 1213 968 967
f 968 1213 1214
f 1215 962 1212
f 962 1215 963
f 1208 963 1215
f 963 1208 964
f 1210 966 965
f 966 1210 1211
f 1209 959 1207
f 959 1209 961
f 1217 957 956
f 957 1217 1218
f 1220 952 951
f 952 1220 1221
f 1222 954 953
f 954 1222 1223
f 947 1230 948
f 1230 947 1229
f 949 1350 1107
f 1350 949 1349
f 943 1226 944
f 1226 943 1225
f 945 1228 946
f 1228 945 1227
f 1224 943 942
f 943 1224 1225
f 1345 972 1149
f 972 1345 973
f 1162 984 985
f 984 1162 1161
f 1108 1177 1055
f 1177 1108 1376
f 1206 1105 1347
f 1105 1206 1106
f 1205 1106 1206
f 1106 1205 960
f 1211 967 966
f 967 1211 1213
f 1208 965 964
f 965 1208 1210
f 1219 951 950
f 951 1219 1220
f 946 1229 947
f 1229 946 1228
f 948 1349 949
f 1349 948 1230
f 944 1227 945
f 1227 944 1226
f 986 1375 1054
f 1375 986 1163
f 1154 1053 1373
f 1053 1154 971
f 1375 1053 1054
f 1053 1375 1373
f 1154 986 971
f 986 1154 1163
f 1234 1112 1235
f 1112 1234 1111
f 1241 1117 1118
f 1117 1241 1240
f 1250 1125 1126
f 1125 1250 1249
f 1128 1185 1033
f 1185 1128 1183
f 1286 1000 1256
f 1000 1286 1002
f 1244 1120 1121
f 1120 1244 1243
f 1239 1115 1116
f 1115 1239 1238
f 1036 1179 1037
f 1179 1036 1359
f 1032 1357 1030
f 1357 1032 1358
f 1248 1123 1124
f 1123 1248 1247
f 1259 1024 1261
f 1024 1259 1021
f 1235 1113 1236
f 1113 1235 1112
f 1238 1114 1115
f 1114 1238 1237
f 1246 1121 1122
f 1121 1246 1244
f 1242 1118 1119
f 1118 1242 1241
f 1243 1119 1120
f 1119 1243 1242
f 1240 1116 1117
f 1116 1240 1239
f 1133 1183 1128
f 1183 1133 1181
f 1037 1181 1133
f 1181 1037 1179
f 1033 1358 1032
f 1358 1033 1185
f 1249 1124 1125
f 1124 1249 1248
f 1247 1122 1123
f 1122 1247 1246
f 1252 1127 1028
f 1127 1252 1251
f 1356 1028 1029
f 1028 1356 1252
f 1251 1126 1127
f 1126 1251 1250
f 1030 1356 1029
f 1356 1030 1357
f 1256 1021 1259
f 1021 1256 1000
f 1288 1003 1287
f 1003 1288 1004
f 1300 1061 1059
f 1061 1300 1302
f 1074 1368 1077
f 1368 1074 1366
f 1072 1364 1073
f 1364 1072 1317
f 1295 1014 1013
f 1014 1295 1296
f 1231 1111 1234
f 1111 1231 1110
f 1233 1110 1231
f 1110 1233 1022
f 1261 1022 1233
f 1022 1261 1024
f 1237 1113 1114
f 1113 1237 1236
f 1075 1359 1036
f 1359 1075 1360
f 1287 1002 1286
f 1002 1287 1003
f 1291 1007 1290
f 1007 1291 1008
f 1290 1005 1289
f 1005 1290 1007
f 1076 1360 1075
f 1360 1076 1370
f 1073 1366 1074
f 1366 1073 1364
f 1298 1059 1017
f 1059 1298 1300
f 1296 1016 1014
f 1016 1296 1297
f 1292 1011 1009
f 1011 1292 1293
f 1293 1012 1011
f 1012 1293 1294
f 1294 1013 1012
f 1013 1294 1295
f 1289 1004 1288
f 1004 1289 1005
f 1312 1069 1068
f 1069 1312 1314
f 1302 1063 1061
f 1063 1302 1304
f 1071 1317 1072
f 1317 1071 1315
f 1077 1370 1076
f 1370 1077 1368
f 1297 1017 1016
f 1017 1297 1298
f 1292 1008 1291
f 1008 1292 1009
f 1310 1068 1067
f 1068 1310 1312
f 1319 1071 1070
f 1071 1319 1315
f 1314 1070 1069
f 1070 1314 1319
f 1308 1067 1066
f 1067 1308 1310
f 1304 1065 1063
f 1065 1304 1306
f 1306 1066 1065
f 1066 1306 1308
f 1318 1045 1316
f 1045 1318 1044
f 1361 1130 1131
f 1130 1361 1362
f 1190 1136 1137
f 1136 1190 1189
f 1144 1196 1143
f 1196 1144 1198
f 1305 1040 1307
f 1040 1305 1064
f 1182 1132 1134
f 1132 1182 1178
f 1369 1048 1129
f 1048 1369 1367
f 1142 1194 1141
f 1194 1142 1195
f 1188 1034 1135
f 1034 1188 1186
f 1316 1046 1363
f 1046 1316 1045
f 1367 1047 1048
f 1047 1367 1365
f 1184 1134 1038
f 1134 1184 1182
f 1180 1131 1035
f 1131 1180 1361
f 1178 1035 1132
f 1035 1178 1180
f 1362 1129 1130
f 1129 1362 1369
f 1097 1203 1096
f 1203 1097 1336
f 1094 1198 1144
f 1198 1094 1199
f 1095 1199 1094
f 1199 1095 1202
f 1143 1195 1142
f 1195 1143 1196
f 1189 1135 1136
f 1135 1189 1188
f 1186 1038 1034
f 1038 1186 1184
f 1192 1138 1139
f 1138 1192 1191
f 1193 1139 1140
f 1139 1193 1192
f 1191 1137 1138
f 1137 1191 1190
f 1141 1193 1140
f 1193 1141 1194
f 1307 1039 1309
f 1039 1307 1040
f 1301 1062 1303
f 1062 1301 1060
f 1102 1340 1101
f 1340 1102 1341
f 1325 1082 1081
f 1082 1325 1326
f 1320 1044 1318
f 1044 1320 1043
f 1313 1043 1320
f 1043 1313 1042
f 1311 1042 1313
f 1042 1311 1041
f 1365 1046 1047
f 1046 1365 1363
f 1096 1202 1095
f 1202 1096 1203
f 1303 1064 1305
f 1064 1303 1062
f 1322 1079 1078
f 1079 1322 1323
f 1283 1020 1321
f 1020 1283 1056
f 1321 1019 1299
f 1019 1321 1020
f 1330 1088 1087
f 1088 1330 1331
f 1098 1336 1097
f 1336 1098 1337
f 1101 1339 1100
f 1339 1101 1340
f 1100 1338 1099
f 1338 1100 1339
f 1328 1085 1084
f 1085 1328 1329
f 1326 1083 1082
f 1083 1326 1327
f 1309 1041 1311
f 1041 1309 1039
f 1323 1080 1079
f 1080 1323 1324
f 1324 1081 1080
f 1081 1324 1325
f 1299 1060 1301
f 1060 1299 1019
f 1335 1093 1092
f 1093 1335 1344
f 1329 1087 1085
f 1087 1329 1330
f 1103 1341 1102
f 1341 1103 1342
f 1099 1337 1098
f 1337 1099 1338
f 1327 1084 1083
f 1084 1327 1328
f 1322 1056 1283
f 1056 1322 1078
f 1334 1092 1091
f 1092 1334 1335
f 1343 1103 1104
f 1103 1343 1342
f 1344 1104 1093
f 1104 1344 1343
f 1333 1091 1090
f 1091 1333 1334
f 1331 1089 1088
f 1089 1331 1332
f 1332 1090 1089
f 1090 1332 1333
f 1031 1372 1050
f 1372 1031 1187
f 1200 1049 1371
f 1049 1200 1026
f 1372 1049 1050
f 1049 1372 1371
f 1200 1031 1026
f 1031 1200 1187
f 1027 1355 1025
f 1355 1027 1245
f 1232 1018 1264
f 1018 1232 1023
f 1232 1027 1023
f 1027 1232 1245
f 1355 1018 1025
f 1018 1355 1264
f 12 1413 95
f 12 1414 1413
f 6 1414 12
f 884 1414 6
f 1414 884 885
f 95 349 266
f 881 95 1413
f 95 881 349
f 6 875 884
f 875 6 9
f 272 22 263
f 875 22 272
f 9 22 875
f 22 9 11
f 1413 1415 1416
f 1415 1413 1414
f 1413 879 881
f 879 1413 1416
f 1415 885 883
f 885 1415 1414
f 1415 879 1416
f 879 1415 883
f 1417 1418 1419
f 1418 1417 1420
f 1417 877 878
f 877 1417 1419
f 1418 877 1419
f 877 1418 876
f 1418 880 876
f 880 1418 1420
f 880 1417 878
f 1417 880 1420
