# Wavefront OBJ exported from rear_case.stl
v 1.50000 15.00000 7.60000
v 1.50000 21.00000 7.30000
v 1.50000 21.00000 7.60000
v 1.50000 15.00000 7.30000
v 1.50000 33.00000 7.60000
v 1.50000 39.00000 7.30000
v 1.50000 39.00000 7.60000
v 1.50000 33.00000 7.30000
v 1.50000 4.00000 4.70000
v 1.50000 52.00000 1.50000
v 1.50000 52.00000 4.70000
v 1.50000 4.00000 1.50000
v 0.90000 21.00000 8.10000
v 2.90000 15.00000 8.10000
v 2.90000 21.00000 8.10000
v 0.90000 15.00000 8.10000
v 2.90000 21.00000 7.60000
v 2.90000 15.00000 7.60000
v 0.90000 21.00000 7.30000
v 0.90000 15.00000 7.30000
v 0.90000 39.00000 8.10000
v 2.90000 33.00000 8.10000
v 2.90000 39.00000 8.10000
v 0.90000 33.00000 8.10000
v 2.90000 39.00000 7.60000
v 2.90000 33.00000 7.60000
v 0.90000 33.00000 7.30000
v 0.90000 39.00000 7.30000
v 104.00000 53.00000 6.00000
v 103.98357 53.31358 0.00000
v 103.98357 53.31358 6.00000
v 104.00000 53.00000 0.00000
v 101.00000 56.00000 0.00000
v 3.00000 56.00000 6.00000
v 101.00000 56.00000 6.00000
v 3.00000 56.00000 0.00000
v 104.00000 9.40000 4.00000
v 104.00000 3.00000 6.00000
v 104.00000 3.00000 4.00000
v 104.00000 9.40000 1.40000
v 104.00000 3.00000 0.00000
v 104.00000 3.00000 1.40000
v 0.00000 7.40000 6.00000
v 0.70000 3.20000 6.00000
v 0.70000 7.40000 6.00000
v 0.01643 2.68641 6.00000
v 0.00000 3.00000 6.00000
v 0.40192 1.50000 6.00000
v 0.57295 1.23664 6.00000
v 0.25936 1.77979 6.00000
v 0.14683 2.07295 6.00000
v 0.06556 2.37626 6.00000
v 103.28630 53.06132 6.00000
v 103.30000 52.80000 6.00000
v 103.24537 53.31978 6.00000
v 103.93444 53.62373 6.00000
v 103.30000 3.20000 6.00000
v 103.17764 53.57254 6.00000
v 103.85317 53.92705 6.00000
v 103.28630 2.93868 6.00000
v 103.08386 53.81684 6.00000
v 103.74064 54.22021 6.00000
v 103.98357 2.68641 6.00000
v 102.96507 54.05000 6.00000
v 103.59808 54.50000 6.00000
v 103.24537 2.68022 6.00000
v 102.82254 54.26946 6.00000
v 103.42705 54.76336 6.00000
v 103.93444 2.37626 6.00000
v 103.17764 2.42746 6.00000
v 102.65786 54.47282 6.00000
v 103.22943 55.00739 6.00000
v 103.00739 55.22943 6.00000
v 102.47282 54.65786 6.00000
v 102.76335 55.42705 6.00000
v 102.26946 54.82254 6.00000
v 102.50000 55.59808 6.00000
v 102.05000 54.96507 6.00000
v 102.22021 55.74063 6.00000
v 101.81684 55.08386 6.00000
v 101.92705 55.85317 6.00000
v 101.57254 55.17764 6.00000
v 101.62373 55.93444 6.00000
v 101.31978 55.24537 6.00000
v 101.31358 55.98357 6.00000
v 101.06132 55.28630 6.00000
v 100.80000 55.30000 6.00000
v 3.20000 55.30000 6.00000
v 2.93868 55.28630 6.00000
v 2.68641 55.98357 6.00000
v 2.68022 55.24537 6.00000
v 2.37626 55.93444 6.00000
v 2.42746 55.17764 6.00000
v 2.07295 55.85317 6.00000
v 2.18316 55.08386 6.00000
v 1.77979 55.74063 6.00000
v 1.95000 54.96507 6.00000
v 1.50000 55.59808 6.00000
v 1.73054 54.82254 6.00000
v 1.23664 55.42705 6.00000
v 1.52717 54.65786 6.00000
v 0.99261 55.22943 6.00000
v 1.34214 54.47282 6.00000
v 0.77057 55.00739 6.00000
v 0.57295 54.76336 6.00000
v 1.17746 54.26946 6.00000
v 0.40192 54.50000 6.00000
v 1.03494 54.05000 6.00000
v 0.25936 54.22021 6.00000
v 0.91614 53.81684 6.00000
v 0.14683 53.92705 6.00000
v 0.82236 53.57254 6.00000
v 0.06556 53.62373 6.00000
v 0.75463 53.31978 6.00000
v 0.01643 53.31358 6.00000
v 0.71369 53.06132 6.00000
v 0.00000 53.00000 6.00000
v 0.70000 52.80000 6.00000
v 0.00000 16.60000 6.00000
v 0.70000 16.60000 6.00000
v 103.85317 2.07295 6.00000
v 103.08386 2.18316 6.00000
v 103.74064 1.77979 6.00000
v 102.96507 1.95000 6.00000
v 103.59808 1.50000 6.00000
v 102.82254 1.73054 6.00000
v 103.42705 1.23664 6.00000
v 102.65786 1.52717 6.00000
v 103.22943 0.99261 6.00000
v 103.00739 0.77057 6.00000
v 102.47282 1.34214 6.00000
v 102.76335 0.57295 6.00000
v 102.26946 1.17746 6.00000
v 102.50000 0.40192 6.00000
v 102.05000 1.03494 6.00000
v 102.22021 0.25936 6.00000
v 101.81684 0.91614 6.00000
v 101.92705 0.14683 6.00000
v 101.57254 0.82236 6.00000
v 101.62373 0.06556 6.00000
v 101.31978 0.75463 6.00000
v 101.31358 0.01643 6.00000
v 101.06132 0.71369 6.00000
v 101.00000 0.00000 6.00000
v 100.80000 0.70000 6.00000
v 3.20000 0.70000 6.00000
v 3.00000 0.00000 6.00000
v 2.93868 0.71369 6.00000
v 2.68641 0.01643 6.00000
v 2.68022 0.75463 6.00000
v 2.37626 0.06556 6.00000
v 2.42746 0.82236 6.00000
v 2.07295 0.14683 6.00000
v 2.18316 0.91614 6.00000
v 1.77979 0.25936 6.00000
v 1.95000 1.03494 6.00000
v 1.50000 0.40192 6.00000
v 1.73054 1.17746 6.00000
v 1.23664 0.57295 6.00000
v 1.52717 1.34214 6.00000
v 0.99261 0.77057 6.00000
v 1.34214 1.52717 6.00000
v 1.17746 1.73054 6.00000
v 1.03494 1.95000 6.00000
v 0.91614 2.18316 6.00000
v 0.82236 2.42746 6.00000
v 0.77057 0.99261 6.00000
v 0.75463 2.68022 6.00000
v 0.71369 2.93868 6.00000
v 3.00000 0.00000 0.00000
v 101.00000 0.00000 0.00000
v 0.00000 53.00000 0.00000
v 0.00000 16.60000 4.80000
v 0.00000 3.00000 0.00000
v 0.00000 7.40000 4.80000
v 0.99261 0.77057 0.00000
v 0.77057 0.99261 0.00000
v 1.23664 55.42705 0.00000
v 0.99261 55.22943 0.00000
v 101.31358 55.98357 0.00000
v 102.50000 55.59808 0.00000
v 102.22021 55.74063 0.00000
v 103.42705 54.76336 0.00000
v 103.59808 54.50000 0.00000
v 2.68641 0.01643 0.00000
v 101.92705 0.14683 0.00000
v 102.22021 0.25936 0.00000
v 101.31358 0.01643 0.00000
v 0.01643 2.68641 0.00000
v 0.57295 1.23664 0.00000
v 0.40192 54.50000 0.00000
v 0.57295 54.76336 0.00000
v 0.01643 53.31358 0.00000
v 103.85317 53.92705 0.00000
v 103.93444 53.62373 0.00000
v 103.64902 1.60000 4.00000
v 103.74064 1.77979 4.00000
v 103.59808 1.50000 0.00000
v 103.64902 1.60000 1.40000
v 103.74064 1.77979 0.00000
v 103.74064 1.77979 1.40000
v 2.07295 55.85317 0.00000
v 1.77979 55.74063 0.00000
v 2.68641 55.98357 0.00000
v 2.37626 55.93444 0.00000
v 103.74064 54.22021 0.00000
v 103.00739 55.22943 0.00000
v 103.22943 55.00739 0.00000
v 1.50000 0.40192 0.00000
v 1.77979 0.25936 0.00000
v 2.07295 0.14683 0.00000
v 2.37626 0.06556 0.00000
v 1.23664 0.57295 0.00000
v 0.14683 2.07295 0.00000
v 0.06556 2.37626 0.00000
v 1.50000 55.59808 0.00000
v 0.14683 53.92705 0.00000
v 0.25936 54.22021 0.00000
v 103.85317 2.07295 0.00000
v 103.85317 2.07295 1.40000
v 103.85317 2.07295 4.00000
v 103.93444 2.37626 0.00000
v 103.93444 2.37626 1.40000
v 103.93444 2.37626 4.00000
v 103.42705 1.23664 0.00000
v 103.22943 0.99261 0.00000
v 102.50000 0.40192 0.00000
v 102.76335 0.57295 0.00000
v 103.00739 0.77057 0.00000
v 101.92705 55.85317 0.00000
v 101.62373 55.93444 0.00000
v 101.62373 0.06556 0.00000
v 0.40192 1.50000 0.00000
v 0.25936 1.77979 0.00000
v 0.77057 55.00739 0.00000
v 0.06556 53.62373 0.00000
v 103.98357 2.68641 0.00000
v 103.98357 2.68641 1.40000
v 103.98357 2.68641 4.00000
v 102.76335 55.42705 0.00000
v 74.00000 28.00000 0.00000
v 58.21576 39.34669 0.00000
v 58.25000 40.00000 0.00000
v 58.11342 38.70055 0.00000
v 57.94410 38.06864 0.00000
v 57.70966 37.45789 0.00000
v 57.41266 36.87500 0.00000
v 57.05635 36.32634 0.00000
v 56.64465 35.81793 0.00000
v 56.18207 35.35535 0.00000
v 55.67366 34.94364 0.00000
v 55.12500 34.58734 0.00000
v 54.54210 34.29034 0.00000
v 53.93135 34.05590 0.00000
v 53.29945 33.88658 0.00000
v 52.65330 33.78424 0.00000
v 52.00000 33.75000 0.00000
v 30.00000 28.00000 0.00000
v 51.34669 33.78424 0.00000
v 45.78424 39.34669 0.00000
v 45.75000 40.00000 0.00000
v 45.88658 38.70055 0.00000
v 46.05590 38.06864 0.00000
v 46.29034 37.45789 0.00000
v 46.58734 36.87500 0.00000
v 46.94364 36.32634 0.00000
v 47.35535 35.81793 0.00000
v 47.81793 35.35535 0.00000
v 48.32634 34.94364 0.00000
v 48.87500 34.58734 0.00000
v 49.45789 34.29034 0.00000
v 50.06864 34.05590 0.00000
v 50.70055 33.88658 0.00000
v 99.99722 12.64894 0.00000
v 100.05411 12.43661 0.00000
v 100.08849 48.28049 0.00000
v 100.10000 48.50000 0.00000
v 100.05411 48.06339 0.00000
v 99.91844 12.85415 0.00000
v 99.99722 47.85107 0.00000
v 99.81865 13.05000 0.00000
v 99.91844 47.64585 0.00000
v 99.81865 47.45000 0.00000
v 99.69894 13.23435 0.00000
v 99.69894 47.26565 0.00000
v 99.56061 13.40517 0.00000
v 99.56061 47.09483 0.00000
v 99.40517 13.56060 0.00000
v 99.40517 46.93940 0.00000
v 99.23434 13.69894 0.00000
v 99.23434 46.80106 0.00000
v 99.05000 13.81865 0.00000
v 99.05000 46.68135 0.00000
v 98.85415 13.91844 0.00000
v 98.85415 46.58155 0.00000
v 98.64893 13.99722 0.00000
v 98.64893 46.50278 0.00000
v 98.43661 14.05411 0.00000
v 98.43661 46.44589 0.00000
v 98.21951 14.08850 0.00000
v 98.21951 46.41151 0.00000
v 98.00000 14.10000 0.00000
v 98.00000 46.40000 0.00000
v 97.78049 14.08850 0.00000
v 97.78049 46.41151 0.00000
v 97.56339 14.05411 0.00000
v 97.56339 46.44589 0.00000
v 97.35107 13.99722 0.00000
v 97.35107 46.50278 0.00000
v 97.14585 13.91844 0.00000
v 96.95000 13.81865 0.00000
v 97.14585 46.58155 0.00000
v 96.76566 13.69894 0.00000
v 96.95000 46.68135 0.00000
v 96.59483 13.56060 0.00000
v 96.76566 46.80106 0.00000
v 96.43939 13.40517 0.00000
v 96.59483 46.93940 0.00000
v 96.30106 13.23435 0.00000
v 96.43939 47.09483 0.00000
v 96.18135 13.05000 0.00000
v 96.30106 47.26565 0.00000
v 96.08156 12.85415 0.00000
v 96.18135 47.45000 0.00000
v 74.00000 8.00000 0.00000
v 96.00278 12.64894 0.00000
v 96.08156 47.64585 0.00000
v 95.94589 12.43661 0.00000
v 96.00278 47.85107 0.00000
v 95.91151 12.21951 0.00000
v 95.94589 48.06339 0.00000
v 95.90000 12.00000 0.00000
v 95.91151 48.28049 0.00000
v 100.08849 12.21951 0.00000
v 100.10000 12.00000 0.00000
v 100.08849 48.71951 0.00000
v 100.05411 48.93661 0.00000
v 99.99722 49.14893 0.00000
v 99.91844 49.35415 0.00000
v 99.81865 49.55000 0.00000
v 99.69894 49.73435 0.00000
v 99.56061 49.90517 0.00000
v 99.40517 50.06060 0.00000
v 99.23434 50.19894 0.00000
v 98.43661 9.94589 0.00000
v 100.08849 11.78049 0.00000
v 100.05411 11.56339 0.00000
v 99.99722 11.35106 0.00000
v 99.91844 11.14585 0.00000
v 99.81865 10.95000 0.00000
v 99.69894 10.76565 0.00000
v 99.56061 10.59483 0.00000
v 99.40517 10.43940 0.00000
v 99.23434 10.30106 0.00000
v 99.05000 10.18135 0.00000
v 98.85415 10.08156 0.00000
v 98.64893 10.00278 0.00000
v 98.21951 9.91150 0.00000
v 98.00000 9.90000 0.00000
v 97.78049 9.91150 0.00000
v 97.56339 9.94589 0.00000
v 97.35107 10.00278 0.00000
v 97.14585 10.08156 0.00000
v 96.95000 10.18135 0.00000
v 96.76566 10.30106 0.00000
v 96.59483 10.43940 0.00000
v 96.43939 10.59483 0.00000
v 96.30106 10.76565 0.00000
v 96.18135 10.95000 0.00000
v 95.91151 11.78049 0.00000
v 95.94589 11.56339 0.00000
v 96.00278 11.35106 0.00000
v 96.08156 11.14585 0.00000
v 30.00000 8.00000 0.00000
v 99.05000 50.31865 0.00000
v 98.85415 50.41845 0.00000
v 98.64893 50.49722 0.00000
v 98.43661 50.55411 0.00000
v 98.21951 50.58849 0.00000
v 98.00000 50.60000 0.00000
v 97.78049 50.58849 0.00000
v 97.56339 50.55411 0.00000
v 97.35107 50.49722 0.00000
v 97.14585 50.41845 0.00000
v 96.95000 50.31865 0.00000
v 96.76566 50.19894 0.00000
v 96.59483 50.06060 0.00000
v 96.43939 49.90517 0.00000
v 55.67366 45.05635 0.00000
v 96.30106 49.73435 0.00000
v 95.90000 48.50000 0.00000
v 57.94410 41.93135 0.00000
v 57.70966 42.54210 0.00000
v 95.91151 48.71951 0.00000
v 95.94589 48.93661 0.00000
v 57.41266 43.12500 0.00000
v 96.00278 49.14893 0.00000
v 57.05635 43.67366 0.00000
v 58.21576 40.65330 0.00000
v 58.11342 41.29945 0.00000
v 96.08156 49.35415 0.00000
v 56.64465 44.18207 0.00000
v 96.18135 49.55000 0.00000
v 56.18207 44.64465 0.00000
v 55.12500 45.41266 0.00000
v 54.54210 45.70966 0.00000
v 53.93135 45.94410 0.00000
v 53.29945 46.11342 0.00000
v 52.65330 46.21576 0.00000
v 52.00000 46.25000 0.00000
v 51.34669 46.21576 0.00000
v 50.70055 46.11342 0.00000
v 45.78424 40.65330 0.00000
v 45.88658 41.29945 0.00000
v 46.05590 41.93135 0.00000
v 46.29034 42.54210 0.00000
v 46.58734 43.12500 0.00000
v 46.94364 43.67366 0.00000
v 47.35535 44.18207 0.00000
v 50.06864 45.94410 0.00000
v 49.45789 45.70966 0.00000
v 48.87500 45.41266 0.00000
v 48.32634 45.05635 0.00000
v 47.81793 44.64465 0.00000
v 58.21576 40.65330 -1.20000
v 58.25000 40.00000 -1.20000
v 52.00000 46.25000 -1.20000
v 51.34669 46.21576 -1.20000
v 52.00000 33.75000 -1.20000
v 52.65330 33.78424 -1.20000
v 56.18207 44.64465 -1.20000
v 55.67366 45.05635 -1.20000
v 46.94364 43.67366 -1.20000
v 47.35535 44.18207 -1.20000
v 49.45789 45.70966 -1.20000
v 48.87500 45.41266 -1.20000
v 46.29034 37.45789 -1.20000
v 46.05590 38.06864 -1.20000
v 57.41266 43.12500 -1.20000
v 57.70966 42.54210 -1.20000
v 53.93135 45.94410 -1.20000
v 53.29945 46.11342 -1.20000
v 46.05590 41.93135 -1.20000
v 46.29034 42.54210 -1.20000
v 46.58734 43.12500 -1.20000
v 45.78424 40.65330 -1.20000
v 45.88658 41.29945 -1.20000
v 50.70055 46.11342 -1.20000
v 50.06864 45.94410 -1.20000
v 53.93135 34.05590 -1.20000
v 54.54210 34.29034 -1.20000
v 57.05635 36.32634 -1.20000
v 56.64465 35.81793 -1.20000
v 57.94410 38.06864 -1.20000
v 57.70966 37.45789 -1.20000
v 58.21576 39.34669 -1.20000
v 58.11342 38.70055 -1.20000
v 50.06864 34.05590 -1.20000
v 50.70055 33.88658 -1.20000
v 51.34669 33.78424 -1.20000
v 47.81793 35.35535 -1.20000
v 48.32634 34.94364 -1.20000
v 47.35535 35.81793 -1.20000
v 45.88658 38.70055 -1.20000
v 45.78424 39.34669 -1.20000
v 57.94410 41.93135 -1.20000
v 58.11342 41.29945 -1.20000
v 56.64465 44.18207 -1.20000
v 57.05635 43.67366 -1.20000
v 52.65330 46.21576 -1.20000
v 55.12500 45.41266 -1.20000
v 54.54210 45.70966 -1.20000
v 57.10000 40.00000 -1.20000
v 57.07206 39.46690 -1.20000
v 56.98855 38.93965 -1.20000
v 57.07206 40.53310 -1.20000
v 56.85039 38.42401 -1.20000
v 56.65908 37.92564 -1.20000
v 57.41266 36.87500 -1.20000
v 56.98855 41.06035 -1.20000
v 56.41673 37.45000 -1.20000
v 56.12598 37.00230 -1.20000
v 55.79004 36.58743 -1.20000
v 56.18207 35.35535 -1.20000
v 55.41257 36.20996 -1.20000
v 55.67366 34.94364 -1.20000
v 54.99770 35.87401 -1.20000
v 55.12500 34.58734 -1.20000
v 54.55000 35.58327 -1.20000
v 54.07436 35.34092 -1.20000
v 53.57598 35.14961 -1.20000
v 53.29945 33.88658 -1.20000
v 53.06035 35.01145 -1.20000
v 52.53310 34.92794 -1.20000
v 52.00000 34.90000 -1.20000
v 51.46690 34.92794 -1.20000
v 50.93965 35.01145 -1.20000
v 50.42401 35.14961 -1.20000
v 49.92564 35.34092 -1.20000
v 49.45789 34.29034 -1.20000
v 49.45000 35.58327 -1.20000
v 48.87500 34.58734 -1.20000
v 49.00230 35.87401 -1.20000
v 48.58743 36.20996 -1.20000
v 48.20996 36.58743 -1.20000
v 47.87401 37.00230 -1.20000
v 46.94364 36.32634 -1.20000
v 47.58327 37.45000 -1.20000
v 46.58734 36.87500 -1.20000
v 47.34092 37.92564 -1.20000
v 47.14961 38.42401 -1.20000
v 47.01145 38.93965 -1.20000
v 56.85039 41.57598 -1.20000
v 56.65908 42.07436 -1.20000
v 56.41673 42.55000 -1.20000
v 56.12598 42.99770 -1.20000
v 55.79004 43.41257 -1.20000
v 55.41257 43.79004 -1.20000
v 54.99770 44.12598 -1.20000
v 54.55000 44.41673 -1.20000
v 54.07436 44.65908 -1.20000
v 53.57598 44.85039 -1.20000
v 53.06035 44.98855 -1.20000
v 52.53310 45.07206 -1.20000
v 52.00000 45.10000 -1.20000
v 51.46690 45.07206 -1.20000
v 50.93965 44.98855 -1.20000
v 50.42401 44.85039 -1.20000
v 49.92564 44.65908 -1.20000
v 49.45000 44.41673 -1.20000
v 49.00230 44.12598 -1.20000
v 48.32634 45.05635 -1.20000
v 48.58743 43.79004 -1.20000
v 47.81793 44.64465 -1.20000
v 48.20996 43.41257 -1.20000
v 47.87401 42.99770 -1.20000
v 47.58327 42.55000 -1.20000
v 47.34092 42.07436 -1.20000
v 47.14961 41.57598 -1.20000
v 47.01145 41.06035 -1.20000
v 46.92794 40.53310 -1.20000
v 46.90000 40.00000 -1.20000
v 46.92794 39.46690 -1.20000
v 45.75000 40.00000 -1.20000
v 99.40517 13.56060 1.40000
v 99.23434 13.69894 1.40000
v 97.14585 10.08156 1.40000
v 97.35107 10.00278 1.40000
v 99.05000 13.81865 1.40000
v 97.56339 14.05411 1.40000
v 97.35107 13.99722 1.40000
v 96.08156 12.85415 1.40000
v 96.18135 13.05000 1.40000
v 96.08156 11.14585 1.40000
v 96.00278 11.35106 1.40000
v 99.99722 12.64894 1.40000
v 100.05411 12.43661 1.40000
v 99.91844 12.85415 1.40000
v 99.56061 13.40517 1.40000
v 98.85415 13.91844 1.40000
v 98.64893 13.99722 1.40000
v 98.43661 14.05411 1.40000
v 96.95000 13.81865 1.40000
v 96.76566 13.69894 1.40000
v 100.08849 11.78049 1.40000
v 100.05411 11.56339 1.40000
v 99.99722 11.35106 1.40000
v 99.91844 11.14585 1.40000
v 98.43661 9.94589 1.40000
v 98.64893 10.00278 1.40000
v 99.40517 10.43940 1.40000
v 99.56061 10.59483 1.40000
v 96.43939 10.59483 1.40000
v 96.30106 10.76565 1.40000
v 100.08849 12.21951 1.40000
v 99.81865 13.05000 1.40000
v 99.69894 13.23435 1.40000
v 98.21951 14.08850 1.40000
v 98.00000 14.10000 1.40000
v 95.90000 12.00000 1.40000
v 95.91151 12.21951 1.40000
v 96.00278 12.64894 1.40000
v 95.94589 12.43661 1.40000
v 96.59483 13.56060 1.40000
v 96.43939 13.40517 1.40000
v 96.30106 13.23435 1.40000
v 97.78049 14.08850 1.40000
v 97.14585 13.91844 1.40000
v 100.10000 12.00000 1.40000
v 98.00000 9.90000 1.40000
v 98.21951 9.91150 1.40000
v 98.85415 10.08156 1.40000
v 99.05000 10.18135 1.40000
v 99.23434 10.30106 1.40000
v 99.69894 10.76565 1.40000
v 99.81865 10.95000 1.40000
v 97.56339 9.94589 1.40000
v 97.78049 9.91150 1.40000
v 96.76566 10.30106 1.40000
v 96.95000 10.18135 1.40000
v 96.59483 10.43940 1.40000
v 95.94589 11.56339 1.40000
v 95.91151 11.78049 1.40000
v 96.18135 10.95000 1.40000
v 99.15000 12.00000 1.40000
v 99.14370 11.87979 1.40000
v 99.12487 11.76090 1.40000
v 99.14370 12.12021 1.40000
v 99.09371 11.64463 1.40000
v 99.05058 11.53225 1.40000
v 99.12487 12.23910 1.40000
v 98.99593 11.42500 1.40000
v 98.93037 11.32405 1.40000
v 99.09371 12.35537 1.40000
v 98.85461 11.23050 1.40000
v 98.76950 11.14538 1.40000
v 99.05058 12.46775 1.40000
v 98.67595 11.06963 1.40000
v 98.57500 11.00407 1.40000
v 98.46774 10.94942 1.40000
v 98.35537 10.90629 1.40000
v 98.23910 10.87513 1.40000
v 98.12021 10.85630 1.40000
v 98.00000 10.85000 1.40000
v 97.87979 10.85630 1.40000
v 97.76090 10.87513 1.40000
v 97.64463 10.90629 1.40000
v 97.53226 10.94942 1.40000
v 97.42500 11.00407 1.40000
v 97.32405 11.06963 1.40000
v 97.23050 11.14538 1.40000
v 97.14539 11.23050 1.40000
v 97.06963 11.32405 1.40000
v 97.00407 11.42500 1.40000
v 96.94942 11.53225 1.40000
v 98.99593 12.57500 1.40000
v 98.93037 12.67595 1.40000
v 98.85461 12.76950 1.40000
v 98.76950 12.85462 1.40000
v 98.67595 12.93037 1.40000
v 98.57500 12.99593 1.40000
v 98.46774 13.05058 1.40000
v 98.35537 13.09371 1.40000
v 98.23910 13.12487 1.40000
v 98.12021 13.14370 1.40000
v 98.00000 13.15000 1.40000
v 97.87979 13.14370 1.40000
v 97.76090 13.12487 1.40000
v 97.64463 13.09371 1.40000
v 97.53226 13.05058 1.40000
v 97.42500 12.99593 1.40000
v 97.32405 12.93037 1.40000
v 97.23050 12.85462 1.40000
v 97.14539 12.76950 1.40000
v 97.06963 12.67595 1.40000
v 97.00407 12.57500 1.40000
v 96.94942 12.46775 1.40000
v 96.90629 12.35537 1.40000
v 96.87513 12.23910 1.40000
v 96.85630 12.12021 1.40000
v 96.85000 12.00000 1.40000
v 96.90629 11.64463 1.40000
v 96.87513 11.76090 1.40000
v 96.85630 11.87979 1.40000
v 99.14370 12.12021 1.50000
v 99.15000 12.00000 1.50000
v 96.85000 12.00000 1.50000
v 96.85630 12.12021 1.50000
v 98.12021 13.14370 1.50000
v 98.00000 13.15000 1.50000
v 98.76950 12.85462 1.50000
v 98.85461 12.76950 1.50000
v 97.32405 12.93037 1.50000
v 97.23050 12.85462 1.50000
v 97.64463 13.09371 1.50000
v 97.53226 13.05058 1.50000
v 97.14539 11.23050 1.50000
v 97.06963 11.32405 1.50000
v 99.09371 12.35537 1.50000
v 99.12487 12.23910 1.50000
v 98.57500 12.99593 1.50000
v 98.46774 13.05058 1.50000
v 98.67595 12.93037 1.50000
v 97.00407 12.57500 1.50000
v 97.06963 12.67595 1.50000
v 97.14539 12.76950 1.50000
v 97.42500 12.99593 1.50000
v 99.05058 11.53225 1.50000
v 98.99593 11.42500 1.50000
v 98.23910 10.87513 1.50000
v 98.35537 10.90629 1.50000
v 98.85461 11.23050 1.50000
v 98.76950 11.14538 1.50000
v 99.12487 11.76090 1.50000
v 99.09371 11.64463 1.50000
v 97.53226 10.94942 1.50000
v 97.64463 10.90629 1.50000
v 97.32405 11.06963 1.50000
v 97.42500 11.00407 1.50000
v 99.05058 12.46775 1.50000
v 98.99593 12.57500 1.50000
v 98.93037 12.67595 1.50000
v 98.35537 13.09371 1.50000
v 98.23910 13.12487 1.50000
v 96.94942 12.46775 1.50000
v 96.87513 12.23910 1.50000
v 96.90629 12.35537 1.50000
v 97.87979 13.14370 1.50000
v 97.76090 13.12487 1.50000
v 98.00000 10.85000 1.50000
v 98.12021 10.85630 1.50000
v 98.46774 10.94942 1.50000
v 98.57500 11.00407 1.50000
v 98.67595 11.06963 1.50000
v 98.93037 11.32405 1.50000
v 97.76090 10.87513 1.50000
v 97.87979 10.85630 1.50000
v 97.23050 11.14538 1.50000
v 97.00407 11.42500 1.50000
v 96.94942 11.53225 1.50000
v 96.90629 11.64463 1.50000
v 96.87513 11.76090 1.50000
v 96.85630 11.87979 1.50000
v 99.14370 11.87979 1.50000
v 99.40517 50.06060 1.40000
v 99.23434 50.19894 1.40000
v 97.56339 50.55411 1.40000
v 97.35107 50.49722 1.40000
v 96.08156 49.35415 1.40000
v 96.18135 49.55000 1.40000
v 99.99722 47.85107 1.40000
v 99.91844 47.64585 1.40000
v 99.81865 49.55000 1.40000
v 99.91844 49.35415 1.40000
v 99.69894 49.73435 1.40000
v 99.56061 49.90517 1.40000
v 98.85415 50.41845 1.40000
v 98.64893 50.49722 1.40000
v 98.43661 50.55411 1.40000
v 98.21951 50.58849 1.40000
v 95.91151 48.71951 1.40000
v 95.94589 48.93661 1.40000
v 96.59483 50.06060 1.40000
v 96.43939 49.90517 1.40000
v 97.78049 50.58849 1.40000
v 99.69894 47.26565 1.40000
v 99.56061 47.09483 1.40000
v 97.56339 46.44589 1.40000
v 97.78049 46.41151 1.40000
v 96.43939 47.09483 1.40000
v 96.59483 46.93940 1.40000
v 96.30106 47.26565 1.40000
v 100.05411 48.93661 1.40000
v 100.08849 48.71951 1.40000
v 99.99722 49.14893 1.40000
v 99.05000 50.31865 1.40000
v 98.00000 50.60000 1.40000
v 95.90000 48.50000 1.40000
v 99.15000 48.50000 1.40000
v 100.10000 48.50000 1.40000
v 100.08849 48.28049 1.40000
v 99.14370 48.37979 1.40000
v 100.05411 48.06339 1.40000
v 99.12487 48.26090 1.40000
v 99.14370 48.62021 1.40000
v 99.09371 48.14463 1.40000
v 99.05058 48.03225 1.40000
v 99.81865 47.45000 1.40000
v 99.12487 48.73910 1.40000
v 98.99593 47.92500 1.40000
v 98.93037 47.82405 1.40000
v 99.09371 48.85537 1.40000
v 98.85461 47.73050 1.40000
v 99.40517 46.93940 1.40000
v 98.76950 47.64539 1.40000
v 99.23434 46.80106 1.40000
v 99.05058 48.96775 1.40000
v 98.67595 47.56963 1.40000
v 99.05000 46.68135 1.40000
v 98.57500 47.50407 1.40000
v 98.85415 46.58155 1.40000
v 98.46774 47.44942 1.40000
v 98.64893 46.50278 1.40000
v 98.35537 47.40628 1.40000
v 98.43661 46.44589 1.40000
v 98.23910 47.37513 1.40000
v 98.21951 46.41151 1.40000
v 98.12021 47.35630 1.40000
v 98.00000 46.40000 1.40000
v 98.00000 47.35000 1.40000
v 97.87979 47.35630 1.40000
v 97.76090 47.37513 1.40000
v 97.64463 47.40628 1.40000
v 97.35107 46.50278 1.40000
v 97.53226 47.44942 1.40000
v 97.14585 46.58155 1.40000
v 97.42500 47.50407 1.40000
v 96.95000 46.68135 1.40000
v 97.32405 47.56963 1.40000
v 96.76566 46.80106 1.40000
v 97.23050 47.64539 1.40000
v 97.14539 47.73050 1.40000
v 97.06963 47.82405 1.40000
v 97.00407 47.92500 1.40000
v 96.18135 47.45000 1.40000
v 96.94942 48.03225 1.40000
v 98.99593 49.07500 1.40000
v 98.93037 49.17595 1.40000
v 98.85461 49.26950 1.40000
v 98.76950 49.35461 1.40000
v 98.67595 49.43037 1.40000
v 98.57500 49.49593 1.40000
v 98.46774 49.55058 1.40000
v 98.35537 49.59372 1.40000
v 98.23910 49.62487 1.40000
v 98.12021 49.64370 1.40000
v 98.00000 49.65000 1.40000
v 97.87979 49.64370 1.40000
v 97.76090 49.62487 1.40000
v 97.64463 49.59372 1.40000
v 97.53226 49.55058 1.40000
v 97.14585 50.41845 1.40000
v 97.42500 49.49593 1.40000
v 96.95000 50.31865 1.40000
v 97.32405 49.43037 1.40000
v 96.76566 50.19894 1.40000
v 97.23050 49.35461 1.40000
v 97.14539 49.26950 1.40000
v 97.06963 49.17595 1.40000
v 96.30106 49.73435 1.40000
v 97.00407 49.07500 1.40000
v 96.94942 48.96775 1.40000
v 96.90629 48.85537 1.40000
v 96.00278 49.14893 1.40000
v 96.87513 48.73910 1.40000
v 96.85630 48.62021 1.40000
v 96.85000 48.50000 1.40000
v 96.08156 47.64585 1.40000
v 96.90629 48.14463 1.40000
v 96.00278 47.85107 1.40000
v 96.87513 48.26090 1.40000
v 95.94589 48.06339 1.40000
v 96.85630 48.37979 1.40000
v 95.91151 48.28049 1.40000
v 98.76950 49.35461 1.50000
v 98.67595 49.43037 1.50000
v 99.15000 48.50000 1.50000
v 99.14370 48.37979 1.50000
v 97.64463 49.59372 1.50000
v 97.53226 49.55058 1.50000
v 96.94942 48.96775 1.50000
v 97.00407 49.07500 1.50000
v 99.05058 48.96775 1.50000
v 99.09371 48.85537 1.50000
v 99.12487 48.73910 1.50000
v 99.14370 48.62021 1.50000
v 98.99593 49.07500 1.50000
v 98.57500 49.49593 1.50000
v 98.46774 49.55058 1.50000
v 98.23910 49.62487 1.50000
v 98.12021 49.64370 1.50000
v 96.85630 48.62021 1.50000
v 96.87513 48.73910 1.50000
v 97.14539 49.26950 1.50000
v 97.23050 49.35461 1.50000
v 97.87979 49.64370 1.50000
v 97.76090 49.62487 1.50000
v 97.32405 49.43037 1.50000
v 97.76090 47.37513 1.50000
v 97.87979 47.35630 1.50000
v 97.23050 47.64539 1.50000
v 97.14539 47.73050 1.50000
v 98.85461 49.26950 1.50000
v 98.93037 49.17595 1.50000
v 98.00000 49.65000 1.50000
v 98.35537 49.59372 1.50000
v 96.85000 48.50000 1.50000
v 96.90629 48.85537 1.50000
v 97.06963 49.17595 1.50000
v 97.42500 49.49593 1.50000
v 98.00000 47.35000 1.50000
v 98.12021 47.35630 1.50000
v 98.93037 47.82405 1.50000
v 98.85461 47.73050 1.50000
v 99.05058 48.03225 1.50000
v 98.99593 47.92500 1.50000
v 98.23910 47.37513 1.50000
v 98.35537 47.40628 1.50000
v 98.67595 47.56963 1.50000
v 98.76950 47.64539 1.50000
v 98.46774 47.44942 1.50000
v 98.57500 47.50407 1.50000
v 97.53226 47.44942 1.50000
v 97.64463 47.40628 1.50000
v 97.32405 47.56963 1.50000
v 97.42500 47.50407 1.50000
v 96.90629 48.14463 1.50000
v 96.87513 48.26090 1.50000
v 96.85630 48.37979 1.50000
v 97.06963 47.82405 1.50000
v 97.00407 47.92500 1.50000
v 96.94942 48.03225 1.50000
v 99.12487 48.26090 1.50000
v 99.09371 48.14463 1.50000
v 102.50000 52.00000 1.50000
v 102.48631 52.26132 4.70000
v 102.48631 52.26132 1.50000
v 102.50000 52.00000 4.70000
v 101.01684 1.71614 1.50000
v 100.77254 1.62236 4.70000
v 101.01684 1.71614 4.70000
v 100.77254 1.62236 1.50000
v 100.00000 1.50000 1.50000
v 4.00000 1.50000 4.70000
v 100.00000 1.50000 4.70000
v 4.00000 1.50000 1.50000
v 100.51978 54.44537 1.50000
v 100.77254 54.37764 4.70000
v 100.51978 54.44537 4.70000
v 100.77254 54.37764 1.50000
v 102.50000 8.90000 2.70000
v 102.50000 8.89397 2.58502
v 102.50000 8.87596 2.47130
v 102.50000 8.84616 2.36008
v 102.50000 8.80490 2.25259
v 102.50000 8.75263 2.15000
v 102.50000 8.68992 2.05344
v 102.50000 8.61746 1.96396
v 102.50000 8.53604 1.88254
v 102.50000 8.44656 1.81008
v 102.50000 8.35000 1.74737
v 102.50000 8.24741 1.69510
v 102.50000 8.13992 1.65384
v 102.50000 8.02870 1.62404
v 102.50000 7.91498 1.60603
v 102.50000 7.80000 1.60000
v 102.50000 6.70603 2.58502
v 102.50000 4.30000 2.70000
v 102.50000 6.70000 2.70000
v 102.50000 4.29397 2.58502
v 102.50000 6.72404 2.47130
v 102.50000 4.27596 2.47130
v 102.50000 6.75384 2.36008
v 102.50000 4.24616 2.36008
v 102.50000 6.79510 2.25259
v 102.50000 4.20490 2.25259
v 102.50000 6.84737 2.15000
v 102.50000 4.00000 1.50000
v 102.50000 6.91008 2.05344
v 102.50000 6.98254 1.96396
v 102.50000 7.06396 1.88254
v 102.50000 7.15344 1.81008
v 102.50000 7.25000 1.74737
v 102.50000 7.35259 1.69510
v 102.50000 7.46008 1.65384
v 102.50000 7.57130 1.62404
v 102.50000 4.15263 2.15000
v 102.50000 7.68502 1.60603
v 102.50000 4.08992 2.05344
v 102.50000 4.01746 1.96396
v 102.50000 4.00000 1.94650
v 102.50000 8.89397 2.81498
v 102.50000 8.87596 2.92870
v 102.50000 8.84616 3.03992
v 102.50000 8.80490 3.14741
v 102.50000 8.75263 3.25000
v 102.50000 8.68992 3.34656
v 102.50000 8.61746 3.43604
v 102.50000 8.53604 3.51746
v 102.50000 8.44656 3.58992
v 102.50000 8.35000 3.65263
v 102.50000 8.24741 3.70490
v 102.50000 8.13992 3.74616
v 102.50000 8.02870 3.77596
v 102.50000 4.00000 4.70000
v 102.50000 7.91498 3.79397
v 102.50000 7.80000 3.80000
v 102.50000 6.70603 2.81498
v 102.50000 4.29397 2.81498
v 102.50000 6.72404 2.92870
v 102.50000 4.27596 2.92870
v 102.50000 6.75384 3.03992
v 102.50000 4.24616 3.03992
v 102.50000 6.79510 3.14741
v 102.50000 4.20490 3.14741
v 102.50000 6.84737 3.25000
v 102.50000 4.15263 3.25000
v 102.50000 6.91008 3.34656
v 102.50000 6.98254 3.43604
v 102.50000 7.06396 3.51746
v 102.50000 7.15344 3.58992
v 102.50000 7.25000 3.65263
v 102.50000 7.35259 3.70490
v 102.50000 7.46008 3.74616
v 102.50000 7.57130 3.77596
v 102.50000 4.08992 3.34656
v 102.50000 4.01746 3.43604
v 102.50000 4.00000 3.45350
v 102.50000 7.68502 3.79397
v 1.51369 52.26132 1.50000
v 1.51369 52.26132 4.70000
v 2.32717 53.85786 1.50000
v 2.53054 54.02254 4.70000
v 2.32717 53.85786 4.70000
v 2.53054 54.02254 1.50000
v 4.00000 54.50000 1.50000
v 100.00000 54.50000 4.70000
v 4.00000 54.50000 4.70000
v 100.00000 54.50000 1.50000
v 101.85786 2.32717 1.50000
v 102.02254 2.53054 1.82862
v 102.02254 2.53054 1.50000
v 101.96863 2.46396 1.88254
v 101.90269 2.38254 1.96396
v 101.85786 2.32717 2.03233
v 101.85786 2.32717 4.70000
v 102.02254 2.53054 3.57138
v 101.96863 2.46396 3.51746
v 101.90269 2.38254 3.43604
v 101.85786 2.32717 3.36767
v 102.02254 2.53054 4.70000
v 102.48631 3.73868 1.50000
v 102.47185 3.64741 1.69510
v 102.48631 3.73868 1.74160
v 102.45483 3.53992 1.65384
v 102.44537 3.48022 1.50000
v 102.44537 3.48022 1.63784
v 102.47185 3.64741 3.70490
v 102.48631 3.73868 4.70000
v 102.48631 3.73868 3.65840
v 102.45483 3.53992 3.74616
v 102.44537 3.48022 3.76216
v 102.44537 3.48022 4.70000
v 100.26132 1.51369 1.50000
v 100.26132 1.51369 4.70000
v 2.14214 53.67282 4.70000
v 2.14214 53.67282 1.50000
v 2.98316 54.28386 1.50000
v 3.22746 54.37764 4.70000
v 2.98316 54.28386 4.70000
v 3.22746 54.37764 1.50000
v 3.73868 1.51369 1.50000
v 3.48022 1.55463 4.70000
v 3.73868 1.51369 4.70000
v 3.48022 1.55463 1.50000
v 101.67283 2.14214 1.50000
v 101.84077 2.31008 2.05344
v 101.77806 2.24737 2.15000
v 101.72578 2.19510 2.25259
v 101.68452 2.15384 2.36008
v 101.67283 2.14214 2.40374
v 101.67283 2.14214 4.70000
v 101.84077 2.31008 3.34656
v 101.77806 2.24737 3.25000
v 101.72578 2.19510 3.14741
v 101.68452 2.15384 3.03992
v 101.67283 2.14214 2.99625
v 102.43156 3.42870 1.62404
v 102.40109 3.31498 1.60603
v 102.37764 3.22746 1.50000
v 102.37764 3.22746 1.60144
v 102.43156 3.42870 3.77596
v 102.40109 3.31498 3.79397
v 102.37764 3.22746 4.70000
v 102.37764 3.22746 3.79856
v 1.55463 52.51978 4.70000
v 1.62236 52.77254 1.50000
v 1.62236 52.77254 4.70000
v 1.55463 52.51978 1.50000
v 1.71614 53.01684 4.70000
v 1.83494 53.25000 1.50000
v 1.83494 53.25000 4.70000
v 1.71614 53.01684 1.50000
v 3.48022 54.44537 1.50000
v 3.73868 54.48631 4.70000
v 3.48022 54.44537 4.70000
v 3.73868 54.48631 1.50000
v 102.37764 52.77254 1.50000
v 102.28386 53.01684 4.70000
v 102.28386 53.01684 1.50000
v 102.37764 52.77254 4.70000
v 3.22746 1.62236 1.50000
v 2.98316 1.71614 4.70000
v 3.22746 1.62236 4.70000
v 2.98316 1.71614 1.50000
v 1.55463 3.48022 4.70000
v 1.51369 3.73868 1.50000
v 1.51369 3.73868 4.70000
v 1.55463 3.48022 1.50000
v 2.32717 2.14214 4.70000
v 2.14214 2.32717 1.50000
v 2.14214 2.32717 4.70000
v 2.32717 2.14214 1.50000
v 2.53054 1.97746 1.50000
v 2.53054 1.97746 4.70000
v 2.75000 1.83494 1.50000
v 2.75000 1.83494 4.70000
v 102.02254 53.46946 1.50000
v 101.85786 53.67282 4.70000
v 101.85786 53.67282 1.50000
v 102.02254 53.46946 4.70000
v 100.51978 1.55463 4.70000
v 100.51978 1.55463 1.50000
v 101.46946 1.97746 1.50000
v 101.25000 1.83494 4.70000
v 101.46946 1.97746 4.70000
v 101.25000 1.83494 1.50000
v 102.49665 3.93604 1.88254
v 102.49196 3.84656 1.81008
v 102.48690 3.75000 1.74737
v 102.49665 3.93604 3.51746
v 102.49196 3.84656 3.58992
v 102.48690 3.75000 3.65263
v 2.75000 54.16506 1.50000
v 2.75000 54.16506 4.70000
v 1.97746 53.46946 1.50000
v 1.97746 53.46946 4.70000
v 100.26132 54.48631 4.70000
v 100.26132 54.48631 1.50000
v 1.97746 2.53054 1.50000
v 1.97746 2.53054 4.70000
v 1.83494 2.75000 4.70000
v 1.71614 2.98316 1.50000
v 1.71614 2.98316 4.70000
v 1.83494 2.75000 1.50000
v 101.65047 2.12404 2.92870
v 101.62823 2.10603 2.81498
v 101.62079 2.10000 2.70000
v 101.62823 2.10603 2.58502
v 101.65047 2.12404 2.47130
v 102.16506 2.75000 1.69642
v 102.16506 2.75000 1.50000
v 102.10012 2.65000 1.74737
v 102.03741 2.55344 1.81008
v 102.16506 2.75000 3.70358
v 102.10012 2.65000 3.65263
v 102.03741 2.55344 3.58992
v 102.16506 2.75000 4.70000
v 102.36710 3.20000 1.60000
v 102.32296 3.08502 1.60603
v 102.28386 2.98316 1.50000
v 102.28386 2.98316 1.62216
v 102.36710 3.20000 3.80000
v 102.32296 3.08502 3.79397
v 102.28386 2.98316 4.70000
v 102.28386 2.98316 3.77784
v 102.44537 52.51978 1.50000
v 102.44537 52.51978 4.70000
v 1.62236 3.22746 4.70000
v 1.62236 3.22746 1.50000
v 56.98855 38.93965 1.50000
v 56.85039 38.42401 1.50000
v 56.65908 37.92564 1.50000
v 57.07206 39.46690 1.50000
v 57.10000 40.00000 1.50000
v 56.41673 37.45000 1.50000
v 57.07206 40.53310 1.50000
v 56.98855 41.06035 1.50000
v 56.12598 37.00230 1.50000
v 56.85039 41.57598 1.50000
v 102.16506 53.25000 1.50000
v 101.67283 53.85786 1.50000
v 101.46946 54.02254 1.50000
v 101.25000 54.16506 1.50000
v 101.01684 54.28386 1.50000
v 55.41257 43.79004 1.50000
v 56.65908 42.07436 1.50000
v 56.41673 42.55000 1.50000
v 56.12598 42.99770 1.50000
v 55.79004 43.41257 1.50000
v 54.99770 44.12598 1.50000
v 54.55000 44.41673 1.50000
v 54.07436 44.65908 1.50000
v 53.57598 44.85039 1.50000
v 53.06035 44.98855 1.50000
v 52.53310 45.07206 1.50000
v 52.00000 45.10000 1.50000
v 51.46690 45.07206 1.50000
v 46.92794 40.53310 1.50000
v 46.90000 40.00000 1.50000
v 47.01145 41.06035 1.50000
v 47.14961 41.57598 1.50000
v 47.34092 42.07436 1.50000
v 47.58327 42.55000 1.50000
v 47.87401 42.99770 1.50000
v 48.20996 43.41257 1.50000
v 48.58743 43.79004 1.50000
v 49.00230 44.12598 1.50000
v 49.45000 44.41673 1.50000
v 49.92564 44.65908 1.50000
v 50.42401 44.85039 1.50000
v 50.93965 44.98855 1.50000
v 53.06035 35.01145 1.50000
v 55.79004 36.58743 1.50000
v 55.41257 36.20996 1.50000
v 54.99770 35.87401 1.50000
v 54.55000 35.58327 1.50000
v 54.07436 35.34092 1.50000
v 53.57598 35.14961 1.50000
v 52.53310 34.92794 1.50000
v 52.00000 34.90000 1.50000
v 51.46690 34.92794 1.50000
v 50.93965 35.01145 1.50000
v 50.42401 35.14961 1.50000
v 49.92564 35.34092 1.50000
v 49.45000 35.58327 1.50000
v 49.00230 35.87401 1.50000
v 46.92794 39.46690 1.50000
v 47.01145 38.93965 1.50000
v 47.14961 38.42401 1.50000
v 47.34092 37.92564 1.50000
v 47.58327 37.45000 1.50000
v 47.87401 37.00230 1.50000
v 48.20996 36.58743 1.50000
v 48.58743 36.20996 1.50000
v 102.27782 2.97130 1.62404
v 102.22115 2.86008 1.65384
v 102.16638 2.75259 1.69510
v 102.27782 2.97130 3.77596
v 102.22115 2.86008 3.74616
v 102.16638 2.75259 3.70490
v 102.16506 53.25000 4.70000
v 101.25000 54.16506 4.70000
v 101.01684 54.28386 4.70000
v 101.67283 53.85786 4.70000
v 101.46946 54.02254 4.70000
v 0.70000 7.40000 4.80000
v 0.70000 52.80000 4.70000
v 0.70000 16.60000 4.80000
v 0.70000 3.20000 4.70000
v 103.30000 52.80000 4.70000
v 103.28630 53.06132 4.70000
v 100.80000 0.70000 4.70000
v 3.20000 0.70000 4.70000
v 103.30000 3.20000 4.70000
v 3.20000 55.30000 4.70000
v 100.80000 55.30000 4.70000
v 102.65786 1.52717 4.70000
v 102.82254 1.73054 4.70000
v 101.06132 0.71369 4.70000
v 0.71369 53.06132 4.70000
v 103.17764 2.42746 4.70000
v 103.24537 2.68022 4.70000
v 103.08386 53.81684 4.70000
v 102.96507 54.05000 4.70000
v 2.18316 0.91614 4.70000
v 1.95000 1.03494 4.70000
v 2.93868 0.71369 4.70000
v 2.42746 0.82236 4.70000
v 102.05000 1.03494 4.70000
v 101.81684 0.91614 4.70000
v 103.24537 53.31978 4.70000
v 103.17764 53.57254 4.70000
v 102.82254 54.26946 4.70000
v 103.28630 2.93868 4.70000
v 102.65786 54.47282 4.70000
v 102.47282 54.65786 4.70000
v 102.26946 54.82254 4.70000
v 102.05000 54.96507 4.70000
v 101.81684 55.08386 4.70000
v 101.57254 55.17764 4.70000
v 101.31978 55.24537 4.70000
v 101.06132 55.28630 4.70000
v 2.93868 55.28630 4.70000
v 2.68022 55.24537 4.70000
v 2.42746 55.17764 4.70000
v 2.18316 55.08386 4.70000
v 1.95000 54.96507 4.70000
v 1.73054 54.82254 4.70000
v 1.52717 54.65786 4.70000
v 1.34214 54.47282 4.70000
v 1.17746 54.26946 4.70000
v 1.03494 54.05000 4.70000
v 0.91614 53.81684 4.70000
v 0.82236 53.57254 4.70000
v 0.75463 53.31978 4.70000
v 103.08386 2.18316 4.70000
v 102.96507 1.95000 4.70000
v 102.47282 1.34214 4.70000
v 102.26946 1.17746 4.70000
v 101.57254 0.82236 4.70000
v 101.31978 0.75463 4.70000
v 2.68022 0.75463 4.70000
v 1.73054 1.17746 4.70000
v 1.52717 1.34214 4.70000
v 1.17746 1.73054 4.70000
v 0.91614 2.18316 4.70000
v 0.82236 2.42746 4.70000
v 0.71369 2.93868 4.70000
v 1.34214 1.52717 4.70000
v 1.03494 1.95000 4.70000
v 0.75463 2.68022 4.70000
v 51.16835 36.08741 0.10000
v 50.76393 36.19577 1.40000
v 51.16835 36.08741 1.40000
v 50.76393 36.19577 0.10000
v 53.62695 43.65418 0.10000
v 54.00000 43.46410 1.40000
v 53.62695 43.65418 1.40000
v 54.00000 43.46410 0.10000
v 50.00000 43.46410 0.10000
v 50.37305 43.65418 1.40000
v 50.00000 43.46410 1.40000
v 50.37305 43.65418 0.10000
v 48.19577 41.23607 1.40000
v 48.34582 41.62695 0.10000
v 48.34582 41.62695 1.40000
v 48.19577 41.23607 0.10000
v 48.76393 37.64886 1.40000
v 48.53590 38.00000 0.10000
v 48.53590 38.00000 1.40000
v 48.76393 37.64886 0.10000
v 55.91259 40.83165 0.10000
v 55.80423 41.23607 1.40000
v 55.80423 41.23607 0.10000
v 55.91259 40.83165 1.40000
v 55.65418 41.62695 1.40000
v 55.65418 41.62695 0.10000
v 54.97258 42.67652 0.10000
v 54.67652 42.97258 1.40000
v 54.67652 42.97258 0.10000
v 54.97258 42.67652 1.40000
v 53.23607 43.80423 0.10000
v 53.23607 43.80423 1.40000
v 48.02191 39.58189 1.40000
v 48.00000 40.00000 0.10000
v 48.00000 40.00000 1.40000
v 48.02191 39.58189 0.10000
v 48.53590 42.00000 1.40000
v 48.76393 42.35114 0.10000
v 48.76393 42.35114 1.40000
v 48.53590 42.00000 0.10000
v 49.02742 42.67652 1.40000
v 49.32348 42.97258 0.10000
v 49.32348 42.97258 1.40000
v 49.02742 42.67652 0.10000
v 55.23607 37.64886 0.10000
v 55.46410 38.00000 1.40000
v 55.46410 38.00000 0.10000
v 55.23607 37.64886 1.40000
v 53.62695 36.34582 0.10000
v 53.23607 36.19577 1.40000
v 53.62695 36.34582 1.40000
v 53.23607 36.19577 0.10000
v 54.97258 37.32348 0.10000
v 54.97258 37.32348 1.40000
v 55.46410 42.00000 1.40000
v 55.46410 42.00000 0.10000
v 55.23607 42.35114 1.40000
v 55.23607 42.35114 0.10000
v 54.35114 43.23607 0.10000
v 54.35114 43.23607 1.40000
v 51.58189 43.97809 0.10000
v 52.00000 44.00000 1.40000
v 51.58189 43.97809 1.40000
v 52.00000 44.00000 0.10000
v 52.41811 43.97809 0.10000
v 52.83165 43.91259 1.40000
v 52.41811 43.97809 1.40000
v 52.83165 43.91259 0.10000
v 48.02191 40.41811 1.40000
v 48.08741 40.83165 0.10000
v 48.08741 40.83165 1.40000
v 48.02191 40.41811 0.10000
v 51.16835 43.91259 0.10000
v 51.16835 43.91259 1.40000
v 50.76393 43.80423 1.40000
v 50.76393 43.80423 0.10000
v 49.64886 43.23607 0.10000
v 49.64886 43.23607 1.40000
v 56.00000 40.00000 0.10000
v 55.97809 40.41811 1.40000
v 55.97809 40.41811 0.10000
v 56.00000 40.00000 1.40000
v 52.83165 36.08741 0.10000
v 52.41811 36.02191 1.40000
v 52.83165 36.08741 1.40000
v 52.41811 36.02191 0.10000
v 55.80423 38.76393 0.10000
v 55.91259 39.16835 1.40000
v 55.91259 39.16835 0.10000
v 55.80423 38.76393 1.40000
v 54.35114 36.76393 0.10000
v 54.00000 36.53590 1.40000
v 54.35114 36.76393 1.40000
v 54.00000 36.53590 0.10000
v 54.67652 37.02742 0.10000
v 54.67652 37.02742 1.40000
v 55.65418 38.37305 0.10000
v 55.65418 38.37305 1.40000
v 52.00000 36.00000 0.10000
v 51.58189 36.02191 1.40000
v 52.00000 36.00000 1.40000
v 51.58189 36.02191 0.10000
v 50.37305 36.34582 1.40000
v 50.37305 36.34582 0.10000
v 50.00000 36.53590 0.10000
v 49.64886 36.76393 1.40000
v 50.00000 36.53590 1.40000
v 49.64886 36.76393 0.10000
v 48.34582 38.37305 1.40000
v 48.19577 38.76393 0.10000
v 48.19577 38.76393 1.40000
v 48.34582 38.37305 0.10000
v 48.08741 39.16835 1.40000
v 48.08741 39.16835 0.10000
v 49.32348 37.02742 1.40000
v 49.02742 37.32348 0.10000
v 49.02742 37.32348 1.40000
v 49.32348 37.02742 0.10000
v 55.97809 39.58189 1.40000
v 55.97809 39.58189 0.10000
v 47.01145 41.06035 1.40000
v 46.92794 40.53310 1.40000
v 56.98855 38.93965 1.40000
v 57.07206 39.46690 1.40000
v 51.46690 34.92794 1.40000
v 50.93965 35.01145 1.40000
v 54.07436 44.65908 1.40000
v 54.55000 44.41673 1.40000
v 49.45000 44.41673 1.40000
v 49.92564 44.65908 1.40000
v 47.14961 41.57598 1.40000
v 47.58327 37.45000 1.40000
v 47.87401 37.00230 1.40000
v 56.98855 41.06035 1.40000
v 56.85039 41.57598 1.40000
v 56.65908 42.07436 1.40000
v 55.79004 43.41257 1.40000
v 55.41257 43.79004 1.40000
v 53.57598 44.85039 1.40000
v 52.53310 45.07206 1.40000
v 53.06035 44.98855 1.40000
v 57.10000 40.00000 1.40000
v 57.07206 40.53310 1.40000
v 56.41673 42.55000 1.40000
v 56.12598 42.99770 1.40000
v 56.85039 38.42401 1.40000
v 54.99770 44.12598 1.40000
v 52.00000 45.10000 1.40000
v 51.46690 45.07206 1.40000
v 50.93965 44.98855 1.40000
v 50.42401 44.85039 1.40000
v 49.00230 44.12598 1.40000
v 48.58743 43.79004 1.40000
v 48.20996 43.41257 1.40000
v 47.87401 42.99770 1.40000
v 47.58327 42.55000 1.40000
v 47.34092 42.07436 1.40000
v 56.65908 37.92564 1.40000
v 56.41673 37.45000 1.40000
v 56.12598 37.00230 1.40000
v 55.79004 36.58743 1.40000
v 55.41257 36.20996 1.40000
v 54.99770 35.87401 1.40000
v 54.55000 35.58327 1.40000
v 54.07436 35.34092 1.40000
v 53.57598 35.14961 1.40000
v 53.06035 35.01145 1.40000
v 52.53310 34.92794 1.40000
v 52.00000 34.90000 1.40000
v 50.42401 35.14961 1.40000
v 49.92564 35.34092 1.40000
v 49.45000 35.58327 1.40000
v 49.00230 35.87401 1.40000
v 48.58743 36.20996 1.40000
v 48.20996 36.58743 1.40000
v 47.34092 37.92564 1.40000
v 47.14961 38.42401 1.40000
v 47.01145 38.93965 1.40000
v 46.92794 39.46690 1.40000
v 46.90000 40.00000 1.40000
v 56.85039 41.57598 0.10000
v 56.98855 41.06035 0.10000
v 57.07206 40.53310 0.10000
v 57.10000 40.00000 0.10000
v 52.00000 45.10000 0.10000
v 51.46690 45.07206 0.10000
v 55.41257 43.79004 0.10000
v 54.99770 44.12598 0.10000
v 47.87401 42.99770 0.10000
v 48.20996 43.41257 0.10000
v 49.92564 44.65908 0.10000
v 49.45000 44.41673 0.10000
v 48.58743 36.20996 0.10000
v 48.20996 36.58743 0.10000
v 56.65908 42.07436 0.10000
v 53.57598 44.85039 0.10000
v 53.06035 44.98855 0.10000
v 52.53310 45.07206 0.10000
v 47.14961 41.57598 0.10000
v 47.34092 42.07436 0.10000
v 47.58327 42.55000 0.10000
v 46.92794 40.53310 0.10000
v 47.01145 41.06035 0.10000
v 46.92794 39.46690 0.10000
v 46.90000 40.00000 0.10000
v 53.57598 35.14961 0.10000
v 54.07436 35.34092 0.10000
v 56.12598 37.00230 0.10000
v 55.79004 36.58743 0.10000
v 50.93965 35.01145 0.10000
v 51.46690 34.92794 0.10000
v 56.41673 42.55000 0.10000
v 56.12598 42.99770 0.10000
v 55.79004 43.41257 0.10000
v 54.55000 44.41673 0.10000
v 54.07436 44.65908 0.10000
v 49.00230 44.12598 0.10000
v 48.58743 43.79004 0.10000
v 50.93965 44.98855 0.10000
v 50.42401 44.85039 0.10000
v 57.07206 39.46690 0.10000
v 52.53310 34.92794 0.10000
v 53.06035 35.01145 0.10000
v 54.55000 35.58327 0.10000
v 54.99770 35.87401 0.10000
v 55.41257 36.20996 0.10000
v 56.41673 37.45000 0.10000
v 52.00000 34.90000 0.10000
v 49.45000 35.58327 0.10000
v 49.92564 35.34092 0.10000
v 49.00230 35.87401 0.10000
v 50.42401 35.14961 0.10000
v 47.87401 37.00230 0.10000
v 47.58327 37.45000 0.10000
v 47.34092 37.92564 0.10000
v 47.14961 38.42401 0.10000
v 47.01145 38.93965 0.10000
v 56.98855 38.93965 0.10000
v 56.85039 38.42401 0.10000
v 56.65908 37.92564 0.10000
v 30.00000 8.00000 1.00000
v 30.00000 28.00000 1.00000
v 74.00000 28.00000 1.00000
v 74.00000 8.00000 1.00000
v 103.00000 9.40000 4.00000
v 103.00000 8.90000 2.70000
v 103.00000 9.40000 1.40000
v 103.00000 8.89397 2.81498
v 103.00000 8.87596 2.92870
v 103.00000 8.84616 3.03992
v 103.00000 8.80490 3.14741
v 103.00000 8.75263 3.25000
v 103.00000 8.68992 3.34656
v 103.00000 8.61746 3.43604
v 103.00000 8.53604 3.51746
v 103.00000 8.44656 3.58992
v 103.00000 8.35000 3.65263
v 103.00000 8.24741 3.70490
v 103.00000 8.13992 3.74616
v 103.00000 8.02870 3.77596
v 103.00000 7.91498 3.79397
v 103.00000 7.80000 3.80000
v 103.00000 7.68502 3.79397
v 103.00000 6.70603 2.81498
v 103.00000 4.30000 2.70000
v 103.00000 6.70000 2.70000
v 103.00000 4.29397 2.81498
v 103.00000 6.72404 2.92870
v 103.00000 4.27596 2.92870
v 103.00000 6.75384 3.03992
v 103.00000 4.24616 3.03992
v 103.00000 6.79510 3.14741
v 103.00000 4.20490 3.14741
v 103.00000 6.84737 3.25000
v 103.00000 4.15263 3.25000
v 103.00000 6.91008 3.34656
v 103.00000 4.08992 3.34656
v 103.00000 6.98254 3.43604
v 103.00000 4.01746 3.43604
v 103.00000 7.06396 3.51746
v 103.00000 3.93604 3.51746
v 103.00000 7.15344 3.58992
v 103.00000 3.84656 3.58992
v 103.00000 7.25000 3.65263
v 103.00000 3.75000 3.65263
v 103.00000 7.35259 3.70490
v 103.00000 3.64741 3.70490
v 103.00000 7.46008 3.74616
v 103.00000 3.53992 3.74616
v 103.00000 7.57130 3.77596
v 103.00000 3.42870 3.77596
v 103.00000 3.31498 3.79397
v 103.00000 1.60000 4.00000
v 103.00000 2.10603 2.81498
v 103.00000 2.10000 2.70000
v 103.00000 2.12404 2.92870
v 103.00000 2.15384 3.03992
v 103.00000 2.19510 3.14741
v 103.00000 2.24737 3.25000
v 103.00000 2.31008 3.34656
v 103.00000 2.38254 3.43604
v 103.00000 2.46396 3.51746
v 103.00000 2.55344 3.58992
v 103.00000 2.65000 3.65263
v 103.00000 2.75259 3.70490
v 103.00000 2.86008 3.74616
v 103.00000 2.97130 3.77596
v 103.00000 3.08502 3.79397
v 103.00000 3.20000 3.80000
v 103.00000 8.89397 2.58502
v 103.00000 8.87596 2.47130
v 103.00000 8.84616 2.36008
v 103.00000 8.80490 2.25259
v 103.00000 8.75263 2.15000
v 103.00000 8.68992 2.05344
v 103.00000 8.61746 1.96396
v 103.00000 8.53604 1.88254
v 103.00000 8.44656 1.81008
v 103.00000 8.35000 1.74737
v 103.00000 8.24741 1.69510
v 103.00000 8.13992 1.65384
v 103.00000 8.02870 1.62404
v 103.00000 7.91498 1.60603
v 103.00000 7.80000 1.60000
v 103.00000 7.68502 1.60603
v 103.00000 6.70603 2.58502
v 103.00000 4.29397 2.58502
v 103.00000 6.72404 2.47130
v 103.00000 4.27596 2.47130
v 103.00000 6.75384 2.36008
v 103.00000 4.24616 2.36008
v 103.00000 6.79510 2.25259
v 103.00000 4.20490 2.25259
v 103.00000 6.84737 2.15000
v 103.00000 4.15263 2.15000
v 103.00000 6.91008 2.05344
v 103.00000 4.08992 2.05344
v 103.00000 6.98254 1.96396
v 103.00000 4.01746 1.96396
v 103.00000 7.06396 1.88254
v 103.00000 3.93604 1.88254
v 103.00000 7.15344 1.81008
v 103.00000 3.84656 1.81008
v 103.00000 7.25000 1.74737
v 103.00000 3.75000 1.74737
v 103.00000 7.35259 1.69510
v 103.00000 3.64741 1.69510
v 103.00000 7.46008 1.65384
v 103.00000 3.53992 1.65384
v 103.00000 7.57130 1.62404
v 103.00000 3.42870 1.62404
v 103.00000 3.31498 1.60603
v 103.00000 1.60000 1.40000
v 103.00000 3.20000 1.60000
v 103.00000 2.10603 2.58502
v 103.00000 2.12404 2.47130
v 103.00000 3.08502 1.60603
v 103.00000 2.97130 1.62404
v 103.00000 2.86008 1.65384
v 103.00000 2.75259 1.69510
v 103.00000 2.65000 1.74737
v 103.00000 2.55344 1.81008
v 103.00000 2.46396 1.88254
v 103.00000 2.38254 1.96396
v 103.00000 2.31008 2.05344
v 103.00000 2.24737 2.15000
v 103.00000 2.19510 2.25259
v 103.00000 2.15384 2.36008
f 1 2 3
f 2 1 4
f 5 6 7
f 6 5 8
f 9 10 11
f 10 9 12
f 13 14 15
f 14 13 16
f 14 17 15
f 17 14 18
f 3 15 17
f 15 3 13
f 19 3 2
f 3 19 13
f 16 1 14
f 20 1 16
f 1 20 4
f 14 1 18
f 20 13 19
f 13 20 16
f 20 2 4
f 2 20 19
f 21 22 23
f 22 21 24
f 22 25 23
f 25 22 26
f 24 5 22
f 27 5 24
f 5 27 8
f 22 5 26
f 7 23 25
f 23 7 21
f 28 7 6
f 7 28 21
f 27 21 28
f 21 27 24
f 27 6 8
f 6 27 28
f 29 30 31
f 30 29 32
f 33 34 35
f 34 33 36
f 29 37 32
f 38 37 29
f 37 38 39
f 40 32 37
f 41 40 42
f 40 41 32
f 43 44 45
f 46 44 47
f 44 48 49
f 44 50 48
f 44 51 50
f 44 52 51
f 44 43 47
f 44 46 52
f 53 29 31
f 29 54 38
f 55 31 56
f 57 38 54
f 58 56 59
f 60 38 57
f 61 59 62
f 38 60 63
f 64 62 65
f 66 63 60
f 67 65 68
f 63 66 69
f 70 69 66
f 29 53 54
f 31 55 53
f 71 68 72
f 56 58 55
f 59 61 58
f 71 72 73
f 62 64 61
f 65 67 64
f 74 73 75
f 68 71 67
f 76 75 77
f 73 74 71
f 75 76 74
f 78 77 79
f 77 78 76
f 80 79 81
f 79 80 78
f 82 81 83
f 81 82 80
f 83 84 82
f 85 84 83
f 85 86 84
f 35 86 85
f 35 87 86
f 35 88 87
f 34 88 35
f 34 89 88
f 90 89 34
f 90 91 89
f 92 91 90
f 91 92 93
f 94 93 92
f 93 94 95
f 96 95 94
f 95 96 97
f 98 97 96
f 97 98 99
f 100 99 98
f 99 100 101
f 102 101 100
f 101 102 103
f 104 103 102
f 105 103 104
f 103 105 106
f 107 106 105
f 106 107 108
f 109 108 107
f 108 109 110
f 111 110 109
f 110 111 112
f 113 112 111
f 112 113 114
f 115 114 113
f 114 115 116
f 117 116 115
f 116 117 118
f 119 118 117
f 118 119 120
f 69 70 121
f 122 121 70
f 121 122 123
f 124 123 122
f 123 124 125
f 126 125 124
f 125 126 127
f 128 127 126
f 127 128 129
f 129 128 130
f 131 130 128
f 130 131 132
f 133 132 131
f 132 133 134
f 135 134 133
f 134 135 136
f 137 136 135
f 136 137 138
f 139 138 137
f 138 139 140
f 141 140 139
f 141 142 140
f 143 142 141
f 143 144 142
f 145 144 143
f 146 144 145
f 146 147 144
f 148 147 146
f 148 149 147
f 150 149 148
f 151 150 152
f 150 151 149
f 153 152 154
f 152 153 151
f 155 154 156
f 154 155 153
f 157 156 158
f 159 158 160
f 156 157 155
f 161 160 162
f 158 159 157
f 49 162 163
f 49 163 164
f 160 161 159
f 49 164 165
f 49 165 166
f 162 167 161
f 49 166 168
f 49 168 169
f 49 169 44
f 162 49 167
f 170 144 147
f 144 170 171
f 172 173 117
f 174 173 172
f 173 174 175
f 47 175 174
f 175 47 43
f 117 173 119
f 176 167 177
f 167 176 161
f 178 102 100
f 102 178 179
f 180 35 85
f 35 180 33
f 181 79 77
f 79 181 182
f 65 183 68
f 183 65 184
f 185 147 149
f 147 185 170
f 186 136 138
f 136 186 187
f 171 142 144
f 142 171 188
f 189 47 174
f 47 189 46
f 177 49 190
f 49 177 167
f 191 105 192
f 105 191 107
f 172 115 193
f 115 172 117
f 56 194 59
f 194 56 195
f 123 196 197
f 198 196 125
f 125 196 123
f 199 200 201
f 199 198 200
f 196 198 199
f 202 96 94
f 96 202 203
f 36 90 34
f 90 36 204
f 204 92 90
f 92 204 205
f 62 184 65
f 184 62 206
f 72 207 73
f 207 72 208
f 209 155 157
f 155 209 210
f 210 153 155
f 153 210 211
f 211 151 153
f 151 211 212
f 213 157 159
f 157 213 209
f 214 52 215
f 52 214 51
f 215 46 189
f 46 215 52
f 203 98 96
f 98 203 216
f 217 109 218
f 109 217 111
f 218 107 191
f 107 218 109
f 201 219 220
f 219 201 200
f 123 221 121
f 221 123 197
f 220 222 223
f 222 220 219
f 121 224 69
f 224 121 221
f 129 225 127
f 225 129 226
f 127 198 125
f 198 127 225
f 187 134 136
f 134 187 227
f 228 130 132
f 130 228 229
f 205 94 92
f 94 205 202
f 230 83 81
f 83 230 231
f 182 81 79
f 81 182 230
f 59 206 62
f 206 59 194
f 68 208 72
f 208 68 183
f 212 149 151
f 149 212 185
f 176 159 161
f 159 176 213
f 232 138 140
f 138 232 186
f 233 50 234
f 50 233 48
f 216 100 98
f 100 216 178
f 192 104 235
f 104 192 105
f 179 104 102
f 104 179 235
f 193 113 236
f 113 193 115
f 236 111 217
f 111 236 113
f 223 237 238
f 237 223 222
f 69 239 63
f 239 69 224
f 227 132 134
f 132 227 228
f 231 85 83
f 85 231 180
f 240 77 75
f 77 240 181
f 207 75 73
f 75 207 240
f 31 195 56
f 195 31 30
f 188 140 142
f 140 188 232
f 190 48 233
f 48 190 49
f 241 242 243
f 241 244 242
f 241 245 244
f 241 246 245
f 241 247 246
f 241 248 247
f 241 249 248
f 241 250 249
f 241 251 250
f 241 252 251
f 241 253 252
f 241 254 253
f 241 255 254
f 241 256 255
f 241 257 256
f 258 257 241
f 257 258 259
f 260 258 261
f 262 258 260
f 263 258 262
f 264 258 263
f 265 258 264
f 266 258 265
f 267 258 266
f 268 258 267
f 269 258 268
f 270 258 269
f 271 258 270
f 272 258 271
f 273 258 272
f 259 258 273
f 274 41 275
f 32 276 277
f 41 274 32
f 32 278 276
f 279 32 274
f 32 280 278
f 281 32 279
f 32 282 280
f 283 32 281
f 32 283 282
f 284 283 281
f 284 285 283
f 286 285 284
f 286 287 285
f 288 287 286
f 288 289 287
f 290 289 288
f 290 291 289
f 292 291 290
f 292 293 291
f 294 293 292
f 294 295 293
f 296 295 294
f 296 297 295
f 298 297 296
f 298 299 297
f 300 299 298
f 300 301 299
f 302 301 300
f 302 303 301
f 304 303 302
f 304 305 303
f 306 305 304
f 306 307 305
f 308 307 306
f 308 309 307
f 241 308 310
f 308 241 309
f 241 310 311
f 309 241 312
f 241 311 313
f 312 241 314
f 241 313 315
f 314 241 316
f 241 315 317
f 316 241 318
f 241 317 319
f 318 241 320
f 241 319 321
f 320 241 322
f 241 321 323
f 322 241 324
f 325 323 326
f 324 241 327
f 325 326 328
f 327 241 329
f 325 328 330
f 329 241 331
f 325 330 332
f 331 241 333
f 171 41 237
f 334 41 335
f 171 237 222
f 275 41 334
f 171 222 219
f 336 32 277
f 171 219 200
f 337 32 336
f 171 200 198
f 338 32 337
f 171 198 225
f 339 32 338
f 171 225 226
f 340 32 339
f 171 226 229
f 341 32 340
f 171 229 228
f 342 32 341
f 171 228 227
f 343 32 342
f 171 227 187
f 344 32 343
f 171 187 186
f 32 344 30
f 171 186 232
f 30 344 195
f 171 232 188
f 195 344 194
f 41 171 345
f 194 344 206
f 206 344 184
f 41 346 335
f 41 347 346
f 41 348 347
f 41 349 348
f 41 350 349
f 41 351 350
f 41 352 351
f 41 353 352
f 41 354 353
f 41 355 354
f 41 356 355
f 41 357 356
f 41 345 357
f 171 358 345
f 171 359 358
f 171 360 359
f 171 361 360
f 171 362 361
f 171 363 362
f 171 364 363
f 171 365 364
f 171 366 365
f 325 366 171
f 366 325 367
f 367 325 368
f 368 325 369
f 323 325 241
f 370 325 332
f 371 325 370
f 372 325 371
f 373 325 372
f 369 325 373
f 171 374 325
f 174 374 170
f 170 374 171
f 184 344 183
f 183 344 208
f 208 344 207
f 207 344 240
f 240 344 181
f 181 344 182
f 182 344 230
f 230 344 231
f 231 344 180
f 180 344 33
f 375 33 344
f 376 33 375
f 377 33 376
f 378 33 377
f 379 33 378
f 380 33 379
f 381 33 380
f 382 33 381
f 383 33 382
f 384 33 383
f 385 33 384
f 386 33 385
f 387 33 386
f 388 33 387
f 389 388 390
f 333 241 391
f 392 391 241
f 393 391 392
f 391 393 394
f 394 393 395
f 396 395 393
f 395 396 397
f 398 397 396
f 399 241 243
f 400 241 399
f 392 241 400
f 397 398 401
f 402 401 398
f 401 402 403
f 404 403 402
f 403 404 390
f 389 390 404
f 388 389 33
f 405 33 389
f 406 33 405
f 407 33 406
f 408 33 407
f 409 33 408
f 410 33 409
f 36 410 411
f 36 411 412
f 258 413 261
f 258 414 413
f 258 415 414
f 36 415 258
f 415 36 416
f 416 36 417
f 417 36 418
f 418 36 419
f 410 36 33
f 420 36 412
f 421 36 420
f 422 36 421
f 423 36 422
f 424 36 423
f 419 36 424
f 374 174 258
f 174 170 185
f 172 258 174
f 174 185 212
f 258 172 36
f 174 212 211
f 36 172 204
f 174 211 210
f 204 172 205
f 174 210 209
f 205 172 202
f 174 209 213
f 202 172 203
f 174 213 176
f 203 172 216
f 174 176 177
f 216 172 178
f 174 177 190
f 178 172 179
f 174 190 233
f 179 172 235
f 174 233 234
f 235 172 192
f 174 234 214
f 192 172 191
f 174 214 215
f 191 172 218
f 174 215 189
f 218 172 217
f 217 172 236
f 236 172 193
f 234 51 214
f 51 234 50
f 238 41 42
f 41 238 237
f 63 39 38
f 39 63 239
f 130 226 129
f 226 130 229
f 243 425 399
f 425 243 426
f 427 411 410
f 411 427 428
f 429 256 257
f 256 429 430
f 431 389 404
f 389 431 432
f 433 419 434
f 419 433 418
f 435 422 421
f 422 435 436
f 437 263 438
f 263 437 264
f 393 439 396
f 439 393 440
f 441 408 407
f 408 441 442
f 443 416 444
f 416 443 415
f 444 417 445
f 417 444 416
f 446 414 447
f 414 446 413
f 448 420 412
f 420 448 449
f 450 253 254
f 253 450 451
f 249 452 248
f 452 249 453
f 246 454 245
f 454 246 455
f 244 456 242
f 456 244 457
f 458 273 272
f 273 458 459
f 459 259 273
f 259 459 460
f 461 269 268
f 269 461 462
f 461 267 463
f 267 461 268
f 464 260 465
f 260 464 262
f 400 466 392
f 466 400 467
f 399 467 400
f 467 399 425
f 392 440 393
f 440 392 466
f 398 468 402
f 468 398 469
f 402 431 404
f 431 402 468
f 396 469 398
f 469 396 439
f 442 409 408
f 409 442 470
f 470 410 409
f 410 470 427
f 471 406 405
f 406 471 472
f 472 407 406
f 407 472 441
f 432 405 389
f 405 432 471
f 473 426 456
f 474 456 457
f 426 473 425
f 475 457 454
f 476 425 473
f 477 454 455
f 425 476 467
f 478 455 479
f 480 467 476
f 467 480 466
f 456 474 473
f 481 479 452
f 457 475 474
f 454 477 475
f 455 478 477
f 482 452 453
f 479 481 478
f 483 453 484
f 452 482 481
f 453 483 482
f 485 484 486
f 484 485 483
f 487 486 488
f 486 487 485
f 488 489 487
f 451 489 488
f 451 490 489
f 450 490 451
f 450 491 490
f 492 491 450
f 492 493 491
f 430 493 492
f 430 494 493
f 429 494 430
f 429 495 494
f 429 496 495
f 460 496 429
f 460 497 496
f 459 497 460
f 459 498 497
f 458 498 459
f 458 499 498
f 500 499 458
f 500 501 499
f 502 501 500
f 501 502 503
f 462 503 502
f 503 462 504
f 461 504 462
f 504 461 505
f 463 505 461
f 505 463 506
f 507 506 463
f 506 507 508
f 509 508 507
f 508 509 510
f 437 510 509
f 510 437 511
f 438 511 437
f 511 438 512
f 513 466 480
f 466 513 440
f 514 440 513
f 440 514 439
f 515 439 514
f 439 515 469
f 516 469 515
f 469 516 468
f 517 468 516
f 468 517 431
f 518 431 517
f 431 518 432
f 519 432 518
f 432 519 471
f 520 471 519
f 520 472 471
f 521 472 520
f 521 441 472
f 522 441 521
f 522 442 441
f 523 442 522
f 523 470 442
f 524 470 523
f 525 470 524
f 525 427 470
f 526 427 525
f 526 428 427
f 527 428 526
f 527 448 428
f 528 448 527
f 528 449 448
f 529 449 528
f 529 435 449
f 530 435 529
f 436 530 531
f 530 436 435
f 532 531 533
f 531 532 436
f 534 533 535
f 434 535 536
f 533 534 532
f 433 536 537
f 535 434 534
f 445 537 538
f 444 538 539
f 443 539 540
f 536 433 434
f 447 540 541
f 446 541 542
f 464 512 438
f 537 445 433
f 512 464 543
f 538 444 445
f 465 543 464
f 539 443 444
f 543 465 542
f 540 447 443
f 544 542 465
f 541 446 447
f 542 544 446
f 447 415 443
f 415 447 414
f 544 413 446
f 413 544 261
f 532 424 423
f 424 532 534
f 434 424 534
f 424 434 419
f 428 412 411
f 412 428 448
f 430 255 256
f 255 430 492
f 488 251 252
f 251 488 486
f 250 453 249
f 453 250 484
f 486 250 251
f 250 486 484
f 248 479 247
f 479 248 452
f 247 455 246
f 455 247 479
f 462 270 269
f 270 462 502
f 502 271 270
f 271 502 500
f 500 272 271
f 272 500 458
f 460 257 259
f 257 460 429
f 507 265 509
f 265 507 266
f 445 418 433
f 418 445 417
f 465 261 544
f 261 465 260
f 436 423 422
f 423 436 532
f 449 421 420
f 421 449 435
f 242 426 243
f 426 242 456
f 492 254 255
f 254 492 450
f 451 252 253
f 252 451 488
f 245 457 244
f 457 245 454
f 463 266 507
f 266 463 267
f 509 264 437
f 264 509 265
f 438 262 464
f 262 438 263
f 290 545 546
f 545 290 288
f 362 547 548
f 547 362 363
f 292 546 549
f 546 292 290
f 308 550 551
f 550 308 306
f 552 321 553
f 321 552 323
f 554 372 555
f 372 554 373
f 275 556 274
f 556 275 557
f 274 558 279
f 558 274 556
f 288 559 545
f 559 288 286
f 294 549 560
f 549 294 292
f 298 561 562
f 561 298 296
f 313 563 564
f 563 313 311
f 347 565 346
f 565 347 566
f 349 567 348
f 567 349 568
f 357 569 570
f 569 357 345
f 352 571 572
f 571 352 353
f 573 368 574
f 368 573 367
f 334 557 275
f 557 334 575
f 279 576 281
f 576 279 558
f 281 577 284
f 577 281 576
f 284 559 286
f 559 284 577
f 302 578 579
f 578 302 300
f 296 560 561
f 560 296 294
f 300 562 578
f 562 300 298
f 580 330 581
f 330 580 332
f 582 323 552
f 323 582 326
f 583 326 582
f 326 583 328
f 581 328 583
f 328 581 330
f 317 584 585
f 584 317 315
f 586 317 585
f 317 586 319
f 304 579 587
f 579 304 302
f 306 587 550
f 587 306 304
f 310 551 588
f 551 310 308
f 311 588 563
f 588 311 310
f 315 564 584
f 564 315 313
f 335 575 334
f 575 335 589
f 358 590 591
f 590 358 359
f 348 566 347
f 566 348 567
f 345 591 569
f 591 345 358
f 355 592 593
f 592 355 356
f 353 594 571
f 594 353 354
f 352 595 351
f 595 352 572
f 350 568 349
f 568 350 596
f 360 597 598
f 597 360 361
f 359 598 590
f 598 359 360
f 364 599 600
f 599 364 365
f 366 573 601
f 573 366 367
f 555 371 602
f 371 555 372
f 603 332 580
f 332 603 370
f 604 373 554
f 373 604 369
f 574 369 604
f 369 574 368
f 605 589 565
f 606 565 566
f 589 605 575
f 607 566 567
f 608 575 605
f 609 567 568
f 575 608 557
f 610 568 596
f 611 557 608
f 612 596 595
f 557 611 556
f 613 595 572
f 614 556 611
f 615 572 571
f 556 614 558
f 616 571 594
f 617 558 614
f 558 617 576
f 565 606 605
f 566 607 606
f 567 609 607
f 568 610 609
f 618 594 593
f 596 612 610
f 595 613 612
f 572 615 613
f 619 593 592
f 571 616 615
f 594 618 616
f 620 592 570
f 593 619 618
f 592 620 619
f 621 570 569
f 570 621 620
f 569 622 621
f 591 622 569
f 591 623 622
f 590 623 591
f 590 624 623
f 590 625 624
f 598 625 590
f 598 626 625
f 597 626 598
f 626 597 627
f 548 627 597
f 627 548 628
f 547 628 548
f 628 547 629
f 600 629 547
f 629 600 630
f 599 630 600
f 630 599 631
f 601 631 599
f 631 601 632
f 573 632 601
f 632 573 633
f 574 633 573
f 633 574 634
f 634 604 635
f 604 634 574
f 636 576 617
f 576 636 577
f 637 577 636
f 577 637 559
f 638 559 637
f 559 638 545
f 639 545 638
f 545 639 546
f 640 546 639
f 546 640 549
f 641 549 640
f 549 641 560
f 642 560 641
f 560 642 561
f 643 561 642
f 561 643 562
f 644 562 643
f 644 578 562
f 645 578 644
f 646 578 645
f 646 579 578
f 647 579 646
f 647 587 579
f 648 587 647
f 550 648 649
f 648 550 587
f 551 649 650
f 588 650 651
f 649 551 550
f 563 651 652
f 564 652 653
f 650 588 551
f 584 653 654
f 585 654 655
f 586 655 656
f 651 563 588
f 553 656 657
f 552 657 658
f 582 658 659
f 583 659 660
f 652 564 563
f 581 660 661
f 554 635 604
f 635 554 662
f 653 584 564
f 555 662 554
f 654 585 584
f 662 555 663
f 655 586 585
f 602 663 555
f 656 553 586
f 663 602 664
f 657 552 553
f 603 664 602
f 658 582 552
f 664 603 661
f 659 583 582
f 580 661 603
f 660 581 583
f 661 580 581
f 553 319 586
f 319 553 321
f 356 570 592
f 570 356 357
f 354 593 594
f 593 354 355
f 351 596 350
f 596 351 595
f 361 548 597
f 548 361 362
f 365 601 599
f 601 365 366
f 363 600 547
f 600 363 364
f 602 370 603
f 370 602 371
f 346 589 335
f 589 346 565
f 605 665 608
f 665 605 666
f 667 660 668
f 660 667 661
f 646 669 670
f 669 646 645
f 638 671 639
f 671 638 672
f 653 673 674
f 673 653 652
f 650 675 676
f 675 650 649
f 677 633 678
f 633 677 632
f 611 679 614
f 679 611 680
f 608 680 611
f 680 608 665
f 642 681 682
f 681 642 641
f 640 671 683
f 671 640 639
f 684 655 685
f 655 684 656
f 685 654 686
f 654 685 655
f 652 687 673
f 687 652 651
f 612 688 610
f 688 612 689
f 621 690 691
f 690 621 622
f 616 692 615
f 692 616 693
f 609 694 607
f 694 609 695
f 627 696 697
f 696 627 628
f 629 698 699
f 698 629 630
f 614 700 617
f 700 614 679
f 617 701 636
f 701 617 700
f 636 702 637
f 702 636 701
f 644 703 704
f 703 644 643
f 705 656 684
f 656 705 657
f 706 658 707
f 658 706 659
f 647 670 708
f 670 647 646
f 648 708 709
f 708 648 647
f 623 710 711
f 710 623 624
f 622 711 690
f 711 622 623
f 619 712 713
f 712 619 620
f 616 714 693
f 714 616 618
f 615 715 613
f 715 615 692
f 613 689 612
f 689 613 715
f 625 716 717
f 716 625 626
f 718 632 677
f 632 718 631
f 624 717 710
f 717 624 625
f 630 718 698
f 718 630 631
f 719 635 720
f 635 719 634
f 721 663 722
f 663 721 662
f 723 661 667
f 661 723 664
f 637 672 638
f 672 637 702
f 645 704 669
f 704 645 644
f 643 682 703
f 682 643 642
f 641 683 681
f 683 641 640
f 686 653 674
f 653 686 654
f 668 659 706
f 659 668 660
f 707 657 705
f 657 707 658
f 651 676 687
f 676 651 650
f 649 709 675
f 709 649 648
f 620 691 712
f 691 620 621
f 618 713 714
f 713 618 619
f 610 695 609
f 695 610 688
f 607 724 606
f 724 607 694
f 606 666 605
f 666 606 724
f 626 697 716
f 697 626 627
f 628 699 696
f 699 628 629
f 678 634 719
f 634 678 633
f 722 664 723
f 664 722 663
f 720 662 721
f 662 720 635
f 344 725 726
f 725 344 343
f 383 727 728
f 727 383 382
f 729 403 730
f 403 729 401
f 282 731 280
f 731 282 732
f 339 733 340
f 733 339 734
f 340 735 341
f 735 340 733
f 343 736 725
f 736 343 342
f 377 737 738
f 737 377 376
f 379 739 740
f 739 379 378
f 741 395 742
f 395 741 394
f 388 743 744
f 743 388 387
f 382 745 727
f 745 382 381
f 287 746 285
f 746 287 747
f 305 748 749
f 748 305 307
f 318 750 751
f 750 318 320
f 750 322 752
f 322 750 320
f 336 753 337
f 753 336 754
f 337 755 338
f 755 337 753
f 338 734 339
f 734 338 755
f 341 736 342
f 736 341 735
f 375 726 756
f 726 375 344
f 380 740 757
f 740 380 379
f 376 756 737
f 756 376 375
f 378 738 739
f 738 378 377
f 758 394 741
f 394 758 391
f 759 760 761
f 762 761 763
f 760 759 754
f 764 763 731
f 765 754 759
f 766 731 732
f 754 765 753
f 767 732 768
f 769 753 765
f 770 768 746
f 753 769 755
f 771 746 747
f 772 755 769
f 773 747 774
f 755 772 734
f 775 774 776
f 777 734 772
f 734 777 733
f 761 762 759
f 763 764 762
f 731 766 764
f 732 767 766
f 778 776 779
f 768 770 767
f 746 771 770
f 747 773 771
f 780 779 781
f 774 775 773
f 776 778 775
f 782 781 783
f 779 780 778
f 781 782 780
f 784 783 785
f 783 784 782
f 785 786 784
f 787 786 785
f 787 788 786
f 789 788 787
f 789 790 788
f 789 791 790
f 749 791 789
f 749 792 791
f 748 792 749
f 792 748 793
f 794 793 748
f 793 794 795
f 796 795 794
f 795 796 797
f 798 797 796
f 797 798 799
f 800 799 798
f 799 800 801
f 751 801 800
f 801 751 802
f 750 802 751
f 802 750 803
f 752 803 750
f 803 752 804
f 804 805 806
f 805 804 752
f 807 733 777
f 733 807 735
f 808 735 807
f 735 808 736
f 809 736 808
f 736 809 725
f 810 725 809
f 725 810 726
f 811 726 810
f 726 811 756
f 812 756 811
f 756 812 737
f 813 737 812
f 737 813 738
f 814 738 813
f 738 814 739
f 815 739 814
f 815 740 739
f 816 740 815
f 817 740 816
f 817 757 740
f 818 757 817
f 818 745 757
f 819 745 818
f 727 819 820
f 819 727 745
f 728 820 821
f 822 821 823
f 820 728 727
f 824 823 825
f 826 825 827
f 821 822 728
f 743 827 828
f 744 828 829
f 830 829 831
f 823 824 822
f 730 831 832
f 729 832 833
f 834 833 835
f 742 835 836
f 825 826 824
f 741 836 837
f 838 806 805
f 806 838 839
f 827 743 826
f 840 839 838
f 828 744 743
f 839 840 841
f 829 830 744
f 842 841 840
f 831 730 830
f 841 842 843
f 832 729 730
f 844 843 842
f 833 834 729
f 843 844 837
f 835 742 834
f 758 837 844
f 836 741 742
f 837 758 741
f 834 401 729
f 401 834 397
f 742 397 834
f 397 742 395
f 730 390 830
f 390 730 403
f 830 388 744
f 388 830 390
f 381 757 745
f 757 381 380
f 385 822 824
f 822 385 384
f 386 824 826
f 824 386 385
f 384 728 822
f 728 384 383
f 387 826 743
f 826 387 386
f 277 754 336
f 754 277 760
f 301 789 787
f 789 301 303
f 280 763 278
f 763 280 731
f 297 785 783
f 785 297 299
f 289 776 774
f 776 289 291
f 293 781 779
f 781 293 295
f 283 732 282
f 732 283 768
f 309 796 794
f 796 309 312
f 314 800 798
f 800 314 316
f 840 331 842
f 331 840 329
f 844 391 758
f 391 844 333
f 752 324 805
f 324 752 322
f 805 327 838
f 327 805 324
f 838 329 840
f 329 838 327
f 278 761 276
f 761 278 763
f 299 787 785
f 787 299 301
f 295 783 781
f 783 295 297
f 287 774 747
f 774 287 289
f 291 779 776
f 779 291 293
f 285 768 283
f 768 285 746
f 303 749 789
f 749 303 305
f 307 794 748
f 794 307 309
f 312 798 796
f 798 312 314
f 316 751 800
f 751 316 318
f 842 333 844
f 333 842 331
f 276 760 277
f 760 276 761
f 811 845 846
f 845 811 810
f 762 847 759
f 847 762 848
f 821 849 850
f 849 821 820
f 851 831 852
f 831 851 832
f 772 853 777
f 853 772 854
f 765 855 769
f 855 765 856
f 777 857 807
f 857 777 853
f 813 858 859
f 858 813 812
f 816 860 861
f 860 816 815
f 862 835 863
f 835 862 836
f 864 827 865
f 827 864 828
f 819 866 867
f 866 819 818
f 827 868 865
f 868 827 825
f 791 869 870
f 869 791 792
f 871 802 872
f 802 871 801
f 769 854 772
f 854 769 855
f 808 873 809
f 873 808 874
f 807 874 808
f 874 807 857
f 809 845 810
f 845 809 873
f 817 861 875
f 861 817 816
f 812 846 858
f 846 812 811
f 814 859 876
f 859 814 813
f 815 876 860
f 876 815 814
f 877 836 862
f 836 877 837
f 878 832 851
f 832 878 833
f 863 833 878
f 833 863 835
f 852 829 879
f 829 852 831
f 879 828 864
f 828 879 829
f 820 867 849
f 867 820 819
f 818 875 866
f 875 818 817
f 825 880 868
f 880 825 823
f 823 850 880
f 850 823 821
f 759 856 765
f 856 759 847
f 788 881 882
f 881 788 790
f 773 883 771
f 883 773 884
f 770 885 767
f 885 770 886
f 784 887 888
f 887 784 786
f 775 889 890
f 889 775 778
f 780 891 892
f 891 780 782
f 793 893 894
f 893 793 795
f 797 895 896
f 895 797 799
f 897 841 898
f 841 897 839
f 899 837 877
f 837 899 843
f 872 803 900
f 803 872 802
f 901 806 902
f 806 901 804
f 764 848 762
f 848 764 903
f 771 886 770
f 886 771 883
f 786 882 887
f 882 786 788
f 782 888 891
f 888 782 784
f 775 884 773
f 884 775 890
f 778 892 889
f 892 778 780
f 790 870 881
f 870 790 791
f 792 894 869
f 894 792 793
f 795 896 893
f 896 795 797
f 799 871 895
f 871 799 801
f 902 839 897
f 839 902 806
f 898 843 899
f 843 898 841
f 900 804 901
f 804 900 803
f 767 904 766
f 904 767 885
f 766 903 764
f 903 766 904
f 905 906 907
f 906 905 908
f 909 910 911
f 910 909 912
f 913 914 915
f 914 913 916
f 917 918 919
f 918 917 920
f 905 921 908
f 905 922 921
f 905 923 922
f 905 924 923
f 905 925 924
f 905 926 925
f 905 927 926
f 905 928 927
f 905 929 928
f 905 930 929
f 905 931 930
f 905 932 931
f 905 933 932
f 905 934 933
f 905 935 934
f 905 936 935
f 937 938 939
f 940 937 941
f 942 941 943
f 944 943 945
f 946 945 947
f 948 947 949
f 948 949 950
f 948 950 951
f 948 951 952
f 948 952 953
f 948 953 954
f 948 954 955
f 937 940 938
f 941 942 940
f 948 955 956
f 943 944 942
f 945 946 944
f 947 948 957
f 948 956 958
f 947 957 946
f 957 948 959
f 948 936 905
f 948 958 936
f 959 948 960
f 960 948 961
f 962 908 921
f 963 908 962
f 964 908 963
f 965 908 964
f 966 908 965
f 967 908 966
f 968 908 967
f 969 908 968
f 970 908 969
f 971 908 970
f 972 908 971
f 973 908 972
f 974 908 973
f 975 974 976
f 975 976 977
f 938 978 939
f 979 978 938
f 978 979 980
f 981 980 979
f 980 981 982
f 983 982 981
f 982 983 984
f 985 984 983
f 984 985 986
f 987 986 985
f 975 986 987
f 986 975 988
f 988 975 989
f 989 975 990
f 990 975 991
f 991 975 992
f 992 975 993
f 993 975 994
f 994 975 995
f 975 987 996
f 975 996 997
f 975 997 998
f 974 975 908
f 999 975 977
f 995 975 999
f 5 25 26
f 25 5 7
f 1 17 18
f 17 1 3
f 11 1000 1001
f 1000 11 10
f 1002 1003 1004
f 1003 1002 1005
f 1006 1007 1008
f 1007 1006 1009
f 1010 1011 1012
f 1011 1010 1013
f 1013 1010 1014
f 1014 1010 1015
f 1016 1017 1018
f 1016 1018 1019
f 1016 1019 1020
f 1017 1016 1021
f 1022 1023 1024
f 1022 1025 1023
f 1026 1025 1022
f 1025 1026 1027
f 1028 1029 1030
f 1031 1029 1028
f 1032 1029 1031
f 1029 1032 1033
f 1034 915 1035
f 915 1034 913
f 1036 1002 1004
f 1002 1036 1037
f 1038 1039 1040
f 1039 1038 1041
f 1042 1043 1044
f 1043 1042 1045
f 1046 1015 1010
f 1015 1046 1047
f 1047 1046 1048
f 1048 1046 1049
f 1049 1046 1050
f 1050 1046 1051
f 1052 1020 1053
f 1052 1053 1054
f 1052 1054 1055
f 1052 1055 1056
f 1052 1056 1057
f 1020 1052 1016
f 1026 1058 1027
f 1026 1059 1058
f 1060 1059 1026
f 1059 1060 1061
f 1062 1033 1032
f 1063 1033 1062
f 1064 1063 1065
f 1063 1064 1033
f 1066 1067 1068
f 1067 1066 1069
f 1070 1071 1072
f 1071 1070 1073
f 1074 1075 1076
f 1075 1074 1077
f 1077 1008 1075
f 1008 1077 1006
f 1041 1076 1039
f 1076 1041 1074
f 1078 1079 1080
f 1079 1078 1081
f 1082 1083 1084
f 1083 1082 1085
f 1086 1087 1088
f 1087 1086 1089
f 1090 1091 1092
f 1091 1090 1093
f 1094 1090 1095
f 1090 1094 1093
f 1096 1095 1097
f 1095 1096 1094
f 1085 1097 1083
f 1097 1085 1096
f 1098 1099 1100
f 1099 1098 1101
f 912 1102 910
f 1102 912 1103
f 1104 1105 1106
f 1105 1104 1107
f 948 1108 961
f 948 1109 1108
f 948 1110 1109
f 1022 1110 948
f 1110 1022 1024
f 1111 975 998
f 1112 975 1111
f 1113 975 1112
f 1030 975 1113
f 975 1030 1029
f 1114 1040 1115
f 1040 1114 1038
f 1005 1115 1003
f 1115 1005 1114
f 1072 1116 1117
f 1116 1072 1071
f 1001 1069 1066
f 1069 1001 1000
f 1068 1073 1070
f 1073 1068 1067
f 1009 1118 1007
f 1118 1009 1119
f 1045 1084 1043
f 1084 1045 1082
f 916 1044 914
f 1044 916 1042
f 1092 1120 1121
f 1120 1092 1091
f 1122 1123 1124
f 1123 1122 1125
f 1121 1125 1122
f 1125 1121 1120
f 1107 911 1105
f 911 1107 909
f 1103 1035 1102
f 1035 1103 1034
f 1057 1106 1052
f 1126 1106 1057
f 1127 1106 1126
f 1128 1106 1127
f 1104 1128 1129
f 1104 1051 1046
f 1051 1104 1130
f 1130 1104 1129
f 1128 1104 1106
f 1012 1131 1132
f 1131 1012 1133
f 1133 1012 1134
f 1134 1012 1011
f 1021 1135 1136
f 1021 1136 1137
f 1021 1137 1017
f 1135 1021 1138
f 1060 1139 1061
f 1060 1140 1139
f 1141 1140 1060
f 1140 1141 1142
f 1143 1064 1065
f 1144 1064 1143
f 1145 1144 1146
f 1144 1145 1064
f 1117 1037 1036
f 1037 1117 1116
f 1147 1081 1078
f 1081 1147 1148
f 1119 919 1118
f 919 1119 917
f 1149 1089 1086
f 1089 1149 1150
f 1088 12 9
f 12 1088 1087
f 903 905 848
f 905 665 666
f 904 905 903
f 905 680 665
f 885 905 904
f 905 679 680
f 886 905 885
f 905 700 679
f 883 905 886
f 905 701 700
f 702 905 883
f 905 702 701
f 884 702 883
f 884 672 702
f 890 672 884
f 890 671 672
f 889 671 890
f 889 683 671
f 892 683 889
f 892 681 683
f 891 681 892
f 891 682 681
f 888 682 891
f 888 703 682
f 887 703 888
f 887 704 703
f 882 704 887
f 882 669 704
f 881 669 882
f 881 670 669
f 870 670 881
f 870 708 670
f 869 708 870
f 869 709 708
f 894 709 869
f 894 675 709
f 893 675 894
f 893 676 675
f 896 676 893
f 896 687 676
f 895 687 896
f 895 673 687
f 871 673 895
f 871 674 673
f 872 674 871
f 872 686 674
f 1151 872 900
f 872 1152 686
f 1151 900 901
f 1153 686 1152
f 1154 901 902
f 686 1153 685
f 1155 902 897
f 1156 685 1153
f 1157 897 898
f 685 1156 684
f 1158 898 899
f 1159 684 1156
f 1160 899 877
f 684 1159 705
f 858 905 907
f 905 666 948
f 858 907 1147
f 724 948 666
f 858 1147 1078
f 694 948 724
f 858 1078 1080
f 695 948 694
f 858 1080 1161
f 688 948 695
f 858 1161 1098
f 689 948 688
f 858 1098 1100
f 715 948 689
f 858 1100 1162
f 692 948 715
f 858 1162 1163
f 693 948 692
f 858 1163 1164
f 714 948 693
f 858 1164 1165
f 713 948 714
f 858 1165 920
f 712 948 713
f 858 920 917
f 691 948 712
f 858 917 1119
f 690 948 691
f 858 1119 1009
f 711 948 690
f 848 905 847
f 905 856 847
f 905 855 856
f 905 854 855
f 905 853 854
f 905 857 853
f 905 874 857
f 905 873 874
f 905 845 873
f 905 846 845
f 905 858 846
f 1009 859 858
f 1009 876 859
f 1009 860 876
f 1009 861 860
f 1009 875 861
f 1009 866 875
f 1009 867 866
f 1009 849 867
f 1009 850 849
f 1009 880 850
f 1009 868 880
f 1009 865 868
f 1009 864 865
f 1009 879 864
f 1166 879 1009
f 902 1155 1154
f 1167 877 862
f 1167 862 863
f 1168 863 878
f 1169 878 851
f 1170 851 852
f 879 1166 852
f 897 1157 1155
f 898 1158 1157
f 899 1160 1158
f 877 1167 1160
f 863 1168 1167
f 878 1169 1168
f 851 1170 1169
f 852 1166 1170
f 1009 1171 1166
f 1009 1172 1171
f 1009 1173 1172
f 1009 1174 1173
f 1009 1175 1174
f 1009 1176 1175
f 1009 1177 1176
f 1006 1177 1009
f 1177 1006 1178
f 1179 1006 1180
f 1181 1006 1179
f 1182 1006 1181
f 1183 1006 1182
f 1184 1006 1183
f 1185 1006 1184
f 1186 1006 1185
f 1187 1006 1186
f 1188 1006 1187
f 1189 1006 1188
f 1190 1006 1189
f 1191 1006 1190
f 1192 1006 1191
f 1178 1006 1192
f 710 948 711
f 913 948 710
f 1022 913 1026
f 1026 913 1060
f 1060 913 1141
f 1132 913 1012
f 1012 913 1010
f 1010 913 1046
f 1046 913 1104
f 1107 913 909
f 909 913 912
f 912 913 1103
f 1103 913 1034
f 1104 913 1107
f 1141 913 1132
f 948 913 1022
f 717 913 710
f 716 913 717
f 697 913 716
f 696 913 697
f 699 913 696
f 698 913 699
f 718 913 698
f 677 913 718
f 678 913 677
f 719 913 678
f 720 913 719
f 1193 720 721
f 901 1154 1151
f 872 1151 1152
f 1194 705 1159
f 705 1194 707
f 707 1194 706
f 1195 706 1194
f 706 1195 668
f 1196 668 1195
f 668 1196 667
f 1197 667 1196
f 667 1197 723
f 1198 723 1197
f 723 1198 722
f 1199 722 1198
f 722 1199 721
f 1193 721 1199
f 720 1193 913
f 1200 913 1193
f 1201 913 1200
f 916 1201 1202
f 916 1202 1203
f 916 1203 1204
f 916 1204 1205
f 916 1205 1206
f 916 1206 1207
f 1006 1208 1180
f 1006 1209 1208
f 10 1209 1006
f 1209 10 1210
f 12 1210 10
f 1210 12 1211
f 1211 12 1212
f 916 1212 12
f 1212 916 1213
f 1213 916 1214
f 1201 916 913
f 10 1006 1077
f 1214 916 1215
f 10 1077 1074
f 1215 916 1207
f 10 1074 1041
f 916 12 1042
f 10 1041 1038
f 1042 12 1045
f 10 1038 1114
f 1045 12 1082
f 10 1114 1005
f 1082 12 1085
f 10 1005 1002
f 1085 12 1096
f 10 1002 1037
f 1096 12 1094
f 10 1037 1116
f 1094 12 1093
f 10 1116 1071
f 1093 12 1091
f 10 1071 1073
f 1091 12 1120
f 10 1073 1067
f 1120 12 1125
f 10 1067 1069
f 1125 12 1123
f 10 1069 1000
f 1123 12 1150
f 1150 12 1089
f 1089 12 1087
f 1124 1150 1149
f 1150 1124 1123
f 1141 1216 1142
f 1141 1217 1216
f 1132 1217 1141
f 1217 1132 1218
f 1218 1132 1131
f 1219 1145 1146
f 1138 1219 1220
f 1138 1220 1221
f 1138 1221 1135
f 1219 1138 1145
f 1161 1101 1098
f 1101 1161 1222
f 1165 1223 1224
f 1223 1165 1164
f 1100 1225 1162
f 1225 1100 1099
f 1080 1222 1161
f 1222 1080 1079
f 920 1224 918
f 1224 920 1165
f 1164 1226 1223
f 1226 1164 1163
f 907 1148 1147
f 1148 907 906
f 1163 1225 1226
f 1225 1163 1162
f 45 44 1227
f 120 1228 118
f 1229 1228 120
f 1230 1229 1227
f 1229 1230 1228
f 1230 1227 44
f 1231 53 1232
f 53 1231 54
f 1233 146 145
f 146 1233 1234
f 1235 54 1231
f 54 1235 57
f 1236 87 88
f 87 1236 1237
f 1238 126 1239
f 126 1238 128
f 1240 145 143
f 145 1240 1233
f 118 1241 116
f 1241 118 1228
f 1242 66 1243
f 66 1242 70
f 1244 64 1245
f 64 1244 61
f 1246 156 154
f 156 1246 1247
f 1234 148 146
f 148 1234 1248
f 1249 154 152
f 154 1249 1246
f 1250 137 135
f 137 1250 1251
f 1081 1231 1232
f 1231 908 1235
f 1079 1232 1252
f 975 1235 908
f 1079 1252 1253
f 1029 1235 975
f 1222 1253 1244
f 1033 1235 1029
f 1101 1244 1245
f 1064 1235 1033
f 1101 1245 1254
f 1235 1064 1255
f 1099 1254 1256
f 1145 1255 1064
f 1255 1145 1243
f 1231 906 908
f 1099 1256 1257
f 1231 1148 906
f 1231 1081 1148
f 1232 1079 1081
f 1225 1257 1258
f 1253 1222 1079
f 1226 1258 1259
f 1244 1101 1222
f 1254 1099 1101
f 1226 1259 1260
f 1257 1225 1099
f 1223 1260 1261
f 1258 1226 1225
f 1224 1261 1262
f 1260 1223 1226
f 1224 1262 1263
f 1261 1224 1223
f 918 1263 1237
f 1263 918 1224
f 1237 919 918
f 1237 1118 919
f 1237 1007 1118
f 1237 1008 1007
f 1236 1008 1237
f 1236 1075 1008
f 1236 1076 1075
f 1236 1039 1076
f 1264 1039 1236
f 1039 1264 1040
f 1265 1040 1264
f 1266 1040 1265
f 1040 1266 1115
f 1267 1115 1266
f 1115 1267 1003
f 1268 1003 1267
f 1269 1003 1268
f 1003 1269 1004
f 1270 1004 1269
f 1004 1270 1036
f 1271 1036 1270
f 1272 1036 1271
f 1036 1272 1117
f 1273 1117 1272
f 1274 1117 1273
f 1117 1274 1072
f 1275 1072 1274
f 1276 1070 1275
f 1072 1275 1070
f 1243 1145 1242
f 1138 1242 1145
f 1242 1138 1277
f 1021 1277 1138
f 1277 1021 1278
f 1278 1021 1239
f 1016 1239 1021
f 1239 1016 1238
f 1238 1016 1279
f 1052 1279 1016
f 1279 1052 1280
f 1106 1280 1052
f 1280 1106 1250
f 1250 1106 1251
f 1105 1251 1106
f 1251 1105 1281
f 911 1281 1105
f 1281 911 1282
f 1282 911 1240
f 910 1240 911
f 1240 910 1233
f 1102 1233 910
f 1035 1233 1102
f 915 1233 1035
f 914 1233 915
f 914 1234 1233
f 1044 1234 914
f 1043 1234 1044
f 1084 1234 1043
f 1248 1084 1083
f 1084 1248 1234
f 1249 1083 1097
f 1083 1283 1248
f 1246 1097 1095
f 1083 1249 1283
f 1284 1095 1090
f 1097 1246 1249
f 1285 1090 1092
f 1286 1092 1121
f 1095 1247 1246
f 1287 1121 1122
f 1095 1284 1247
f 1288 1122 1124
f 1289 1124 1149
f 1230 1149 1086
f 1090 1285 1284
f 1230 1086 1088
f 1230 1088 9
f 1092 1290 1285
f 11 1228 9
f 1241 1070 1276
f 1230 9 1228
f 1070 1241 1068
f 1149 1230 1289
f 1228 1068 1241
f 1092 1286 1290
f 1068 1228 1066
f 1121 1291 1286
f 1066 1228 1001
f 1121 1287 1291
f 1001 1228 11
f 1122 1288 1287
f 1124 1292 1288
f 1124 1289 1292
f 106 1271 103
f 1271 106 1272
f 1267 93 95
f 93 1267 1266
f 1260 78 80
f 78 1260 1259
f 1258 74 76
f 74 1258 1257
f 1256 74 1257
f 74 1256 71
f 1252 58 1253
f 58 1252 55
f 1232 55 1252
f 55 1232 53
f 1248 150 148
f 150 1248 1283
f 162 1286 163
f 1286 162 1290
f 166 1292 168
f 1292 166 1288
f 165 1288 166
f 1288 165 1287
f 169 1230 44
f 1230 169 1289
f 114 1275 112
f 1275 114 1276
f 112 1274 110
f 1274 112 1275
f 1269 97 99
f 97 1269 1268
f 1268 95 97
f 95 1268 1267
f 1280 135 133
f 135 1280 1250
f 1281 141 139
f 141 1281 1282
f 1279 133 131
f 133 1279 1280
f 1243 60 1255
f 60 1243 66
f 1262 82 84
f 82 1262 1261
f 1265 89 91
f 89 1265 1264
f 1264 88 89
f 88 1264 1236
f 1266 91 93
f 91 1266 1265
f 1259 76 78
f 76 1259 1258
f 1245 67 1254
f 67 1245 64
f 1254 71 1256
f 71 1254 67
f 1253 61 1244
f 61 1253 58
f 1284 160 158
f 160 1284 1285
f 1247 158 156
f 158 1247 1284
f 164 1287 165
f 1287 164 1291
f 163 1291 164
f 1291 163 1286
f 168 1289 169
f 1289 168 1292
f 116 1276 114
f 1276 116 1241
f 110 1273 108
f 1273 110 1274
f 108 1272 106
f 1272 108 1273
f 103 1270 101
f 1270 103 1271
f 1270 99 101
f 99 1270 1269
f 1251 139 137
f 139 1251 1281
f 1282 143 141
f 143 1282 1240
f 1279 128 1238
f 128 1279 131
f 1277 70 1242
f 70 1277 122
f 1255 57 1235
f 57 1255 60
f 1237 86 87
f 86 1237 1263
f 1263 84 86
f 84 1263 1262
f 1261 80 82
f 80 1261 1260
f 1283 152 150
f 152 1283 1249
f 160 1290 162
f 1290 160 1285
f 1239 124 1278
f 124 1239 126
f 1278 122 1277
f 122 1278 124
f 1293 1294 1295
f 1294 1293 1296
f 1297 1298 1299
f 1298 1297 1300
f 1301 1302 1303
f 1302 1301 1304
f 1305 1306 1307
f 1306 1305 1308
f 1309 1310 1311
f 1310 1309 1312
f 1313 1314 1315
f 1314 1313 1316
f 1315 1317 1318
f 1317 1315 1314
f 1319 1320 1321
f 1320 1319 1322
f 1323 1299 1324
f 1299 1323 1297
f 1325 1326 1327
f 1326 1325 1328
f 1329 1330 1331
f 1330 1329 1332
f 1333 1334 1335
f 1334 1333 1336
f 1337 1338 1339
f 1338 1337 1340
f 1341 1342 1343
f 1342 1341 1344
f 1345 1340 1337
f 1340 1345 1346
f 1318 1347 1348
f 1347 1318 1317
f 1348 1349 1350
f 1349 1348 1347
f 1350 1322 1319
f 1322 1350 1349
f 1351 1320 1352
f 1320 1351 1321
f 1353 1354 1355
f 1354 1353 1356
f 1357 1358 1359
f 1358 1357 1360
f 1361 1362 1363
f 1362 1361 1364
f 1307 1332 1329
f 1332 1307 1306
f 1365 1355 1366
f 1355 1365 1353
f 1304 1367 1302
f 1367 1304 1368
f 1368 1366 1367
f 1366 1368 1365
f 1369 1303 1370
f 1303 1369 1301
f 1334 1370 1335
f 1370 1334 1369
f 1331 1336 1333
f 1336 1331 1330
f 1371 1372 1373
f 1372 1371 1374
f 1375 1376 1377
f 1376 1375 1378
f 1379 1380 1381
f 1380 1379 1382
f 1344 1377 1342
f 1377 1344 1375
f 1383 1384 1385
f 1384 1383 1386
f 1387 1346 1345
f 1346 1387 1388
f 1387 1385 1388
f 1385 1387 1383
f 1389 1382 1379
f 1382 1389 1390
f 1339 1390 1389
f 1390 1339 1338
f 1391 1392 1393
f 1392 1391 1394
f 1378 1393 1376
f 1393 1378 1391
f 1296 1395 1294
f 1395 1296 1396
f 1397 1398 1399
f 1398 1397 1400
f 1401 1402 1403
f 1402 1401 1404
f 1405 1328 1325
f 1328 1405 1406
f 1407 1408 1409
f 1408 1407 1410
f 1373 1316 1313
f 1316 1373 1372
f 1300 1352 1298
f 1352 1300 1351
f 1356 1359 1354
f 1359 1356 1357
f 1360 1324 1358
f 1324 1360 1323
f 1327 1364 1361
f 1364 1327 1326
f 1363 1308 1305
f 1308 1363 1362
f 1381 1411 1412
f 1411 1381 1380
f 1412 1374 1371
f 1374 1412 1411
f 1386 1343 1384
f 1343 1386 1341
f 1394 1295 1392
f 1295 1394 1293
f 1396 1399 1395
f 1399 1396 1397
f 1403 1406 1405
f 1406 1403 1402
f 1311 1404 1401
f 1404 1311 1310
f 1409 1312 1309
f 1312 1409 1408
f 1400 1407 1398
f 1407 1400 1410
f 1179 1413 1181
f 1413 1179 1414
f 1415 1154 1416
f 1154 1415 1151
f 1417 1203 1202
f 1203 1417 1418
f 1419 1172 1173
f 1172 1419 1420
f 1421 1190 1189
f 1190 1421 1422
f 1181 1423 1182
f 1423 1181 1413
f 1213 1424 1212
f 1424 1213 1425
f 1426 1160 1427
f 1160 1426 1158
f 1427 1167 1428
f 1167 1427 1160
f 1429 1166 1430
f 1166 1429 1170
f 1431 1173 1174
f 1173 1431 1419
f 1432 1175 1176
f 1175 1432 1433
f 1374 1434 1435
f 1372 1435 1426
f 1434 1374 1416
f 1316 1426 1427
f 1411 1416 1374
f 1314 1427 1428
f 1416 1411 1415
f 1317 1428 1436
f 1380 1415 1411
f 1347 1436 1437
f 1415 1380 1438
f 1382 1438 1380
f 1435 1372 1374
f 1426 1316 1372
f 1427 1314 1316
f 1349 1437 1429
f 1428 1317 1314
f 1436 1347 1317
f 1322 1429 1430
f 1437 1349 1347
f 1320 1430 1439
f 1429 1322 1349
f 1430 1320 1322
f 1352 1439 1420
f 1439 1352 1320
f 1298 1420 1419
f 1420 1298 1352
f 1419 1299 1298
f 1431 1299 1419
f 1431 1324 1299
f 1433 1324 1431
f 1433 1358 1324
f 1432 1358 1433
f 1432 1359 1358
f 1440 1359 1432
f 1440 1354 1359
f 1440 1355 1354
f 1441 1355 1440
f 1441 1366 1355
f 1442 1366 1441
f 1442 1367 1366
f 1443 1367 1442
f 1443 1302 1367
f 1422 1302 1443
f 1302 1422 1303
f 1421 1303 1422
f 1303 1421 1370
f 1444 1370 1421
f 1370 1444 1335
f 1445 1335 1444
f 1335 1445 1333
f 1446 1333 1445
f 1333 1446 1331
f 1447 1331 1446
f 1331 1447 1329
f 1448 1329 1447
f 1329 1448 1307
f 1449 1307 1448
f 1423 1305 1449
f 1307 1449 1305
f 1438 1382 1450
f 1390 1450 1382
f 1450 1390 1451
f 1338 1451 1390
f 1451 1338 1452
f 1340 1452 1338
f 1452 1340 1453
f 1346 1453 1340
f 1453 1346 1454
f 1388 1454 1346
f 1454 1388 1455
f 1385 1455 1388
f 1455 1385 1456
f 1384 1456 1385
f 1456 1384 1457
f 1343 1457 1384
f 1343 1458 1457
f 1342 1458 1343
f 1342 1459 1458
f 1377 1459 1342
f 1377 1460 1459
f 1376 1460 1377
f 1393 1460 1376
f 1393 1461 1460
f 1392 1461 1393
f 1392 1417 1461
f 1295 1417 1392
f 1295 1418 1417
f 1294 1418 1295
f 1294 1462 1418
f 1395 1462 1294
f 1463 1395 1399
f 1395 1463 1462
f 1464 1399 1398
f 1399 1464 1463
f 1465 1398 1407
f 1466 1407 1409
f 1398 1465 1464
f 1467 1409 1309
f 1407 1466 1465
f 1425 1309 1311
f 1424 1311 1401
f 1409 1467 1466
f 1468 1401 1403
f 1469 1403 1405
f 1470 1405 1325
f 1309 1425 1467
f 1471 1325 1327
f 1305 1423 1363
f 1413 1363 1423
f 1311 1424 1425
f 1363 1413 1361
f 1401 1468 1424
f 1414 1361 1413
f 1403 1469 1468
f 1361 1414 1327
f 1405 1470 1469
f 1472 1327 1414
f 1325 1471 1470
f 1327 1472 1471
f 1208 1472 1180
f 1472 1208 1471
f 1186 1445 1187
f 1445 1186 1446
f 1450 1152 1438
f 1152 1450 1153
f 1457 1199 1198
f 1199 1457 1458
f 1453 1159 1452
f 1159 1453 1194
f 1460 1201 1200
f 1201 1460 1461
f 1462 1205 1204
f 1205 1462 1463
f 1428 1168 1436
f 1168 1428 1167
f 1436 1169 1437
f 1169 1436 1168
f 1437 1170 1429
f 1170 1437 1169
f 1439 1166 1171
f 1166 1439 1430
f 1441 1177 1178
f 1177 1441 1440
f 1433 1174 1175
f 1174 1433 1431
f 1184 1447 1185
f 1447 1184 1448
f 1183 1448 1184
f 1448 1183 1449
f 1442 1178 1192
f 1178 1442 1441
f 1422 1191 1190
f 1191 1422 1443
f 1443 1192 1191
f 1192 1443 1442
f 1444 1189 1188
f 1189 1444 1421
f 1445 1188 1187
f 1188 1445 1444
f 1185 1446 1186
f 1446 1185 1447
f 1434 1157 1435
f 1157 1434 1155
f 1459 1200 1193
f 1200 1459 1460
f 1458 1193 1199
f 1193 1458 1459
f 1455 1197 1196
f 1197 1455 1456
f 1454 1194 1453
f 1194 1454 1195
f 1454 1196 1195
f 1196 1454 1455
f 1461 1202 1201
f 1202 1461 1417
f 1418 1204 1203
f 1204 1418 1462
f 1464 1207 1206
f 1207 1464 1465
f 1211 1469 1210
f 1469 1211 1468
f 1209 1471 1208
f 1471 1209 1470
f 1215 1467 1214
f 1467 1215 1466
f 1465 1215 1207
f 1215 1465 1466
f 1435 1158 1426
f 1158 1435 1157
f 1420 1171 1172
f 1171 1420 1439
f 1440 1176 1177
f 1176 1440 1432
f 1180 1414 1179
f 1414 1180 1472
f 1182 1449 1183
f 1449 1182 1423
f 1416 1155 1434
f 1155 1416 1154
f 1438 1151 1415
f 1151 1438 1152
f 1452 1156 1451
f 1156 1452 1159
f 1456 1198 1197
f 1198 1456 1457
f 1463 1206 1205
f 1206 1463 1464
f 1210 1470 1209
f 1470 1210 1469
f 1212 1468 1211
f 1468 1212 1424
f 1214 1425 1213
f 1425 1214 1467
f 1451 1153 1450
f 1153 1451 1156
f 480 1473 513
f 1473 480 1474
f 473 1475 476
f 1475 473 1476
f 526 1477 1478
f 1477 526 525
f 519 1479 1480
f 1479 519 518
f 1481 535 1482
f 535 1481 536
f 530 1483 1484
f 1483 530 529
f 1485 505 1486
f 505 1485 504
f 513 1487 514
f 1487 513 1473
f 523 1488 1489
f 1488 523 522
f 524 1489 1490
f 1489 524 523
f 1491 538 1492
f 538 1491 539
f 1492 537 1493
f 537 1492 538
f 1494 540 1495
f 540 1494 541
f 1496 542 1497
f 542 1496 543
f 490 1498 1499
f 1498 490 491
f 483 1500 482
f 1500 483 1501
f 496 1502 1503
f 1502 496 497
f 476 1474 480
f 1474 476 1475
f 514 1504 515
f 1504 514 1487
f 515 1505 516
f 1505 515 1504
f 516 1506 517
f 1506 516 1505
f 525 1490 1477
f 1490 525 524
f 520 1480 1507
f 1480 520 519
f 521 1507 1508
f 1507 521 520
f 1493 536 1481
f 536 1493 537
f 1495 539 1491
f 539 1495 540
f 1497 541 1494
f 541 1497 542
f 531 1484 1509
f 1484 531 530
f 533 1509 1510
f 1509 533 531
f 1482 533 1510
f 533 1482 535
f 527 1478 1511
f 1478 527 526
f 528 1511 1512
f 1511 528 527
f 474 1476 473
f 1476 474 1513
f 493 1514 1515
f 1514 493 494
f 491 1515 1498
f 1515 491 493
f 487 1516 1517
f 1516 487 489
f 485 1501 483
f 1501 485 1518
f 482 1519 481
f 1519 482 1500
f 495 1503 1520
f 1503 495 496
f 499 1521 1522
f 1521 499 501
f 501 1523 1521
f 1523 501 503
f 498 1522 1524
f 1522 498 499
f 497 1524 1502
f 1524 497 498
f 494 1520 1514
f 1520 494 495
f 503 1485 1523
f 1485 503 504
f 1525 508 1526
f 508 1525 506
f 1527 511 1528
f 511 1527 510
f 1529 543 1496
f 543 1529 512
f 517 1479 518
f 1479 517 1506
f 522 1508 1488
f 1508 522 521
f 1371 1476 1513
f 1412 1513 1530
f 1476 1371 1475
f 1381 1530 1531
f 1373 1475 1371
f 1379 1531 1532
f 1475 1373 1474
f 1389 1532 1519
f 1313 1474 1373
f 1339 1519 1500
f 1474 1313 1473
f 1315 1473 1313
f 1513 1412 1371
f 1530 1381 1412
f 1531 1379 1381
f 1337 1500 1501
f 1532 1389 1379
f 1519 1339 1389
f 1345 1501 1518
f 1500 1337 1339
f 1387 1518 1517
f 1501 1345 1337
f 1518 1387 1345
f 1383 1517 1516
f 1517 1383 1387
f 1386 1516 1499
f 1516 1386 1383
f 1499 1341 1386
f 1498 1341 1499
f 1498 1344 1341
f 1515 1344 1498
f 1515 1375 1344
f 1514 1375 1515
f 1514 1378 1375
f 1520 1378 1514
f 1520 1391 1378
f 1520 1394 1391
f 1503 1394 1520
f 1503 1293 1394
f 1502 1293 1503
f 1502 1296 1293
f 1524 1296 1502
f 1524 1396 1296
f 1522 1396 1524
f 1396 1522 1397
f 1521 1397 1522
f 1397 1521 1400
f 1523 1400 1521
f 1400 1523 1410
f 1485 1410 1523
f 1410 1485 1408
f 1486 1408 1485
f 1408 1486 1312
f 1525 1312 1486
f 1312 1525 1310
f 1526 1310 1525
f 1310 1526 1404
f 1527 1404 1526
f 1528 1402 1527
f 1404 1527 1402
f 1473 1315 1487
f 1318 1487 1315
f 1487 1318 1504
f 1348 1504 1318
f 1504 1348 1505
f 1350 1505 1348
f 1505 1350 1506
f 1319 1506 1350
f 1506 1319 1479
f 1321 1479 1319
f 1479 1321 1480
f 1351 1480 1321
f 1480 1351 1507
f 1300 1507 1351
f 1507 1300 1508
f 1297 1508 1300
f 1297 1488 1508
f 1323 1488 1297
f 1323 1489 1488
f 1360 1489 1323
f 1360 1490 1489
f 1357 1490 1360
f 1356 1490 1357
f 1356 1477 1490
f 1353 1477 1356
f 1353 1478 1477
f 1365 1478 1353
f 1365 1511 1478
f 1368 1511 1365
f 1368 1512 1511
f 1304 1512 1368
f 1483 1304 1301
f 1304 1483 1512
f 1484 1301 1369
f 1301 1484 1483
f 1509 1369 1334
f 1510 1334 1336
f 1369 1509 1484
f 1482 1336 1330
f 1334 1510 1509
f 1481 1330 1332
f 1493 1332 1306
f 1336 1482 1510
f 1492 1306 1308
f 1491 1308 1362
f 1495 1362 1364
f 1330 1481 1482
f 1494 1364 1326
f 1402 1528 1406
f 1529 1406 1528
f 1332 1493 1481
f 1406 1529 1328
f 1306 1492 1493
f 1496 1328 1529
f 1308 1491 1492
f 1328 1496 1326
f 1362 1495 1491
f 1497 1326 1496
f 1364 1494 1495
f 1326 1497 1494
f 529 1512 1483
f 1512 529 528
f 478 1531 477
f 1531 478 1532
f 489 1499 1516
f 1499 489 490
f 485 1517 1518
f 1517 485 487
f 1486 506 1525
f 506 1486 505
f 1528 512 1529
f 512 1528 511
f 1526 510 1527
f 510 1526 508
f 481 1532 478
f 1532 481 1519
f 477 1530 475
f 1530 477 1531
f 475 1513 474
f 1513 475 1530
f 1533 258 1534
f 258 1533 374
f 1533 1535 1536
f 1535 1533 1534
f 325 1535 241
f 1535 325 1536
f 325 1533 1536
f 1533 325 374
f 258 1535 1534
f 1535 258 241
f 173 1227 1229
f 1227 173 175
f 1227 43 45
f 43 1227 175
f 173 120 119
f 120 173 1229
f 1537 1538 1539
f 1537 1540 1538
f 1537 1541 1540
f 1537 1542 1541
f 1537 1543 1542
f 1537 1544 1543
f 1537 1545 1544
f 1537 1546 1545
f 1537 1547 1546
f 1537 1548 1547
f 1537 1549 1548
f 1537 1550 1549
f 1537 1551 1550
f 1537 1552 1551
f 1537 1553 1552
f 1537 1554 1553
f 1537 1555 1554
f 1556 1557 1558
f 1559 1556 1560
f 1561 1560 1562
f 1563 1562 1564
f 1565 1564 1566
f 1567 1566 1568
f 1569 1568 1570
f 1571 1570 1572
f 1573 1572 1574
f 1575 1574 1576
f 1577 1576 1578
f 1579 1578 1580
f 1556 1559 1557
f 1560 1561 1559
f 1581 1580 1582
f 1562 1563 1561
f 1564 1565 1563
f 1566 1567 1565
f 1583 1582 1555
f 1568 1569 1567
f 1570 1571 1569
f 1584 1555 1537
f 1572 1573 1571
f 1574 1575 1573
f 1576 1577 1575
f 1578 1579 1577
f 1580 1581 1579
f 1582 1583 1581
f 1555 1584 1583
f 1585 1584 1537
f 1586 1585 1587
f 1588 1585 1586
f 1589 1585 1588
f 1590 1585 1589
f 1591 1585 1590
f 1592 1585 1591
f 1593 1585 1592
f 1594 1585 1593
f 1595 1585 1594
f 1596 1585 1595
f 1597 1585 1596
f 1598 1585 1597
f 1599 1585 1598
f 1600 1585 1599
f 1601 1585 1600
f 1584 1585 1601
f 1602 1539 1538
f 1603 1539 1602
f 1604 1539 1603
f 1605 1539 1604
f 1606 1539 1605
f 1607 1539 1606
f 1608 1539 1607
f 1609 1539 1608
f 1610 1539 1609
f 1611 1539 1610
f 1612 1539 1611
f 1613 1539 1612
f 1614 1539 1613
f 1615 1539 1614
f 1616 1539 1615
f 1617 1539 1616
f 1557 1618 1558
f 1619 1618 1557
f 1618 1619 1620
f 1621 1620 1619
f 1620 1621 1622
f 1623 1622 1621
f 1622 1623 1624
f 1625 1624 1623
f 1624 1625 1626
f 1627 1626 1625
f 1626 1627 1628
f 1629 1628 1627
f 1628 1629 1630
f 1631 1630 1629
f 1630 1631 1632
f 1633 1632 1631
f 1632 1633 1634
f 1635 1634 1633
f 1634 1635 1636
f 1637 1636 1635
f 1636 1637 1638
f 1639 1638 1637
f 1638 1639 1640
f 1641 1640 1639
f 1640 1641 1642
f 1643 1642 1641
f 1642 1643 1617
f 1644 1617 1643
f 1617 1644 1539
f 1645 1644 1646
f 1645 1587 1585
f 1587 1645 1647
f 1647 1645 1648
f 1644 1645 1539
f 1649 1645 1646
f 1650 1645 1649
f 1651 1645 1650
f 1652 1645 1651
f 1653 1645 1652
f 1654 1645 1653
f 1655 1645 1654
f 1656 1645 1655
f 1657 1645 1656
f 1658 1645 1657
f 1659 1645 1658
f 1660 1645 1659
f 1648 1645 1660
f 1585 39 239
f 1585 239 224
f 1585 224 221
f 1585 221 197
f 1585 197 196
f 39 1585 1537
f 39 1537 37
f 1539 42 40
f 1645 42 1539
f 42 1645 238
f 238 1645 223
f 223 1645 220
f 220 1645 201
f 201 1645 199
f 199 1585 196
f 1585 199 1645
f 1539 37 1537
f 37 1539 40
f 1059 1646 1644
f 1061 1646 1059
f 1646 1061 1139
f 1600 1143 1601
f 1143 1600 1144
f 938 1559 979
f 1559 938 1557
f 1575 1111 1573
f 1111 1575 1112
f 985 1567 987
f 1567 985 1565
f 942 1619 940
f 1619 942 1621
f 944 1621 942
f 1621 944 1623
f 1581 1028 1579
f 1028 1581 1031
f 1030 1577 1579
f 1577 1030 1113
f 1030 1579 1028
f 1584 1062 1583
f 1062 1584 1063
f 1139 1649 1646
f 1649 1139 1140
f 1586 1126 1588
f 1126 1586 1127
f 1130 1647 1648
f 1647 1130 1129
f 1058 1644 1643
f 1644 1058 1059
f 1023 1641 1639
f 1641 1023 1025
f 961 1631 960
f 1633 961 1108
f 961 1633 1631
f 1108 1635 1633
f 1635 1108 1109
f 1109 1637 1635
f 1637 1109 1110
f 940 1557 938
f 1557 940 1619
f 959 1627 957
f 1627 959 1629
f 946 1623 944
f 1623 946 1625
f 957 1625 946
f 1625 957 1627
f 1583 1031 1581
f 1583 1032 1031
f 1032 1583 1062
f 996 1571 997
f 1571 996 1569
f 979 1561 981
f 1561 979 1559
f 981 1563 983
f 1563 981 1561
f 1047 1658 1657
f 1658 1047 1048
f 1216 1651 1650
f 1651 1216 1217
f 1140 1650 1649
f 1142 1650 1140
f 1650 1142 1216
f 1593 1018 1594
f 1018 1593 1019
f 1596 1221 1597
f 1596 1135 1221
f 1135 1596 1136
f 1049 1660 1659
f 1660 1049 1050
f 1648 1051 1130
f 1050 1648 1660
f 1648 1050 1051
f 1025 1643 1641
f 1027 1643 1025
f 1643 1027 1058
f 1024 1637 1110
f 1637 1024 1639
f 1639 1024 1023
f 960 1629 959
f 1629 960 1631
f 1577 1112 1575
f 1112 1577 1113
f 1601 1063 1584
f 1601 1065 1063
f 1065 1601 1143
f 998 1573 1111
f 1571 998 997
f 998 1571 1573
f 987 1569 996
f 1569 987 1567
f 983 1565 985
f 1565 983 1563
f 1217 1652 1651
f 1652 1217 1218
f 1133 1654 1653
f 1654 1133 1134
f 1129 1587 1647
f 1587 1129 1128
f 1588 1056 1589
f 1056 1588 1057
f 1057 1588 1126
f 1599 1144 1600
f 1599 1146 1144
f 1146 1599 1219
f 1218 1653 1652
f 1131 1653 1218
f 1653 1131 1133
f 1587 1127 1586
f 1127 1587 1128
f 1592 1019 1593
f 1019 1592 1020
f 1020 1592 1053
f 1597 1220 1598
f 1220 1597 1221
f 1598 1219 1599
f 1219 1598 1220
f 1048 1659 1658
f 1659 1048 1049
f 1013 1656 1655
f 1656 1013 1014
f 1657 1015 1047
f 1014 1657 1656
f 1657 1014 1015
f 1134 1655 1654
f 1011 1655 1134
f 1655 1011 1013
f 1594 1137 1595
f 1594 1017 1137
f 1017 1594 1018
f 1595 1136 1596
f 1136 1595 1137
f 1589 1055 1590
f 1055 1589 1056
f 1590 1054 1591
f 1054 1590 1055
f 1591 1053 1592
f 1053 1591 1054
f 927 1606 926
f 1606 927 1607
f 958 1642 1617
f 1642 958 956
f 965 1544 966
f 1544 965 1543
f 974 1551 1552
f 1551 974 973
f 992 1578 1576
f 1578 992 993
f 1560 982 1562
f 982 1560 980
f 930 1611 1610
f 1611 930 931
f 921 1540 962
f 1540 921 1538
f 977 1553 1554
f 1553 977 976
f 971 1548 1549
f 1548 971 970
f 963 1542 964
f 1542 963 1541
f 935 1616 1615
f 1616 935 936
f 953 1634 1636
f 1634 953 952
f 956 1640 1642
f 1640 956 955
f 1558 978 1556
f 978 1558 939
f 1566 988 1568
f 988 1566 986
f 994 1582 1580
f 1582 994 995
f 934 1615 1614
f 1615 934 935
f 933 1614 1613
f 1614 933 934
f 932 1613 1612
f 1613 932 933
f 929 1608 928
f 1608 929 1609
f 925 1604 924
f 1604 925 1605
f 923 1602 922
f 1602 923 1603
f 999 1554 1555
f 1554 999 977
f 976 1552 1553
f 1552 976 974
f 973 1550 1551
f 1550 973 972
f 972 1549 1550
f 1549 972 971
f 964 1543 965
f 1543 964 1542
f 962 1541 963
f 1541 962 1540
f 967 1546 968
f 1546 967 1545
f 968 1547 969
f 1547 968 1546
f 966 1545 967
f 1545 966 1544
f 970 1547 1548
f 1547 970 969
f 936 1617 1616
f 1617 936 958
f 1620 937 1618
f 937 1620 941
f 1622 941 1620
f 941 1622 943
f 1624 943 1622
f 943 1624 945
f 1632 950 1630
f 950 1632 951
f 1628 947 1626
f 947 1628 949
f 1618 939 1558
f 939 1618 937
f 1556 980 1560
f 980 1556 978
f 1562 984 1564
f 984 1562 982
f 1564 986 1566
f 986 1564 984
f 993 1580 1578
f 1580 993 994
f 995 1555 1582
f 1555 995 999
f 990 1574 1572
f 1574 990 991
f 1570 990 1572
f 990 1570 989
f 991 1576 1574
f 1576 991 992
f 1568 989 1570
f 989 1568 988
f 931 1612 1611
f 1612 931 932
f 929 1610 1609
f 1610 929 930
f 928 1607 927
f 1607 928 1608
f 926 1605 925
f 1605 926 1606
f 924 1603 923
f 1603 924 1604
f 922 1538 921
f 1538 922 1602
f 955 1638 1640
f 1638 955 954
f 954 1636 1638
f 1636 954 953
f 1626 945 1624
f 945 1626 947
f 952 1632 1634
f 1632 952 951
f 1630 949 1628
f 949 1630 950
